<svg width="209" height="25" viewBox="0 0 209 25" fill="none" xmlns="http://www.w3.org/2000/svg">
<path d="M12.5699 21.1795L6.00132 24.7733C4.99561 25.3233 4.33404 24.8358 4.51947 23.7077L5.78289 16.0467L0.468336 10.656C-0.345662 9.83097 -0.0706621 9.02002 1.07648 8.84658L8.37417 7.74345L11.6805 0.774621C12.1707 -0.262889 12.9722 -0.253514 13.4593 0.774621L16.764 7.74345L24.0617 8.84658C25.212 9.02002 25.4917 9.82159 24.6698 10.656L19.3569 16.0467L20.6187 23.7077C20.8073 24.8452 20.1237 25.3124 19.1384 24.7733L12.5699 21.1795Z" fill="#4E5E77"/>
<path d="M44.7523 21.1795L38.1837 24.7733C37.178 25.3233 36.5164 24.8358 36.7018 23.7077L37.9653 16.0467L32.6507 10.656C31.8367 9.83097 32.1117 9.02002 33.2589 8.84658L40.5565 7.74345L43.8628 0.774621C44.3531 -0.262889 45.1545 -0.253514 45.6417 0.774621L48.9464 7.74345L56.2441 8.84658C57.3944 9.02002 57.6741 9.82159 56.8522 10.656L51.5392 16.0467L52.8011 23.7077C52.9897 24.8452 52.3061 25.3124 51.3208 24.7733L44.7523 21.1795Z" fill="#B3B3B3"/>
<path d="M76.9346 21.1795L70.3661 24.7733C69.3604 25.3233 68.6988 24.8358 68.8842 23.7077L70.1476 16.0467L64.8331 10.656C64.0191 9.83097 64.2941 9.02002 65.4412 8.84658L72.7389 7.74345L76.0452 0.774621C76.5355 -0.262889 77.3369 -0.253514 77.8241 0.774621L81.1288 7.74345L88.4265 8.84658C89.5767 9.02002 89.8564 9.82159 89.0346 10.656L83.7216 16.0467L84.9835 23.7077C85.172 24.8452 84.4885 25.3124 83.5032 24.7733L76.9346 21.1795Z" fill="#B3B3B3"/>
<path d="M109.117 21.1795L102.548 24.7733C101.542 25.3233 100.881 24.8358 101.066 23.7077L102.33 16.0467L97.0152 10.656C96.2012 9.83097 96.4762 9.02002 97.6234 8.84658L104.921 7.74345L108.227 0.774621C108.718 -0.262889 109.519 -0.253514 110.006 0.774621L113.311 7.74345L120.609 8.84658C121.759 9.02002 122.039 9.82159 121.217 10.656L115.904 16.0467L117.166 23.7077C117.354 24.8452 116.671 25.3124 115.685 24.7733L109.117 21.1795Z" fill="#B3B3B3"/>
<path d="M141.299 21.1795L134.731 24.7733C133.725 25.3233 133.063 24.8358 133.249 23.7077L134.512 16.0467L129.198 10.656C128.384 9.83097 128.659 9.02002 129.806 8.84658L137.103 7.74345L140.41 0.774621C140.9 -0.262889 141.701 -0.253514 142.189 0.774621L145.493 7.74345L152.791 8.84658C153.941 9.02002 154.221 9.82159 153.399 10.656L148.086 16.0467L149.348 23.7077C149.537 24.8452 148.853 25.3124 147.868 24.7733L141.299 21.1795Z" fill="black" fill-opacity="0.3"/>
<path d="M172.868 19.064C172.676 18.84 172.164 18.312 171.652 17.784C172.084 17.336 172.596 16.712 173.092 16.152L172.308 15.512C172.02 16.008 171.524 16.728 171.108 17.224C170.884 17 170.676 16.792 170.516 16.632C171.348 15.48 172.068 14.232 172.58 12.936L171.908 12.472L171.7 12.536H170.34V9.624H169.172V12.536H166.868V13.624H171.108C170.052 15.816 168.164 17.992 166.42 19.24C166.612 19.432 166.948 19.976 167.076 20.264C167.764 19.736 168.484 19.064 169.172 18.296V24.216H170.34V17.736C170.98 18.472 171.796 19.464 172.148 19.96L172.868 19.064ZM180.916 11.08H172.564V12.2H175.268C175.188 16.376 174.932 21 171.396 23.336C171.716 23.544 172.1 23.96 172.308 24.232C175.972 21.64 176.356 16.712 176.484 12.2H179.716C179.556 19.416 179.348 22.072 178.868 22.632C178.692 22.856 178.532 22.92 178.244 22.904C177.892 22.904 177.028 22.904 176.084 22.824C176.292 23.176 176.452 23.688 176.468 24.04C177.332 24.072 178.212 24.104 178.74 24.04C179.268 23.976 179.62 23.832 179.956 23.336C180.564 22.536 180.724 19.848 180.916 11.736V11.08ZM187.684 10.248L187.524 10.296H184.116V24.216H185.172V11.368H187.108C186.788 12.456 186.356 13.88 185.94 15.048C186.996 16.28 187.252 17.368 187.268 18.216C187.268 18.696 187.188 19.144 186.964 19.336C186.836 19.4 186.676 19.448 186.468 19.448C186.26 19.464 185.972 19.448 185.636 19.432C185.812 19.736 185.924 20.168 185.94 20.472C186.276 20.488 186.644 20.488 186.932 20.456C187.236 20.408 187.508 20.328 187.716 20.168C188.132 19.864 188.324 19.192 188.308 18.344C188.308 17.368 188.068 16.216 186.996 14.92C187.492 13.624 188.036 12.008 188.468 10.712L187.684 10.248ZM192.932 14.456C192.036 14.664 191.14 14.872 190.308 15.064V12.712H192.788V11.736H190.308V9.816H189.236V15.304C188.852 15.384 188.516 15.448 188.196 15.512L188.516 16.52C189.796 16.216 191.444 15.784 193.028 15.384L192.932 14.456ZM196.084 20.056H190.612V18.536H196.084V20.056ZM190.612 22.584V20.984H196.084V22.584H190.612ZM192.404 15.912C192.308 16.376 192.1 17 191.908 17.528H189.524V24.184H190.612V23.592H196.084V24.12H197.236V17.528H193.044C193.22 17.112 193.412 16.632 193.588 16.168L192.404 15.912ZM195.076 15.256C194.612 15.256 194.548 15.192 194.548 14.776V13.112C195.652 12.712 196.868 12.168 197.78 11.576L196.948 10.792C196.388 11.256 195.46 11.768 194.548 12.168V9.816H193.476V14.776C193.476 15.96 193.748 16.248 194.948 16.248H196.74C197.7 16.248 198.004 15.832 198.132 14.184C197.812 14.104 197.38 13.928 197.14 13.752C197.108 15.064 197.012 15.256 196.628 15.256H195.076Z" fill="black" fill-opacity="0.5"/>
</svg>
