<svg width="201" height="24" viewBox="0 0 201 24" fill="none" xmlns="http://www.w3.org/2000/svg">
<path d="M12.9672 20.3146L6.68231 23.7532C5.72004 24.2794 5.08704 23.813 5.26446 22.7336L6.47332 15.4034L1.38829 10.2456C0.609453 9.45621 0.872575 8.68029 1.97017 8.51434L8.95268 7.45884L12.1162 0.791001C12.5853 -0.2017 13.3521 -0.19273 13.8182 0.791001L16.9802 7.45884L23.9627 8.51434C25.0633 8.68029 25.3309 9.44724 24.5446 10.2456L19.461 15.4034L20.6684 22.7336C20.8488 23.822 20.1948 24.269 19.252 23.7532L12.9672 20.3146Z" fill="#4E5E77"/>
<path d="M43.7597 20.3146L37.4748 23.7532C36.5125 24.2794 35.8795 23.813 36.0569 22.7336L37.2658 15.4034L32.1808 10.2456C31.4019 9.45621 31.6651 8.68029 32.7627 8.51434L39.7452 7.45884L42.9086 0.791001C43.3778 -0.2017 44.1446 -0.19273 44.6107 0.791001L47.7727 7.45884L54.7552 8.51434C55.8558 8.68029 56.1234 9.44724 55.337 10.2456L50.2535 15.4034L51.4609 22.7336C51.6413 23.822 50.9873 24.269 50.0445 23.7532L43.7597 20.3146Z" fill="#4E5E77"/>
<path d="M74.5521 20.3146L68.2673 23.7532C67.305 24.2794 66.672 23.813 66.8494 22.7336L68.0583 15.4034L62.9733 10.2456C62.1944 9.45621 62.4575 8.68029 63.5551 8.51434L70.5376 7.45884L73.7011 0.791001C74.1702 -0.2017 74.937 -0.19273 75.4032 0.791001L78.5651 7.45884L85.5476 8.51434C86.6482 8.68029 86.9159 9.44724 86.1295 10.2456L81.046 15.4034L82.2533 22.7336C82.4338 23.822 81.7797 24.269 80.837 23.7532L74.5521 20.3146Z" fill="#B3B3B3"/>
<path d="M105.344 20.3146L99.0595 23.7532C98.0972 24.2794 97.4642 23.813 97.6417 22.7336L98.8505 15.4034L93.7655 10.2456C92.9866 9.45621 93.2498 8.68029 94.3474 8.51434L101.33 7.45884L104.493 0.791001C104.962 -0.2017 105.729 -0.19273 106.195 0.791001L109.357 7.45884L116.34 8.51434C117.44 8.68029 117.708 9.44724 116.922 10.2456L111.838 15.4034L113.046 22.7336C113.226 23.822 112.572 24.269 111.629 23.7532L105.344 20.3146Z" fill="black" fill-opacity="0.3"/>
<path d="M136.137 20.3146L129.852 23.7532C128.89 24.2794 128.257 23.813 128.434 22.7336L129.643 15.4034L124.558 10.2456C123.779 9.45621 124.042 8.68029 125.14 8.51434L132.122 7.45884L135.286 0.791001C135.755 -0.2017 136.522 -0.19273 136.988 0.791001L140.15 7.45884L147.132 8.51434C148.233 8.68029 148.501 9.44724 147.714 10.2456L142.631 15.4034L143.838 22.7336C144.018 23.822 143.364 24.269 142.422 23.7532L136.137 20.3146Z" fill="black" fill-opacity="0.3"/>
<path d="M166.642 18.7683C166.45 18.5443 165.938 18.0163 165.426 17.4883C165.858 17.0403 166.37 16.4163 166.866 15.8563L166.082 15.2163C165.794 15.7123 165.298 16.4323 164.882 16.9283C164.658 16.7043 164.45 16.4963 164.29 16.3363C165.122 15.1843 165.842 13.9363 166.354 12.6403L165.682 12.1763L165.474 12.2403H164.114V9.32831H162.946V12.2403H160.642V13.3283H164.882C163.826 15.5203 161.938 17.6963 160.194 18.9443C160.386 19.1363 160.722 19.6803 160.85 19.9683C161.538 19.4403 162.258 18.7683 162.946 18.0003V23.9203H164.114V17.4403C164.754 18.1763 165.57 19.1683 165.922 19.6643L166.642 18.7683ZM174.69 10.7843H166.338V11.9043H169.042C168.962 16.0803 168.706 20.7043 165.17 23.0403C165.49 23.2483 165.874 23.6643 166.082 23.9363C169.746 21.3443 170.13 16.4163 170.258 11.9043H173.49C173.33 19.1203 173.122 21.7763 172.642 22.3363C172.466 22.5603 172.306 22.6243 172.018 22.6083C171.666 22.6083 170.802 22.6083 169.858 22.5283C170.066 22.8803 170.226 23.3923 170.242 23.7443C171.106 23.7763 171.986 23.8083 172.514 23.7443C173.042 23.6803 173.394 23.5363 173.73 23.0403C174.338 22.2403 174.498 19.5523 174.69 11.4403V10.7843ZM181.458 9.95231L181.298 10.0003H177.89V23.9203H178.946V11.0723H180.882C180.562 12.1603 180.13 13.5843 179.714 14.7523C180.77 15.9843 181.026 17.0723 181.042 17.9203C181.042 18.4003 180.962 18.8483 180.738 19.0403C180.61 19.1043 180.45 19.1523 180.242 19.1523C180.034 19.1683 179.746 19.1523 179.41 19.1363C179.586 19.4403 179.698 19.8723 179.714 20.1763C180.05 20.1923 180.418 20.1923 180.706 20.1603C181.01 20.1123 181.282 20.0323 181.49 19.8723C181.906 19.5683 182.098 18.8963 182.082 18.0483C182.082 17.0723 181.842 15.9203 180.77 14.6243C181.266 13.3283 181.81 11.7123 182.242 10.4163L181.458 9.95231ZM186.706 14.1603C185.81 14.3683 184.914 14.5763 184.082 14.7683V12.4163H186.562V11.4403H184.082V9.52031H183.01V15.0083C182.626 15.0883 182.29 15.1523 181.97 15.2163L182.29 16.2243C183.57 15.9203 185.218 15.4883 186.802 15.0883L186.706 14.1603ZM189.858 19.7603H184.386V18.2403H189.858V19.7603ZM184.386 22.2883V20.6883H189.858V22.2883H184.386ZM186.178 15.6163C186.082 16.0803 185.874 16.7043 185.682 17.2323H183.298V23.8883H184.386V23.2963H189.858V23.8243H191.01V17.2323H186.818C186.994 16.8163 187.186 16.3363 187.362 15.8723L186.178 15.6163ZM188.85 14.9603C188.386 14.9603 188.322 14.8963 188.322 14.4803V12.8163C189.426 12.4163 190.642 11.8723 191.554 11.2803L190.722 10.4963C190.162 10.9603 189.234 11.4723 188.322 11.8723V9.52031H187.25V14.4803C187.25 15.6643 187.522 15.9523 188.722 15.9523H190.514C191.474 15.9523 191.778 15.5363 191.906 13.8883C191.586 13.8083 191.154 13.6323 190.914 13.4563C190.882 14.7683 190.786 14.9603 190.402 14.9603H188.85Z" fill="black" fill-opacity="0.5"/>
</svg>
