<svg width="201" height="24" viewBox="0 0 201 24" fill="none" xmlns="http://www.w3.org/2000/svg">
<path d="M12.9672 20.3323L6.68231 23.7824C5.72004 24.3104 5.08704 23.8424 5.26446 22.7594L6.47332 15.4048L1.38829 10.2297C0.609453 9.43773 0.872575 8.65922 1.97017 8.49272L8.95268 7.43371L12.1162 0.743636C12.5853 -0.252374 13.3521 -0.243374 13.8182 0.743636L16.9802 7.43371L23.9627 8.49272C25.0633 8.65922 25.3309 9.42873 24.5446 10.2297L19.461 15.4048L20.6684 22.7594C20.8488 23.8514 20.1948 24.2999 19.252 23.7824L12.9672 20.3323Z" fill="#4E5E77"/>
<path d="M43.7597 20.3323L37.4748 23.7824C36.5125 24.3104 35.8795 23.8424 36.0569 22.7594L37.2658 15.4048L32.1808 10.2297C31.4019 9.43773 31.6651 8.65922 32.7627 8.49272L39.7452 7.43371L42.9086 0.743636C43.3778 -0.252374 44.1446 -0.243374 44.6107 0.743636L47.7727 7.43371L54.7552 8.49272C55.8558 8.65922 56.1234 9.42873 55.337 10.2297L50.2535 15.4048L51.4609 22.7594C51.6413 23.8514 50.9873 24.2999 50.0445 23.7824L43.7597 20.3323Z" fill="#4E5E77"/>
<path d="M74.5521 20.3323L68.2673 23.7824C67.305 24.3104 66.672 23.8424 66.8494 22.7594L68.0583 15.4048L62.9733 10.2297C62.1944 9.43773 62.4575 8.65922 63.5551 8.49272L70.5376 7.43371L73.7011 0.743636C74.1702 -0.252374 74.937 -0.243374 75.4032 0.743636L78.5651 7.43371L85.5476 8.49272C86.6482 8.65922 86.9159 9.42873 86.1295 10.2297L81.046 15.4048L82.2533 22.7594C82.4338 23.8514 81.7797 24.2999 80.837 23.7824L74.5521 20.3323Z" fill="#4E5E77"/>
<path d="M105.344 20.3323L99.0595 23.7824C98.0972 24.3104 97.4642 23.8424 97.6417 22.7594L98.8505 15.4048L93.7655 10.2297C92.9866 9.43773 93.2498 8.65922 94.3474 8.49272L101.33 7.43371L104.493 0.743636C104.962 -0.252374 105.729 -0.243374 106.195 0.743636L109.357 7.43371L116.34 8.49272C117.44 8.65922 117.708 9.42873 116.922 10.2297L111.838 15.4048L113.046 22.7594C113.226 23.8514 112.572 24.2999 111.629 23.7824L105.344 20.3323Z" fill="black" fill-opacity="0.3"/>
<path d="M136.137 20.3323L129.852 23.7824C128.89 24.3104 128.257 23.8424 128.434 22.7594L129.643 15.4048L124.558 10.2297C123.779 9.43773 124.042 8.65922 125.14 8.49272L132.122 7.43371L135.286 0.743636C135.755 -0.252374 136.522 -0.243374 136.988 0.743636L140.15 7.43371L147.132 8.49272C148.233 8.65922 148.501 9.42873 147.714 10.2297L142.631 15.4048L143.838 22.7594C144.018 23.8514 143.364 24.2999 142.422 23.7824L136.137 20.3323Z" fill="black" fill-opacity="0.3"/>
<path d="M166.642 18.744C166.45 18.52 165.938 17.992 165.426 17.464C165.858 17.016 166.37 16.392 166.866 15.832L166.082 15.192C165.794 15.688 165.298 16.408 164.882 16.904C164.658 16.68 164.45 16.472 164.29 16.312C165.122 15.16 165.842 13.912 166.354 12.616L165.682 12.152L165.474 12.216H164.114V9.30399H162.946V12.216H160.642V13.304H164.882C163.826 15.496 161.938 17.672 160.194 18.92C160.386 19.112 160.722 19.656 160.85 19.944C161.538 19.416 162.258 18.744 162.946 17.976V23.896H164.114V17.416C164.754 18.152 165.57 19.144 165.922 19.64L166.642 18.744ZM174.69 10.76H166.338V11.88H169.042C168.962 16.056 168.706 20.68 165.17 23.016C165.49 23.224 165.874 23.64 166.082 23.912C169.746 21.32 170.13 16.392 170.258 11.88H173.49C173.33 19.096 173.122 21.752 172.642 22.312C172.466 22.536 172.306 22.6 172.018 22.584C171.666 22.584 170.802 22.584 169.858 22.504C170.066 22.856 170.226 23.368 170.242 23.72C171.106 23.752 171.986 23.784 172.514 23.72C173.042 23.656 173.394 23.512 173.73 23.016C174.338 22.216 174.498 19.528 174.69 11.416V10.76ZM181.458 9.92799L181.298 9.97599H177.89V23.896H178.946V11.048H180.882C180.562 12.136 180.13 13.56 179.714 14.728C180.77 15.96 181.026 17.048 181.042 17.896C181.042 18.376 180.962 18.824 180.738 19.016C180.61 19.08 180.45 19.128 180.242 19.128C180.034 19.144 179.746 19.128 179.41 19.112C179.586 19.416 179.698 19.848 179.714 20.152C180.05 20.168 180.418 20.168 180.706 20.136C181.01 20.088 181.282 20.008 181.49 19.848C181.906 19.544 182.098 18.872 182.082 18.024C182.082 17.048 181.842 15.896 180.77 14.6C181.266 13.304 181.81 11.688 182.242 10.392L181.458 9.92799ZM186.706 14.136C185.81 14.344 184.914 14.552 184.082 14.744V12.392H186.562V11.416H184.082V9.49599H183.01V14.984C182.626 15.064 182.29 15.128 181.97 15.192L182.29 16.2C183.57 15.896 185.218 15.464 186.802 15.064L186.706 14.136ZM189.858 19.736H184.386V18.216H189.858V19.736ZM184.386 22.264V20.664H189.858V22.264H184.386ZM186.178 15.592C186.082 16.056 185.874 16.68 185.682 17.208H183.298V23.864H184.386V23.272H189.858V23.8H191.01V17.208H186.818C186.994 16.792 187.186 16.312 187.362 15.848L186.178 15.592ZM188.85 14.936C188.386 14.936 188.322 14.872 188.322 14.456V12.792C189.426 12.392 190.642 11.848 191.554 11.256L190.722 10.472C190.162 10.936 189.234 11.448 188.322 11.848V9.49599H187.25V14.456C187.25 15.64 187.522 15.928 188.722 15.928H190.514C191.474 15.928 191.778 15.512 191.906 13.864C191.586 13.784 191.154 13.608 190.914 13.432C190.882 14.744 190.786 14.936 190.402 14.936H188.85Z" fill="black" fill-opacity="0.5"/>
</svg>
