<svg width="249" height="30" viewBox="0 0 249 30" fill="none" xmlns="http://www.w3.org/2000/svg">
<path d="M15.0274 25.4154L7.17461 29.728C5.97228 30.388 5.18137 29.803 5.40305 28.4492L6.91348 19.256L0.559899 12.7872C-0.413241 11.7972 -0.084477 10.824 1.28694 10.6159L10.0114 9.29214L13.964 0.929545C14.5502 -0.315467 15.5083 -0.304217 16.0907 0.929545L20.0415 9.29214L28.7659 10.6159C30.1411 10.824 30.4755 11.7859 29.4929 12.7872L23.1412 19.256L24.6498 28.4492C24.8752 29.8142 24.058 30.3748 22.8801 29.728L15.0274 25.4154Z" fill="#4E5E77"/>
<path d="M53.5015 25.4154L45.6487 29.728C44.4464 30.388 43.6555 29.803 43.8772 28.4492L45.3876 19.256L39.034 12.7872C38.0609 11.7972 38.3896 10.824 39.7611 10.6159L48.4855 9.29214L52.4382 0.929545C53.0243 -0.315467 53.9824 -0.304217 54.5648 0.929545L58.5156 9.29214L67.24 10.6159C68.6152 10.824 68.9496 11.7859 67.9671 12.7872L61.6154 19.256L63.1239 28.4492C63.3493 29.8142 62.5321 30.3748 61.3542 29.728L53.5015 25.4154Z" fill="#4E5E77"/>
<path d="M91.9756 25.4154L84.1229 29.728C82.9205 30.388 82.1296 29.803 82.3513 28.4492L83.8617 19.256L77.5081 12.7872C76.535 11.7972 76.8638 10.824 78.2352 10.6159L86.9596 9.29214L90.9123 0.929545C91.4984 -0.315467 92.4565 -0.304217 93.0389 0.929545L96.9897 9.29214L105.714 10.6159C107.089 10.824 107.424 11.7859 106.441 12.7872L100.089 19.256L101.598 28.4492C101.823 29.8142 101.006 30.3748 99.8283 29.728L91.9756 25.4154Z" fill="#4E5E77"/>
<path d="M130.45 25.4154L122.597 29.728C121.395 30.388 120.604 29.803 120.826 28.4492L122.336 19.256L115.983 12.7872C115.009 11.7972 115.338 10.824 116.71 10.6159L125.434 9.29214L129.387 0.929545C129.973 -0.315467 130.931 -0.304217 131.513 0.929545L135.464 9.29214L144.189 10.6159C145.564 10.824 145.898 11.7859 144.916 12.7872L138.564 19.256L140.072 28.4492C140.298 29.8142 139.481 30.3748 138.303 29.728L130.45 25.4154Z" fill="black" fill-opacity="0.3"/>
<path d="M168.924 25.4154L161.071 29.728C159.869 30.388 159.078 29.803 159.3 28.4492L160.81 19.256L154.457 12.7872C153.483 11.7972 153.812 10.824 155.184 10.6159L163.908 9.29214L167.861 0.929545C168.447 -0.315467 169.405 -0.304217 169.987 0.929545L173.938 9.29214L182.663 10.6159C184.038 10.824 184.372 11.7859 183.39 12.7872L177.038 19.256L178.547 28.4492C178.772 29.8142 177.955 30.3748 176.777 29.728L168.924 25.4154Z" fill="black" fill-opacity="0.3"/>
<path d="M204.928 20.064C204.736 19.84 204.224 19.312 203.712 18.784C204.144 18.336 204.656 17.712 205.152 17.152L204.368 16.512C204.08 17.008 203.584 17.728 203.168 18.224C202.944 18 202.736 17.792 202.576 17.632C203.408 16.48 204.128 15.232 204.64 13.936L203.968 13.472L203.76 13.536H202.4V10.624H201.232V13.536H198.928V14.624H203.168C202.112 16.816 200.224 18.992 198.48 20.24C198.672 20.432 199.008 20.976 199.136 21.264C199.824 20.736 200.544 20.064 201.232 19.296V25.216H202.4V18.736C203.04 19.472 203.856 20.464 204.208 20.96L204.928 20.064ZM212.976 12.08H204.624V13.2H207.328C207.248 17.376 206.992 22 203.456 24.336C203.776 24.544 204.16 24.96 204.368 25.232C208.032 22.64 208.416 17.712 208.544 13.2H211.776C211.616 20.416 211.408 23.072 210.928 23.632C210.752 23.856 210.592 23.92 210.304 23.904C209.952 23.904 209.088 23.904 208.144 23.824C208.352 24.176 208.512 24.688 208.528 25.04C209.392 25.072 210.272 25.104 210.8 25.04C211.328 24.976 211.68 24.832 212.016 24.336C212.624 23.536 212.784 20.848 212.976 12.736V12.08ZM219.744 11.248L219.584 11.296H216.176V25.216H217.232V12.368H219.168C218.848 13.456 218.416 14.88 218 16.048C219.056 17.28 219.312 18.368 219.328 19.216C219.328 19.696 219.248 20.144 219.024 20.336C218.896 20.4 218.736 20.448 218.528 20.448C218.32 20.464 218.032 20.448 217.696 20.432C217.872 20.736 217.984 21.168 218 21.472C218.336 21.488 218.704 21.488 218.992 21.456C219.296 21.408 219.568 21.328 219.776 21.168C220.192 20.864 220.384 20.192 220.368 19.344C220.368 18.368 220.128 17.216 219.056 15.92C219.552 14.624 220.096 13.008 220.528 11.712L219.744 11.248ZM224.992 15.456C224.096 15.664 223.2 15.872 222.368 16.064V13.712H224.848V12.736H222.368V10.816H221.296V16.304C220.912 16.384 220.576 16.448 220.256 16.512L220.576 17.52C221.856 17.216 223.504 16.784 225.088 16.384L224.992 15.456ZM228.144 21.056H222.672V19.536H228.144V21.056ZM222.672 23.584V21.984H228.144V23.584H222.672ZM224.464 16.912C224.368 17.376 224.16 18 223.968 18.528H221.584V25.184H222.672V24.592H228.144V25.12H229.296V18.528H225.104C225.28 18.112 225.472 17.632 225.648 17.168L224.464 16.912ZM227.136 16.256C226.672 16.256 226.608 16.192 226.608 15.776V14.112C227.712 13.712 228.928 13.168 229.84 12.576L229.008 11.792C228.448 12.256 227.52 12.768 226.608 13.168V10.816H225.536V15.776C225.536 16.96 225.808 17.248 227.008 17.248H228.8C229.76 17.248 230.064 16.832 230.192 15.184C229.872 15.104 229.44 14.928 229.2 14.752C229.168 16.064 229.072 16.256 228.688 16.256H227.136Z" fill="black" fill-opacity="0.5"/>
</svg>
