<svg width="175" height="20" viewBox="0 0 175 20" fill="none" xmlns="http://www.w3.org/2000/svg">
<path d="M9.99892 16.9436L4.77385 19.8186C3.97384 20.2586 3.44758 19.8686 3.59509 18.9661L4.6001 12.8373L0.372546 8.52478C-0.274963 7.86477 -0.0562094 7.21602 0.856302 7.07727L6.66138 6.19476L9.29141 0.619697C9.68141 -0.210311 10.3189 -0.202811 10.7064 0.619697L13.3352 6.19476L19.1403 7.07727C20.0553 7.21602 20.2778 7.85727 19.624 8.52478L15.3977 12.8373L16.4015 18.9661C16.5515 19.8761 16.0077 20.2499 15.224 19.8186L9.99892 16.9436Z" fill="#4E5E77"/>
<path d="M35.599 16.9436L30.3739 19.8186C29.5739 20.2586 29.0477 19.8686 29.1952 18.9661L30.2002 12.8373L25.9726 8.52478C25.3251 7.86477 25.5439 7.21602 26.4564 7.07727L32.2615 6.19476L34.8915 0.619697C35.2815 -0.210311 35.919 -0.202811 36.3065 0.619697L38.9353 6.19476L44.7404 7.07727C45.6554 7.21602 45.8779 7.85727 45.2241 8.52478L40.9978 12.8373L42.0016 18.9661C42.1516 19.8761 41.6078 20.2499 40.8241 19.8186L35.599 16.9436Z" fill="#4E5E77"/>
<path d="M61.1989 16.9436L55.9738 19.8186C55.1738 20.2586 54.6475 19.8686 54.795 18.9661L55.8001 12.8373L51.5725 8.52478C50.925 7.86477 51.1437 7.21602 52.0563 7.07727L57.8613 6.19476L60.4914 0.619697C60.8814 -0.210311 61.5189 -0.202811 61.9064 0.619697L64.5352 6.19476L70.3402 7.07727C71.2552 7.21602 71.4777 7.85727 70.824 8.52478L66.5977 12.8373L67.6014 18.9661C67.7514 19.8761 67.2077 20.2499 66.4239 19.8186L61.1989 16.9436Z" fill="#4E5E77"/>
<path d="M86.799 16.9436L81.5739 19.8186C80.7739 20.2586 80.2476 19.8686 80.3951 18.9661L81.4001 12.8373L77.1726 8.52478C76.5251 7.86477 76.7438 7.21602 77.6564 7.07727L83.4614 6.19476L86.0915 0.619697C86.4815 -0.210311 87.119 -0.202811 87.5065 0.619697L90.1353 6.19476L95.9403 7.07727C96.8553 7.21602 97.0778 7.85727 96.4241 8.52478L92.1978 12.8373L93.2015 18.9661C93.3515 19.8761 92.8078 20.2499 92.024 19.8186L86.799 16.9436Z" fill="#B3B3B3"/>
<path d="M112.399 16.9436L107.174 19.8186C106.374 20.2586 105.847 19.8686 105.995 18.9661L107 12.8373L102.772 8.52478C102.125 7.86477 102.344 7.21602 103.256 7.07727L109.061 6.19476L111.691 0.619697C112.081 -0.210311 112.719 -0.202811 113.106 0.619697L115.735 6.19476L121.54 7.07727C122.455 7.21602 122.678 7.85727 122.024 8.52478L117.798 12.8373L118.801 18.9661C118.951 19.8761 118.408 20.2499 117.624 19.8186L112.399 16.9436Z" fill="black" fill-opacity="0.3"/>
<path d="M138.196 13.048C138.052 12.88 137.668 12.484 137.284 12.088C137.608 11.752 137.992 11.284 138.364 10.864L137.776 10.384C137.56 10.756 137.188 11.296 136.876 11.668C136.708 11.5 136.552 11.344 136.432 11.224C137.056 10.36 137.596 9.424 137.98 8.452L137.476 8.104L137.32 8.152H136.3V5.968H135.424V8.152H133.696V8.968H136.876C136.084 10.612 134.668 12.244 133.36 13.18C133.504 13.324 133.756 13.732 133.852 13.948C134.368 13.552 134.908 13.048 135.424 12.472V16.912H136.3V12.052C136.78 12.604 137.392 13.348 137.656 13.72L138.196 13.048ZM144.232 7.06H137.968V7.9H139.996C139.936 11.032 139.744 14.5 137.092 16.252C137.332 16.408 137.62 16.72 137.776 16.924C140.524 14.98 140.812 11.284 140.908 7.9H143.332C143.212 13.312 143.056 15.304 142.696 15.724C142.564 15.892 142.444 15.94 142.228 15.928C141.964 15.928 141.316 15.928 140.608 15.868C140.764 16.132 140.884 16.516 140.896 16.78C141.544 16.804 142.204 16.828 142.6 16.78C142.996 16.732 143.26 16.624 143.512 16.252C143.968 15.652 144.088 13.636 144.232 7.552V7.06ZM149.308 6.436L149.188 6.472H146.632V16.912H147.424V7.276H148.876C148.636 8.092 148.312 9.16 148 10.036C148.792 10.96 148.984 11.776 148.996 12.412C148.996 12.772 148.936 13.108 148.768 13.252C148.672 13.3 148.552 13.336 148.396 13.336C148.24 13.348 148.024 13.336 147.772 13.324C147.904 13.552 147.988 13.876 148 14.104C148.252 14.116 148.528 14.116 148.744 14.092C148.972 14.056 149.176 13.996 149.332 13.876C149.644 13.648 149.788 13.144 149.776 12.508C149.776 11.776 149.596 10.912 148.792 9.94C149.164 8.968 149.572 7.756 149.896 6.784L149.308 6.436ZM153.244 9.592C152.572 9.748 151.9 9.904 151.276 10.048V8.284H153.136V7.552H151.276V6.112H150.472V10.228C150.184 10.288 149.932 10.336 149.692 10.384L149.932 11.14C150.892 10.912 152.128 10.588 153.316 10.288L153.244 9.592ZM155.608 13.792H151.504V12.652H155.608V13.792ZM151.504 15.688V14.488H155.608V15.688H151.504ZM152.848 10.684C152.776 11.032 152.62 11.5 152.476 11.896H150.688V16.888H151.504V16.444H155.608V16.84H156.472V11.896H153.328C153.46 11.584 153.604 11.224 153.736 10.876L152.848 10.684ZM154.852 10.192C154.504 10.192 154.456 10.144 154.456 9.832V8.584C155.284 8.284 156.196 7.876 156.88 7.432L156.256 6.844C155.836 7.192 155.14 7.576 154.456 7.876V6.112H153.652V9.832C153.652 10.72 153.856 10.936 154.756 10.936H156.1C156.82 10.936 157.048 10.624 157.144 9.388C156.904 9.328 156.58 9.196 156.4 9.064C156.376 10.048 156.304 10.192 156.016 10.192H154.852Z" fill="black" fill-opacity="0.5"/>
</svg>
