<svg width="201" height="24" viewBox="0 0 201 24" fill="none" xmlns="http://www.w3.org/2000/svg">
<path d="M12.9672 20.3323L6.68231 23.7824C5.72004 24.3104 5.08704 23.8424 5.26446 22.7594L6.47332 15.4048L1.38829 10.2297C0.609453 9.43773 0.872575 8.65922 1.97017 8.49272L8.95268 7.43371L12.1162 0.743636C12.5853 -0.252374 13.3521 -0.243374 13.8182 0.743636L16.9802 7.43371L23.9627 8.49272C25.0633 8.65922 25.3309 9.42873 24.5446 10.2297L19.461 15.4048L20.6684 22.7594C20.8488 23.8514 20.1948 24.2999 19.252 23.7824L12.9672 20.3323Z" fill="#4E5E77"/>
<path d="M43.7597 20.3323L37.4748 23.7824C36.5125 24.3104 35.8795 23.8424 36.0569 22.7594L37.2658 15.4048L32.1808 10.2297C31.4019 9.43773 31.6651 8.65922 32.7627 8.49272L39.7452 7.43371L42.9086 0.743636C43.3778 -0.252374 44.1446 -0.243374 44.6107 0.743636L47.7727 7.43371L54.7552 8.49272C55.8558 8.65922 56.1234 9.42873 55.337 10.2297L50.2535 15.4048L51.4609 22.7594C51.6413 23.8514 50.9873 24.2999 50.0445 23.7824L43.7597 20.3323Z" fill="#4E5E77"/>
<path d="M74.5521 20.3323L68.2673 23.7824C67.305 24.3104 66.672 23.8424 66.8494 22.7594L68.0583 15.4048L62.9733 10.2297C62.1944 9.43773 62.4575 8.65922 63.5551 8.49272L70.5376 7.43371L73.7011 0.743636C74.1702 -0.252374 74.937 -0.243374 75.4032 0.743636L78.5651 7.43371L85.5476 8.49272C86.6482 8.65922 86.9159 9.42873 86.1295 10.2297L81.046 15.4048L82.2533 22.7594C82.4338 23.8514 81.7797 24.2999 80.837 23.7824L74.5521 20.3323Z" fill="#4E5E77"/>
<path d="M105.344 20.3323L99.0595 23.7824C98.0972 24.3104 97.4642 23.8424 97.6417 22.7594L98.8505 15.4048L93.7655 10.2297C92.9866 9.43773 93.2498 8.65922 94.3474 8.49272L101.33 7.43371L104.493 0.743636C104.962 -0.252374 105.729 -0.243374 106.195 0.743636L109.357 7.43371L116.34 8.49272C117.44 8.65922 117.708 9.42873 116.922 10.2297L111.838 15.4048L113.046 22.7594C113.226 23.8514 112.572 24.2999 111.629 23.7824L105.344 20.3323Z" fill="#4E5E77"/>
<path d="M136.137 20.3323L129.852 23.7824C128.89 24.3104 128.257 23.8424 128.434 22.7594L129.643 15.4048L124.558 10.2297C123.779 9.43773 124.042 8.65922 125.14 8.49272L132.122 7.43371L135.286 0.743636C135.755 -0.252374 136.522 -0.243374 136.988 0.743636L140.15 7.43371L147.132 8.49272C148.233 8.65922 148.501 9.42873 147.714 10.2297L142.631 15.4048L143.838 22.7594C144.018 23.8514 143.364 24.2999 142.422 23.7824L136.137 20.3323Z" fill="black" fill-opacity="0.3"/>
<path d="M169.746 14.472H166.962V12.808H169.746V14.472ZM169.746 17.16H166.962V15.48H169.746V17.16ZM169.746 19.88H166.962V18.152H169.746V19.88ZM165.81 20.92H174.706V19.88H170.882V18.152H174.002V17.16H170.882V15.48H174.034V14.472H170.882V12.808H174.434V11.784H171.042C171.378 11.144 171.714 10.392 172.018 9.71999L170.754 9.44799C170.546 10.136 170.21 11.048 169.858 11.784H167.314C167.73 11.112 168.082 10.392 168.386 9.65599L167.218 9.33599C166.418 11.352 165.042 13.256 163.49 14.456C163.762 14.68 164.21 15.128 164.402 15.368C164.882 14.952 165.362 14.456 165.81 13.928V20.92ZM164.146 12.296C163.65 11.512 162.546 10.424 161.57 9.68799L160.658 10.36C161.634 11.128 162.706 12.232 163.186 13.032L164.146 12.296ZM163.666 15.56H160.514V16.68H162.546V20.776C161.826 21.448 161.01 22.12 160.338 22.616L160.962 23.752C161.746 23.064 162.482 22.392 163.186 21.704C164.178 22.952 165.618 23.512 167.714 23.592C169.506 23.672 172.882 23.64 174.674 23.56C174.722 23.208 174.914 22.664 175.058 22.392C173.138 22.52 169.458 22.568 167.698 22.488C165.826 22.424 164.418 21.88 163.666 20.696V15.56ZM181.458 9.92799L181.298 9.97599H177.89V23.896H178.946V11.048H180.882C180.562 12.136 180.13 13.56 179.714 14.728C180.77 15.96 181.026 17.048 181.042 17.896C181.042 18.376 180.962 18.824 180.738 19.016C180.61 19.08 180.45 19.128 180.242 19.128C180.034 19.144 179.746 19.128 179.41 19.112C179.586 19.416 179.698 19.848 179.714 20.152C180.05 20.168 180.418 20.168 180.706 20.136C181.01 20.088 181.282 20.008 181.49 19.848C181.906 19.544 182.098 18.872 182.082 18.024C182.082 17.048 181.842 15.896 180.77 14.6C181.266 13.304 181.81 11.688 182.242 10.392L181.458 9.92799ZM186.706 14.136C185.81 14.344 184.914 14.552 184.082 14.744V12.392H186.562V11.416H184.082V9.49599H183.01V14.984C182.626 15.064 182.29 15.128 181.97 15.192L182.29 16.2C183.57 15.896 185.218 15.464 186.802 15.064L186.706 14.136ZM189.858 19.736H184.386V18.216H189.858V19.736ZM184.386 22.264V20.664H189.858V22.264H184.386ZM186.178 15.592C186.082 16.056 185.874 16.68 185.682 17.208H183.298V23.864H184.386V23.272H189.858V23.8H191.01V17.208H186.818C186.994 16.792 187.186 16.312 187.362 15.848L186.178 15.592ZM188.85 14.936C188.386 14.936 188.322 14.872 188.322 14.456V12.792C189.426 12.392 190.642 11.848 191.554 11.256L190.722 10.472C190.162 10.936 189.234 11.448 188.322 11.848V9.49599H187.25V14.456C187.25 15.64 187.522 15.928 188.722 15.928H190.514C191.474 15.928 191.778 15.512 191.906 13.864C191.586 13.784 191.154 13.608 190.914 13.432C190.882 14.744 190.786 14.936 190.402 14.936H188.85Z" fill="black" fill-opacity="0.5"/>
</svg>
