<svg width="201" height="24" viewBox="0 0 201 24" fill="none" xmlns="http://www.w3.org/2000/svg">
<path d="M12.9672 20.3323L6.68231 23.7824C5.72004 24.3104 5.08704 23.8424 5.26446 22.7594L6.47332 15.4048L1.38829 10.2297C0.609453 9.43773 0.872575 8.65922 1.97017 8.49272L8.95268 7.43371L12.1162 0.743636C12.5853 -0.252374 13.3521 -0.243374 13.8182 0.743636L16.9802 7.43371L23.9627 8.49272C25.0633 8.65922 25.3309 9.42873 24.5446 10.2297L19.461 15.4048L20.6684 22.7594C20.8488 23.8514 20.1948 24.2999 19.252 23.7824L12.9672 20.3323Z" fill="#4E5E77"/>
<path d="M43.7597 20.3323L37.4748 23.7824C36.5125 24.3104 35.8795 23.8424 36.0569 22.7594L37.2658 15.4048L32.1808 10.2297C31.4019 9.43773 31.6651 8.65922 32.7627 8.49272L39.7452 7.43371L42.9086 0.743636C43.3778 -0.252374 44.1446 -0.243374 44.6107 0.743636L47.7727 7.43371L54.7552 8.49272C55.8558 8.65922 56.1234 9.42873 55.337 10.2297L50.2535 15.4048L51.4609 22.7594C51.6413 23.8514 50.9873 24.2999 50.0445 23.7824L43.7597 20.3323Z" fill="#4E5E77"/>
<path d="M74.5521 20.3323L68.2673 23.7824C67.305 24.3104 66.672 23.8424 66.8494 22.7594L68.0583 15.4048L62.9733 10.2297C62.1944 9.43773 62.4575 8.65922 63.5551 8.49272L70.5376 7.43371L73.7011 0.743636C74.1702 -0.252374 74.937 -0.243374 75.4032 0.743636L78.5651 7.43371L85.5476 8.49272C86.6482 8.65922 86.9159 9.42873 86.1295 10.2297L81.046 15.4048L82.2533 22.7594C82.4338 23.8514 81.7797 24.2999 80.837 23.7824L74.5521 20.3323Z" fill="#4E5E77"/>
<path d="M105.344 20.3323L99.0595 23.7824C98.0972 24.3104 97.4642 23.8424 97.6417 22.7594L98.8505 15.4048L93.7655 10.2297C92.9866 9.43773 93.2498 8.65922 94.3474 8.49272L101.33 7.43371L104.493 0.743636C104.962 -0.252374 105.729 -0.243374 106.195 0.743636L109.357 7.43371L116.34 8.49272C117.44 8.65922 117.708 9.42873 116.922 10.2297L111.838 15.4048L113.046 22.7594C113.226 23.8514 112.572 24.2999 111.629 23.7824L105.344 20.3323Z" fill="#4E5E77"/>
<path d="M136.137 20.3323L129.852 23.7824C128.89 24.3104 128.257 23.8424 128.434 22.7594L129.643 15.4048L124.558 10.2297C123.779 9.43773 124.042 8.65922 125.14 8.49272L132.122 7.43371L135.286 0.743636C135.755 -0.252374 136.522 -0.243374 136.988 0.743636L140.15 7.43371L147.132 8.49272C148.233 8.65922 148.501 9.42873 147.714 10.2297L142.631 15.4048L143.838 22.7594C144.018 23.8514 143.364 24.2999 142.422 23.7824L136.137 20.3323Z" fill="#4E5E77"/>
<path d="M169.746 14.4719H166.962V12.8079H169.746V14.4719ZM169.746 17.1599H166.962V15.4799H169.746V17.1599ZM169.746 19.8799H166.962V18.1519H169.746V19.8799ZM165.81 20.9199H174.706V19.8799H170.882V18.1519H174.002V17.1599H170.882V15.4799H174.034V14.4719H170.882V12.8079H174.434V11.7839H171.042C171.378 11.1439 171.714 10.3919 172.018 9.71993L170.754 9.44793C170.546 10.1359 170.21 11.0479 169.858 11.7839H167.314C167.73 11.1119 168.082 10.3919 168.386 9.65593L167.218 9.33593C166.418 11.3519 165.042 13.2559 163.49 14.4559C163.762 14.6799 164.21 15.1279 164.402 15.3679C164.882 14.9519 165.362 14.4559 165.81 13.9279V20.9199ZM164.146 12.2959C163.65 11.5119 162.546 10.4239 161.57 9.68793L160.658 10.3599C161.634 11.1279 162.706 12.2319 163.186 13.0319L164.146 12.2959ZM163.666 15.5599H160.514V16.6799H162.546V20.7759C161.826 21.4479 161.01 22.1199 160.338 22.6159L160.962 23.7519C161.746 23.0639 162.482 22.3919 163.186 21.7039C164.178 22.9519 165.618 23.5119 167.714 23.5919C169.506 23.6719 172.882 23.6399 174.674 23.5599C174.722 23.2079 174.914 22.6639 175.058 22.3919C173.138 22.5199 169.458 22.5679 167.698 22.4879C165.826 22.4239 164.418 21.8799 163.666 20.6959V15.5599ZM181.458 9.92793L181.298 9.97593H177.89V23.8959H178.946V11.0479H180.882C180.562 12.1359 180.13 13.5599 179.714 14.7279C180.77 15.9599 181.026 17.0479 181.042 17.8959C181.042 18.3759 180.962 18.8239 180.738 19.0159C180.61 19.0799 180.45 19.1279 180.242 19.1279C180.034 19.1439 179.746 19.1279 179.41 19.1119C179.586 19.4159 179.698 19.8479 179.714 20.1519C180.05 20.1679 180.418 20.1679 180.706 20.1359C181.01 20.0879 181.282 20.0079 181.49 19.8479C181.906 19.5439 182.098 18.8719 182.082 18.0239C182.082 17.0479 181.842 15.8959 180.77 14.5999C181.266 13.3039 181.81 11.6879 182.242 10.3919L181.458 9.92793ZM186.706 14.1359C185.81 14.3439 184.914 14.5519 184.082 14.7439V12.3919H186.562V11.4159H184.082V9.49593H183.01V14.9839C182.626 15.0639 182.29 15.1279 181.97 15.1919L182.29 16.1999C183.57 15.8959 185.218 15.4639 186.802 15.0639L186.706 14.1359ZM189.858 19.7359H184.386V18.2159H189.858V19.7359ZM184.386 22.2639V20.6639H189.858V22.2639H184.386ZM186.178 15.5919C186.082 16.0559 185.874 16.6799 185.682 17.2079H183.298V23.8639H184.386V23.2719H189.858V23.7999H191.01V17.2079H186.818C186.994 16.7919 187.186 16.3119 187.362 15.8479L186.178 15.5919ZM188.85 14.9359C188.386 14.9359 188.322 14.8719 188.322 14.4559V12.7919C189.426 12.3919 190.642 11.8479 191.554 11.2559L190.722 10.4719C190.162 10.9359 189.234 11.4479 188.322 11.8479V9.49593H187.25V14.4559C187.25 15.6399 187.522 15.9279 188.722 15.9279H190.514C191.474 15.9279 191.778 15.5119 191.906 13.8639C191.586 13.7839 191.154 13.6079 190.914 13.4319C190.882 14.7439 190.786 14.9359 190.402 14.9359H188.85Z" fill="black" fill-opacity="0.5"/>
</svg>
