<svg width="28" height="28" viewBox="0 0 28 28" fill="none" xmlns="http://www.w3.org/2000/svg">
<g filter="url(#filter0_d)">
<path d="M11.0491 20C11.9504 20 12.681 19.2382 12.681 18.2984C12.681 17.3586 11.9504 16.5968 11.0491 16.5968C10.1479 16.5968 9.41724 17.3586 9.41724 18.2984C9.41724 19.2382 10.1479 20 11.0491 20Z" fill="white"/>
<path d="M19.535 20C20.4362 20 21.1668 19.2382 21.1668 18.2984C21.1668 17.3586 20.4362 16.5968 19.535 16.5968C18.6337 16.5968 17.9031 17.3586 17.9031 18.2984C17.9031 19.2382 18.6337 20 19.535 20Z" fill="white"/>
<path d="M23.8432 2.56892C23.7824 2.48656 23.7043 2.41981 23.6149 2.37379C23.5255 2.32778 23.4272 2.30373 23.3275 2.30348H8.24897L7.95523 1.33017C7.92296 1.22566 7.86693 1.13085 7.79191 1.05381C7.71689 0.976772 7.62512 0.9198 7.52441 0.887755L4.84812 0.0301545C4.76583 0.00378672 4.67937 -0.00542204 4.59366 0.00305422C4.50796 0.0115305 4.42469 0.0375257 4.34862 0.0795555C4.19499 0.164439 4.07999 0.309482 4.02892 0.482777C3.97785 0.656072 3.99489 0.843423 4.0763 1.00362C4.1577 1.16381 4.2968 1.28372 4.463 1.33697L6.80638 2.08567L9.79599 11.9345L8.732 12.8465L8.64714 12.935C8.38402 13.2527 8.23494 13.6559 8.22542 14.0755C8.21589 14.4952 8.34651 14.9052 8.59492 15.2355C8.77284 15.4611 8.99892 15.6402 9.25508 15.7584C9.51124 15.8766 9.79037 15.9306 10.0701 15.9162H20.9646C21.1377 15.9162 21.3037 15.8445 21.4261 15.7168C21.5486 15.5892 21.6173 15.4161 21.6173 15.2355C21.6173 15.055 21.5486 14.8819 21.4261 14.7543C21.3037 14.6266 21.1377 14.5549 20.9646 14.5549H9.9657C9.89054 14.5522 9.8173 14.5294 9.75308 14.4886C9.68885 14.4478 9.6358 14.3904 9.59905 14.322C9.5623 14.2535 9.5431 14.1764 9.54329 14.098C9.54349 14.0195 9.56307 13.9425 9.60016 13.8743L11.1733 12.513H21.2453C21.3944 12.5175 21.5405 12.4687 21.6592 12.3746C21.778 12.2804 21.8623 12.1467 21.898 11.9957L23.9868 3.14746C24.0067 3.04599 24.0041 2.94114 23.9792 2.84088C23.9543 2.74062 23.9078 2.64761 23.8432 2.56892V2.56892Z" fill="white"/>
</g>
<defs>
<filter id="filter0_d" x="0" y="0" width="28" height="28" filterUnits="userSpaceOnUse" color-interpolation-filters="sRGB">
<feFlood flood-opacity="0" result="BackgroundImageFix"/>
<feColorMatrix in="SourceAlpha" type="matrix" values="0 0 0 0 0 0 0 0 0 0 0 0 0 0 0 0 0 0 127 0" result="hardAlpha"/>
<feOffset dy="4"/>
<feGaussianBlur stdDeviation="2"/>
<feComposite in2="hardAlpha" operator="out"/>
<feColorMatrix type="matrix" values="0 0 0 0 0 0 0 0 0 0 0 0 0 0 0 0 0 0 0.25 0"/>
<feBlend mode="normal" in2="BackgroundImageFix" result="effect1_dropShadow"/>
<feBlend mode="normal" in="SourceGraphic" in2="effect1_dropShadow" result="shape"/>
</filter>
</defs>
</svg>
