<svg width="22" height="16" viewBox="0 0 22 16" fill="none" xmlns="http://www.w3.org/2000/svg">
<mask id="path-1-inside-1" fill="white">
<path d="M20.6571 0H1.34288C0.986869 0.000498052 0.645573 0.151975 0.393835 0.421213C0.142097 0.690452 0.000465679 1.05547 0 1.43624V14.5638C0.000465679 14.9445 0.142097 15.3095 0.393835 15.5788C0.645573 15.848 0.986869 15.9995 1.34288 16H20.6571C21.0131 15.9995 21.3544 15.848 21.6062 15.5788C21.8579 15.3095 21.9995 14.9445 22 14.5638V1.43624C21.9995 1.05547 21.8579 0.690452 21.6062 0.421213C21.3544 0.151975 21.0131 0.000498052 20.6571 0V0ZM11 9.27059L1.65528 0.941176H20.3447L11 9.27059ZM7.94112 7.76471L0.88 14.4809V1.47482L7.94112 7.76471ZM8.62488 8.37459L10.7184 10.24C10.7975 10.3104 10.8971 10.349 11 10.349C11.1029 10.349 11.2025 10.3104 11.2816 10.24L13.376 8.37647L20.4037 15.0588H1.5972L8.62488 8.37459ZM14.0589 7.76471L21.12 1.47482V14.4809L14.0589 7.76471Z"/>
</mask>
<path d="M20.6571 0H1.34288C0.986869 0.000498052 0.645573 0.151975 0.393835 0.421213C0.142097 0.690452 0.000465679 1.05547 0 1.43624V14.5638C0.000465679 14.9445 0.142097 15.3095 0.393835 15.5788C0.645573 15.848 0.986869 15.9995 1.34288 16H20.6571C21.0131 15.9995 21.3544 15.848 21.6062 15.5788C21.8579 15.3095 21.9995 14.9445 22 14.5638V1.43624C21.9995 1.05547 21.8579 0.690452 21.6062 0.421213C21.3544 0.151975 21.0131 0.000498052 20.6571 0V0ZM11 9.27059L1.65528 0.941176H20.3447L11 9.27059ZM7.94112 7.76471L0.88 14.4809V1.47482L7.94112 7.76471ZM8.62488 8.37459L10.7184 10.24C10.7975 10.3104 10.8971 10.349 11 10.349C11.1029 10.349 11.2025 10.3104 11.2816 10.24L13.376 8.37647L20.4037 15.0588H1.5972L8.62488 8.37459ZM14.0589 7.76471L21.12 1.47482V14.4809L14.0589 7.76471Z" fill="white"/>
<path d="M1.34288 0L1.34288 -10L1.32889 -9.99999L1.34288 0ZM0 1.43624L-10 1.42401V1.43624H0ZM0 14.5638L-10 14.5638L-9.99999 14.576L0 14.5638ZM1.34288 16L1.32889 26H1.34288V16ZM20.6571 16L20.6571 26L20.6711 26L20.6571 16ZM22 14.5638L32 14.576V14.5638H22ZM22 1.43624L32 1.43624L32 1.42401L22 1.43624ZM11 9.27059L4.34611 16.7356L11 22.6665L17.6539 16.7356L11 9.27059ZM1.65528 0.941176V-9.05882H-24.5925L-4.99861 8.40614L1.65528 0.941176ZM20.3447 0.941176L26.9986 8.40614L46.5925 -9.05882H20.3447V0.941176ZM7.94112 7.76471L14.833 15.0105L22.7045 7.52349L14.5926 0.297617L7.94112 7.76471ZM0.88 14.4809H-9.12V37.7936L7.7719 21.7267L0.88 14.4809ZM0.88 1.47482L7.53151 -5.99227L-9.12 -20.825L-9.12 1.47482H0.88ZM8.62488 8.37459L15.2775 0.908476L8.40392 -5.21615L1.73308 1.12868L8.62488 8.37459ZM10.7184 10.24L4.06579 17.7061L4.06667 17.7069L10.7184 10.24ZM11.2816 10.24L4.6343 2.76916L4.62987 2.77311L11.2816 10.24ZM13.376 8.37647L20.2668 1.1296L13.6007 -5.20888L6.7287 0.905636L13.376 8.37647ZM20.4037 15.0588V25.0588H45.4326L27.2945 7.81195L20.4037 15.0588ZM1.5972 15.0588L-5.2946 7.81292L-23.4266 25.0588H1.5972V15.0588ZM14.0589 7.76471L7.40737 0.297617L-0.704508 7.52349L7.16698 15.0105L14.0589 7.76471ZM21.12 1.47482H31.12V-20.825L14.4685 -5.99227L21.12 1.47482ZM21.12 14.4809L14.2281 21.7267L31.12 37.7936V14.4809H21.12ZM20.6571 -10H1.34288V10H20.6571V-10ZM1.32889 -9.99999C-1.89932 -9.99547 -4.84657 -8.61604 -6.91064 -6.40847L7.69831 7.2509C6.13772 8.91999 3.87306 9.99647 1.35687 9.99999L1.32889 -9.99999ZM-6.91064 -6.40847C-8.9536 -4.22349 -9.99654 -1.39611 -9.99999 1.42401L9.99999 1.44847C9.99747 3.50706 9.23779 5.60439 7.69831 7.2509L-6.91064 -6.40847ZM-10 1.43624V14.5638H10V1.43624H-10ZM-9.99999 14.576C-9.99654 17.3961 -8.95359 20.2235 -6.91064 22.4085L7.69831 8.7491C9.23779 10.3956 9.99747 12.4929 9.99999 14.5515L-9.99999 14.576ZM-6.91064 22.4085C-4.84658 24.616 -1.89934 25.9955 1.32889 26L1.35687 6.00001C3.87308 6.00353 6.13773 7.08003 7.69831 8.7491L-6.91064 22.4085ZM1.34288 26H20.6571V6H1.34288V26ZM20.6711 26C23.8994 25.9955 26.8466 24.616 28.9106 22.4085L14.3017 8.7491C15.8623 7.08003 18.1269 6.00353 20.6431 6.00001L20.6711 26ZM28.9106 22.4085C30.9536 20.2235 31.9965 17.3961 32 14.576L12 14.5515C12.0025 12.4929 12.7622 10.3956 14.3017 8.7491L28.9106 22.4085ZM32 14.5638V1.43624H12V14.5638H32ZM32 1.42401C31.9965 -1.39613 30.9536 -4.2235 28.9106 -6.40847L14.3017 7.2509C12.7622 5.6044 12.0025 3.50708 12 1.44847L32 1.42401ZM28.9106 -6.40847C26.8466 -8.61603 23.8993 -9.99547 20.6711 -9.99999L20.6431 9.99999C18.1269 9.99647 15.8623 8.91998 14.3017 7.2509L28.9106 -6.40847ZM17.6539 1.80562L8.30917 -6.52379L-4.99861 8.40614L4.34611 16.7356L17.6539 1.80562ZM1.65528 10.9412H20.3447V-9.05882H1.65528V10.9412ZM13.6908 -6.52379L4.34611 1.80562L17.6539 16.7356L26.9986 8.40614L13.6908 -6.52379ZM1.04922 0.5189L-6.0119 7.23513L7.7719 21.7267L14.833 15.0105L1.04922 0.5189ZM10.88 14.4809V1.47482H-9.12V14.4809H10.88ZM-5.77151 8.94191L1.28961 15.2318L14.5926 0.297617L7.53151 -5.99227L-5.77151 8.94191ZM1.97227 15.8407L4.06579 17.7061L17.371 2.77389L15.2775 0.908476L1.97227 15.8407ZM4.06667 17.7069C5.9187 19.3567 8.36691 20.349 11 20.349V0.349001C13.4273 0.349001 15.6762 1.26413 17.3701 2.77311L4.06667 17.7069ZM11 20.349C13.6331 20.349 16.0813 19.3567 17.9333 17.7069L4.62987 2.77311C6.32377 1.26413 8.5727 0.349001 11 0.349001V20.349ZM17.9289 17.7108L20.0233 15.8473L6.7287 0.905636L4.6343 2.76916L17.9289 17.7108ZM6.48522 15.6233L13.5129 22.3057L27.2945 7.81195L20.2668 1.1296L6.48522 15.6233ZM20.4037 5.05882H1.5972V25.0588H20.4037V5.05882ZM8.489 22.3047L15.5167 15.6205L1.73308 1.12868L-5.2946 7.81292L8.489 22.3047ZM20.7104 15.2318L27.7715 8.94191L14.4685 -5.99227L7.40737 0.297617L20.7104 15.2318ZM11.12 1.47482V14.4809H31.12V1.47482H11.12ZM28.0119 7.23513L20.9508 0.5189L7.16698 15.0105L14.2281 21.7267L28.0119 7.23513Z" fill="white" mask="url(#path-1-inside-1)"/>
</svg>
