<svg width="152" height="32" viewBox="0 0 152 32" fill="none" xmlns="http://www.w3.org/2000/svg">
<ellipse cx="13.099" cy="11.1341" rx="7.20444" ry="7.20444" fill="#FDECAE"/>
<path fill-rule="evenodd" clip-rule="evenodd" d="M12.9831 1.16521C17.9676 -0.457672 16.8084 -0.921353 19.4746 3.3677C24.3433 5.22242 23.7637 4.06322 22.9522 9.04779C25.5025 13.5687 25.7343 12.2936 21.9089 15.5393C21.4452 17.2781 21.3293 18.3214 21.0975 19.0169L26.198 28.1746L21.0975 27.0154L19.3587 32L14.0814 21.9408C13.099 22.5958 12.9831 22.3786 12.2875 21.9149L6.83929 32L5.10049 27.0154L0 28.1746L5.10049 18.901C4.86865 18.3214 4.75273 17.394 4.40497 15.7712C0.579601 12.4095 0.695521 13.6846 3.12985 9.27963C2.43433 4.17914 1.7388 5.22242 6.60745 3.48362C9.38954 -0.805433 8.11442 -0.457672 12.9831 1.16521ZM13.099 2.44033C17.8517 2.44033 21.793 6.38162 21.793 11.1344C21.793 15.8871 17.8517 19.8284 13.099 19.8284C8.34626 19.8284 4.40497 15.8871 4.40497 11.1344C4.40497 6.38162 8.34626 2.44033 13.099 2.44033Z" fill="#FDECAE"/>
<ellipse cx="44.5365" cy="11.1341" rx="7.20444" ry="7.20444" fill="#FDECAE"/>
<path fill-rule="evenodd" clip-rule="evenodd" d="M44.4206 1.16521C49.4051 -0.457672 48.2459 -0.921353 50.9121 3.3677C55.7808 5.22242 55.2012 4.06322 54.3897 9.04779C56.94 13.5687 57.1718 12.2936 53.3464 15.5393C52.8827 17.2781 52.7668 18.3214 52.535 19.0169L57.6355 28.1746L52.535 27.0154L50.7962 32L45.5189 21.9408C44.5365 22.5958 44.4206 22.3786 43.725 21.9149L38.2768 32L36.538 27.0154L31.4375 28.1746L36.538 18.901C36.3062 18.3214 36.1902 17.394 35.8425 15.7712C32.0171 12.4095 32.133 13.6846 34.5673 9.27963C33.8718 4.17914 33.1763 5.22242 38.045 3.48362C40.827 -0.805433 39.5519 -0.457672 44.4206 1.16521ZM44.5365 2.44033C49.2892 2.44033 53.2305 6.38162 53.2305 11.1344C53.2305 15.8871 49.2892 19.8284 44.5365 19.8284C39.7838 19.8284 35.8425 15.8871 35.8425 11.1344C35.8425 6.38162 39.7838 2.44033 44.5365 2.44033Z" fill="#FDECAE"/>
<ellipse cx="75.9742" cy="11.1341" rx="7.20444" ry="7.20444" fill="#FDECAE"/>
<path fill-rule="evenodd" clip-rule="evenodd" d="M75.8583 1.16521C80.8429 -0.457672 79.6837 -0.921353 82.3498 3.3677C87.2185 5.22242 86.6389 4.06322 85.8275 9.04779C88.3777 13.5687 88.6095 12.2936 84.7842 15.5393C84.3205 17.2781 84.2046 18.3214 83.9727 19.0169L89.0732 28.1746L83.9727 27.0154L82.2339 32L76.9567 21.9408C75.9742 22.5958 75.8583 22.3786 75.1628 21.9149L69.7145 32L67.9757 27.0154L62.8752 28.1746L67.9757 18.901C67.7439 18.3214 67.628 17.394 67.2802 15.7712C63.4548 12.4095 63.5708 13.6846 66.0051 9.27963C65.3096 4.17914 64.614 5.22242 69.4827 3.48362C72.2648 -0.805433 70.9897 -0.457672 75.8583 1.16521ZM75.9742 2.44033C80.727 2.44033 84.6683 6.38162 84.6683 11.1344C84.6683 15.8871 80.727 19.8284 75.9742 19.8284C71.2215 19.8284 67.2802 15.8871 67.2802 11.1344C67.2802 6.38162 71.2215 2.44033 75.9742 2.44033Z" fill="#FDECAE"/>
<ellipse cx="107.412" cy="11.1341" rx="7.20444" ry="7.20444" fill="#FDECAE"/>
<path fill-rule="evenodd" clip-rule="evenodd" d="M107.296 1.16521C112.28 -0.457672 111.121 -0.921353 113.787 3.3677C118.656 5.22242 118.076 4.06322 117.265 9.04779C119.815 13.5687 120.047 12.2936 116.222 15.5393C115.758 17.2781 115.642 18.3214 115.41 19.0169L120.511 28.1746L115.41 27.0154L113.671 32L108.394 21.9408C107.412 22.5958 107.296 22.3786 106.6 21.9149L101.152 32L99.4132 27.0154L94.3127 28.1746L99.4132 18.901C99.1814 18.3214 99.0655 17.394 98.7177 15.7712C94.8923 12.4095 95.0083 13.6846 97.4426 9.27963C96.7471 4.17914 96.0515 5.22242 100.92 3.48362C103.702 -0.805433 102.427 -0.457672 107.296 1.16521ZM107.412 2.44033C112.164 2.44033 116.106 6.38162 116.106 11.1344C116.106 15.8871 112.164 19.8284 107.412 19.8284C102.659 19.8284 98.7177 15.8871 98.7177 11.1344C98.7177 6.38162 102.659 2.44033 107.412 2.44033Z" fill="#FDECAE"/>
<ellipse cx="138.849" cy="11.1341" rx="7.20444" ry="7.20444" fill="#FDECAE"/>
<path fill-rule="evenodd" clip-rule="evenodd" d="M138.733 1.16521C143.718 -0.457672 142.559 -0.921353 145.225 3.3677C150.093 5.22242 149.514 4.06322 148.702 9.04779C151.253 13.5687 151.485 12.2936 147.659 15.5393C147.195 17.2781 147.08 18.3214 146.848 19.0169L151.948 28.1746L146.848 27.0154L145.109 32L139.832 21.9408C138.849 22.5958 138.733 22.3786 138.038 21.9149L132.59 32L130.851 27.0154L125.75 28.1746L130.851 18.901C130.619 18.3214 130.503 17.394 130.155 15.7712C126.33 12.4095 126.446 13.6846 128.88 9.27963C128.185 4.17914 127.489 5.22242 132.358 3.48362C135.14 -0.805433 133.865 -0.457672 138.733 1.16521ZM138.849 2.44033C143.602 2.44033 147.543 6.38162 147.543 11.1344C147.543 15.8871 143.602 19.8284 138.849 19.8284C134.097 19.8284 130.155 15.8871 130.155 11.1344C130.155 6.38162 134.097 2.44033 138.849 2.44033Z" fill="#FDECAE"/>
</svg>
