<svg width="1440" height="936" viewBox="0 0 1440 936" fill="none" xmlns="http://www.w3.org/2000/svg">
<g filter="url(#filter0_d)">
<path d="M260 222.5C258.619 222.5 257.5 223.619 257.5 225C257.5 226.381 258.619 227.5 260 227.5V222.5ZM904.5 225L906.723 223.856C906.295 223.024 905.437 222.5 904.5 222.5V225ZM964.777 347.644C965.408 348.871 966.916 349.355 968.144 348.723C969.371 348.092 969.855 346.584 969.223 345.356L964.777 347.644ZM260 339.5C258.619 339.5 257.5 340.619 257.5 342C257.5 343.381 258.619 344.5 260 344.5V339.5ZM904.5 342L906.751 340.913C906.334 340.049 905.46 339.5 904.5 339.5V342ZM964.749 472.587C965.349 473.83 966.843 474.352 968.087 473.751C969.33 473.151 969.852 471.657 969.251 470.413L964.749 472.587ZM260 462.5C258.619 462.5 257.5 463.619 257.5 465C257.5 466.381 258.619 467.5 260 467.5V462.5ZM323 465L325.208 463.828C324.775 463.011 323.925 462.5 323 462.5V465ZM452.5 709L450.292 710.172C450.298 710.183 450.304 710.195 450.31 710.206L452.5 709ZM474.81 754.706C475.476 755.915 476.996 756.356 478.206 755.69C479.415 755.024 479.856 753.504 479.19 752.294L474.81 754.706ZM646.5 709L644.312 707.791C644.308 707.799 644.304 707.806 644.3 707.813L646.5 709ZM712.5 589.5V587C711.59 587 710.752 587.495 710.312 588.291L712.5 589.5ZM842 589.5V592C842.945 592 843.81 591.467 844.234 590.622L842 589.5ZM967.428 219.597C967.757 218.256 966.938 216.902 965.597 216.572C964.256 216.243 962.902 217.062 962.572 218.403L967.428 219.597ZM620.3 752.313C619.644 753.529 620.098 755.045 621.313 755.7C622.529 756.356 624.045 755.902 624.7 754.687L620.3 752.313ZM517.5 589.5L519.711 588.334C519.279 587.514 518.428 587 517.5 587V589.5ZM580.5 709L578.289 710.166C578.719 710.982 579.564 711.495 580.487 711.5C581.409 711.505 582.26 711.001 582.699 710.19L580.5 709ZM712.5 465V462.5C711.582 462.5 710.738 463.003 710.301 463.81L712.5 465ZM904.5 589.5L902.266 590.622C902.69 591.467 903.555 592 904.5 592V589.5ZM969.5 592C970.881 592 972 590.881 972 589.5C972 588.119 970.881 587 969.5 587V592ZM842 465L844.234 463.878C843.81 463.033 842.945 462.5 842 462.5V465ZM904.5 465L906.734 466.122C906.818 465.955 906.883 465.779 906.928 465.597L904.5 465ZM971.551 710.429C972.341 709.296 972.062 707.738 970.929 706.949C969.796 706.159 968.238 706.438 967.449 707.571L971.551 710.429ZM936.449 752.071C935.659 753.204 935.938 754.762 937.071 755.551C938.204 756.341 939.762 756.062 940.551 754.929L936.449 752.071ZM452.5 589.5V587C451.59 587 450.752 587.495 450.312 588.291L452.5 589.5ZM386.5 709L384.292 710.173C384.723 710.983 385.562 711.493 386.48 711.5C387.397 711.507 388.245 711.012 388.688 710.209L386.5 709ZM323 589.5L325.208 588.327C324.774 587.51 323.925 587 323 587V589.5ZM260 587C258.619 587 257.5 588.119 257.5 589.5C257.5 590.881 258.619 592 260 592V587ZM260 227.5H904.5V222.5H260V227.5ZM902.277 226.144L964.777 347.644L969.223 345.356L906.723 223.856L902.277 226.144ZM260 344.5H904.5V339.5H260V344.5ZM902.249 343.087L964.749 472.587L969.251 470.413L906.751 340.913L902.249 343.087ZM260 467.5H323V462.5H260V467.5ZM320.792 466.172L450.292 710.172L454.708 707.828L325.208 463.828L320.792 466.172ZM450.31 710.206L474.81 754.706L479.19 752.294L454.69 707.794L450.31 710.206ZM648.688 710.209L714.688 590.709L710.312 588.291L644.312 707.791L648.688 710.209ZM712.5 592H842V587H712.5V592ZM644.3 707.813L620.3 752.313L624.7 754.687L648.7 710.187L644.3 707.813ZM515.289 590.666L578.289 710.166L582.711 707.834L519.711 588.334L515.289 590.666ZM582.699 710.19L714.699 466.19L710.301 463.81L578.301 707.81L582.699 710.19ZM904.5 592H969.5V587H904.5V592ZM712.5 467.5H842V462.5H712.5V467.5ZM839.766 466.122L902.266 590.622L906.734 588.378L844.234 463.878L839.766 466.122ZM844.234 590.622L906.734 466.122L902.266 463.878L839.766 588.378L844.234 590.622ZM906.928 465.597L967.428 219.597L962.572 218.403L902.072 464.403L906.928 465.597ZM967.449 707.571L936.449 752.071L940.551 754.929L971.551 710.429L967.449 707.571ZM517.5 587H452.5V592H517.5V587ZM450.312 588.291L384.312 707.791L388.688 710.209L454.688 590.709L450.312 588.291ZM388.708 707.827L325.208 588.327L320.792 590.673L384.292 710.173L388.708 707.827ZM323 587H260V592H323V587Z" fill="url(#paint0_linear)"/>
</g>
<defs>
<filter id="filter0_d" x="253.5" y="216.5" width="722.5" height="547.501" filterUnits="userSpaceOnUse" color-interpolation-filters="sRGB">
<feFlood flood-opacity="0" result="BackgroundImageFix"/>
<feColorMatrix in="SourceAlpha" type="matrix" values="0 0 0 0 0 0 0 0 0 0 0 0 0 0 0 0 0 0 127 0" result="hardAlpha"/>
<feOffset dy="4"/>
<feGaussianBlur stdDeviation="2"/>
<feComposite in2="hardAlpha" operator="out"/>
<feColorMatrix type="matrix" values="0 0 0 0 0 0 0 0 0 0 0 0 0 0 0 0 0 0 0.25 0"/>
<feBlend mode="normal" in2="BackgroundImageFix" result="effect1_dropShadow"/>
<feBlend mode="normal" in="SourceGraphic" in2="effect1_dropShadow" result="shape"/>
</filter>
<linearGradient id="paint0_linear" x1="259.5" y1="466" x2="902" y2="466" gradientUnits="userSpaceOnUse">
<stop stop-color="white" stop-opacity="0.2"/>
<stop offset="1" stop-color="#FDECAE"/>
</linearGradient>
</defs>
</svg>
