<svg width="20" height="27" viewBox="0 0 20 27" fill="none" xmlns="http://www.w3.org/2000/svg">
<path d="M9.42684 25.9825C9.45765 26.0409 9.48847 26.0702 9.51929 26.0994C9.64256 26.2456 9.79665 26.304 9.98155 26.304C10.1665 26.304 10.3514 26.2748 10.5054 26.0994C10.5363 26.0702 10.5979 26.0117 10.5979 25.9533C12.6627 23.03 14.6966 20.1068 16.6997 17.1544C17.9633 15.2836 19.4425 13.4419 19.8431 11.2203C20.3362 8.56019 19.6582 5.81238 17.9324 3.67844C14.5117 -0.589439 7.85515 -1.23254 3.54071 2.21684C1.47594 3.85383 0.21243 6.25086 0.0275257 8.79404C-0.188196 11.4834 0.890413 13.5296 2.33883 15.722C4.61932 19.1714 7.02308 22.5916 9.42684 25.9825ZM2.49292 5.16927C5.45139 0.492147 12.5086 -0.18019 16.4224 3.79537C18.3639 5.78315 19.1651 8.61865 18.5796 11.2495C18.1482 13.2081 16.6997 14.962 15.5595 16.6282C13.7413 19.3468 11.8922 22.0069 10.0124 24.667C8.40986 22.4454 6.83817 20.1945 5.2973 17.9437C4.24951 16.4236 3.1709 14.8743 2.24638 13.2958C0.767144 10.8111 0.952048 7.59553 2.49292 5.16927Z" fill="white"/>
<path d="M10.0123 13.7927C12.3544 13.7927 14.2651 11.9804 14.2651 9.75877C14.2651 7.53719 12.3544 5.72485 10.0123 5.72485C7.6702 5.72485 5.75952 7.53719 5.75952 9.75877C5.75952 12.0096 7.6702 13.7927 10.0123 13.7927ZM10.0123 6.95257C11.6456 6.95257 13.0016 8.20951 13.0016 9.788C13.0016 11.3373 11.6765 12.6234 10.0123 12.6234C8.379 12.6234 7.02304 11.3665 7.02304 9.788C7.02304 8.20951 8.34818 6.95257 10.0123 6.95257Z" fill="white"/>
</svg>
