<svg width="134" height="30" viewBox="0 0 134 30" fill="none" xmlns="http://www.w3.org/2000/svg">
<g clip-path="url(#clip0)">
<path d="M1.51587 17.5886C2.26394 17.5886 3.02187 17.6562 3.80931 17.7431C4.72257 17.808 5.61467 18.0441 6.43738 18.4386C6.92072 18.7157 7.33182 19.0992 7.63822 19.559C7.86446 19.9067 8.06196 20.2717 8.22881 20.6504C8.54379 21.3169 8.83908 21.9447 9.21311 22.5822C9.58714 23.2196 9.86275 23.8571 10.1974 24.4656C10.4975 25.0411 10.857 25.5848 11.2703 26.0883C11.4265 26.2578 11.6275 26.3815 11.851 26.4457C12.1727 26.5406 12.5019 26.6085 12.8353 26.6485C13.5365 26.7501 14.2431 26.8113 14.9516 26.832C15.1164 26.8516 15.2682 26.9297 15.3783 27.0516C15.4884 27.1735 15.5492 27.3307 15.5492 27.4936C15.5492 27.6565 15.4884 27.8137 15.3783 27.9356C15.2682 28.0575 15.1164 28.1357 14.9516 28.1552C14.1909 28.1939 13.4287 28.1939 12.668 28.1552C12.2567 28.1332 11.8482 28.075 11.4475 27.9814C10.9537 27.8745 10.4962 27.6451 10.1187 27.3149C9.54153 26.7533 9.03283 26.1277 8.60285 25.4508C8.1796 24.8326 7.78587 24.2145 7.39215 23.5867C6.99843 22.9589 6.63425 22.3214 6.27006 21.6549C6.12037 21.3867 5.95266 21.1286 5.76806 20.8822C5.65568 20.7459 5.51013 20.6396 5.34482 20.5731C4.81423 20.4051 4.25837 20.3267 3.70102 20.3413C3.0317 20.3413 2.31315 20.3413 1.60446 20.3413C1.40756 20.3637 1.20809 20.3461 1.01841 20.2896C0.828729 20.2332 0.652893 20.1391 0.501806 20.0132C0.350718 19.8873 0.227623 19.7323 0.140112 19.5577C0.0526023 19.3832 0.00256427 19.1929 -0.00689574 18.9987C-0.0163558 18.8044 0.0149574 18.6103 0.0851121 18.4284C0.155267 18.2465 0.262769 18.0806 0.400936 17.9412C0.539104 17.8017 0.633583 17.6625 0.816912 17.5886C1.06323 17.4892 1.00008 17.6667 1.24845 17.5886L1.51587 17.5886Z" fill="#FEECAE"/>
<path d="M96.8257 14.2756C95.5362 14.2756 92.6424 13.7154 92.0518 14.1597C91.7447 14.4152 91.5164 14.7497 91.3923 15.1256C91.3136 15.3381 91.4612 15.5795 91.6581 15.5312C93.9318 15.029 104.454 17.7817 103.775 14.2273C102.131 13.6285 101.521 14.0148 99.9754 14.1114L96.8257 14.2756Z" fill="#FEECAE"/>
<path d="M114.346 23.606C113.362 17.8107 115.104 20.6601 119.415 20.0033C120.675 17.6369 114.248 19.9453 114.011 18.0136C113.027 11.1172 116.206 15.116 119.799 12.9717C118.411 11.2138 115.183 13.4257 114.12 11.6678C113.943 5.87255 114.73 8.49006 118.677 7.53385C119.661 4.75214 112.771 8.11339 114.317 4.38513C115.193 -0.260721 109.159 -0.878887 110.527 4.31751C111.511 8.181 106.728 5.28338 105.291 7.34069C108.805 8.93438 111.757 5.84358 110.212 12.1024C109.169 12.7206 104.808 11.7354 105.133 13.2615C112.722 14.2274 109.572 13.2615 110.763 23.606C111.255 25.4605 115.941 26.3587 114.346 23.606Z" fill="#FEECAE"/>
<path d="M125.026 24.5622C117.811 25.0065 121.325 15.9659 120.528 11.3587C124.986 9.59115 131.424 13.0297 129.386 5.29302C128.746 3.29367 118.283 6.4424 120.469 3.46751C132.812 3.91181 133.786 -0.569843 133.205 10.4025C133.786 15.1159 126.601 10.1803 124.484 12.4888C124.888 16.2363 122.142 25.1803 128.845 22.8719C130.134 12.2763 138.993 27.3052 125.026 24.5622Z" fill="#FEECAE"/>
<path d="M80.6831 14.6523C80.7619 12.0348 79.9449 10.3831 83.4588 10.8371C83.552 10.8464 83.6461 10.8375 83.7357 10.8109C83.8254 10.7844 83.9087 10.7406 83.981 10.6823C84.0533 10.6239 84.1132 10.552 84.157 10.4708C84.2008 10.3897 84.2278 10.3008 84.2365 10.2093C83.7148 1.15904 86.0574 0.183493 75.614 0.318715C72.1197 -0.453983 74.0883 8.23888 73.4879 10.47C74.6395 10.9916 76.7164 9.9678 77.307 11.2331C76.9428 15.9272 77.6613 20.8918 76.933 25.4314C74.3344 26.5228 79.6102 12.1024 72.7398 15.7727C72.4347 18.9021 73.8127 24.3883 72.0607 26.7547C72.1994 26.8851 72.3634 26.9869 72.543 27.0541H72.4052C75.6337 27.7302 79.6102 26.1944 82.7797 25.2286C82.8879 24.34 81.51 24.8615 80.9883 24.7649C79.7481 23.5383 80.8898 18.6896 80.752 16.6323C81.4706 15.8983 84.768 17.3471 83.8624 15.3091C82.8683 14.5171 81.5198 15.4057 80.6831 14.6523ZM77.0412 7.7173C77.6909 4.08562 75.0726 0.357353 80.6536 1.92207C80.8603 4.52992 80.8209 7.23439 80.9981 9.8519C79.2953 9.48487 76.0569 10.4121 77.0412 7.7173Z" fill="#DAAA7F"/>
<path d="M92.79 11.1361C92.5243 11.4742 91.9042 11.252 91.4711 11.3003C89.9848 10.9719 87.1697 11.6094 85.3487 10.4117C85.0338 8.73107 90.1915 9.92875 90.3883 9.77421C91.7073 3.79546 88.656 7.24364 85.2897 5.2636C86.5496 4.06592 89.0497 4.9545 90.6935 5.03177C91.5892 -1.46855 86.6874 3.10003 85.5554 0.20241C86.835 -0.0390582 94.798 -0.493 94.2074 1.42909C93.2231 4.3267 94.8472 8.92426 92.79 11.1458" fill="#DAAA7F"/>
<path d="M91.1265 14.2755C92.534 12.2182 94.0105 11.6387 90.0437 11.8705C87.4353 13.8506 85.1911 16.9607 83.2225 19.5106C83.5375 19.8679 86.1754 20.148 86.6676 19.6844C86.7857 19.4623 86.9038 19.4236 87.0416 19.5782C87.1499 22.6496 86.5298 26.1171 86.9727 28.9664C87.0219 29.121 87.0908 29.4784 87.7503 29.1693C91.6875 28.0296 102.298 29.9516 106.954 28.3773C104.405 27.4114 98.2823 27.9909 97.9969 27.508C97.0126 24.1178 104.05 26.4262 105.389 25.103C105.468 24.2916 96.8748 26.4262 98.2036 23.0553C99.1879 21.9446 105.241 23.1133 106.314 22.1474C105.094 21.365 98.8335 22.5627 98.2823 21.0173C97.4555 18.3129 104.188 19.9066 106.718 19.2884C105.96 18.0135 96.0283 20.4281 98.6662 16.6612C96.9338 16.3908 96.924 16.3618 97.0618 18.3612C94.3943 18.4288 88.7641 19.2208 89.4039 17.289C89.3641 17.3514 89.328 17.4159 89.2957 17.4822C89.7586 16.3385 90.3742 15.2602 91.1265 14.2755V14.2755ZM91.0576 22.4565C92.9179 23.1133 97.6032 21.2008 96.8452 24.0695C94.3538 24.6355 91.7761 24.737 89.2464 24.3689C89.65 23.7701 88.6066 22.157 91.0576 22.4565ZM89.3941 26.687C89.0004 24.2047 94.3156 26.1944 96.1661 25.4603C97.6524 25.8853 96.7764 26.8995 96.9831 27.5756C95.0538 27.4017 88.6263 28.0006 89.3941 26.687ZM95.3688 21.5389C93.7545 21.1042 88.9019 22.5048 89.5811 20.1963C89.8469 18.9793 94.9062 19.7424 96.2645 19.5009C97.485 19.5492 97.7803 21.6838 95.3688 21.5389V21.5389Z" fill="#DAAA7F"/>
<path d="M100.182 11.5615C98.7155 10.9916 94.5224 12.0638 94.4043 10.2093C97.5147 9.10819 100.625 12.2473 99.0994 6.58726C97.6229 6.38442 95.989 6.58724 94.6799 5.75659C95.1228 4.50096 97.7607 5.54411 98.9321 5.46684C99.7195 4.97425 99.5423 4.27881 99.5128 3.13909C99.4242 0.482936 96.0874 2.54026 95.0441 0.888615C96.2056 0.0386471 102.987 -0.173847 102.859 1.91244C102.289 4.51063 104.395 12.199 100.182 11.5615Z" fill="#DAAA7F"/>
<path d="M44.9726 29.604C44.8205 29.6305 44.6637 29.5994 44.534 29.517C44.4043 29.4345 44.3113 29.3068 44.2738 29.1597L39.4704 11.6291H39.185L35.5037 28.783C35.4779 28.9021 35.4162 29.0109 35.3267 29.0953C35.2372 29.1797 35.124 29.2358 35.0017 29.2563L32.7772 29.6137C32.6421 29.6364 32.5032 29.6146 32.3821 29.5517C32.261 29.4888 32.1646 29.3883 32.1078 29.2659L24.7945 12.9524H24.5878L24.0464 28.6284C24.0416 28.779 23.9792 28.9223 23.8716 29.0297C23.7639 29.1371 23.619 29.2008 23.4657 29.208L21.2707 29.3239C21.1825 29.3283 21.0944 29.3142 21.0122 29.2825C20.93 29.2507 20.8557 29.2022 20.7942 29.14C20.7326 29.0778 20.6854 29.0034 20.6555 28.9219C20.6257 28.8403 20.6139 28.7535 20.621 28.6671L22.1565 7.64973C22.1663 7.50098 22.2322 7.36112 22.3414 7.25752C22.4506 7.15392 22.5953 7.09401 22.7471 7.08951L30.0507 6.79009C30.1968 6.78474 30.3402 6.83029 30.4555 6.91866C30.5708 7.00704 30.6505 7.13255 30.6806 7.27302L33.5055 20.3316C33.5399 20.4622 33.6175 20.5779 33.7262 20.6606C33.8349 20.7432 33.9685 20.788 34.106 20.788C34.2434 20.788 34.377 20.7432 34.4857 20.6606C34.5944 20.5779 34.672 20.4622 34.7064 20.3316L37.9939 7.0702C38.0302 6.93338 38.1139 6.81324 38.2307 6.7304C38.3474 6.64756 38.49 6.60719 38.6338 6.61624L45.9372 7.06053C46.089 7.06758 46.2325 7.12988 46.3399 7.23527C46.4473 7.34065 46.5108 7.48153 46.518 7.63039L47.5023 28.6284C47.5115 28.7768 47.4643 28.9232 47.3697 29.0392C47.2751 29.1552 47.1399 29.2326 46.9905 29.2563L44.9726 29.604Z" fill="#DAAA7F"/>
<path d="M57.8079 30.0001C55.925 30.0586 54.0941 29.3892 52.7093 28.1359C51.3509 26.89 50.534 24.8906 50.2288 22.1572L48.6441 7.7657C48.6331 7.68144 48.64 7.59586 48.6643 7.51432C48.6885 7.43278 48.7296 7.357 48.7851 7.29175C48.8405 7.2265 48.909 7.17316 48.9864 7.13505C49.0637 7.09694 49.1482 7.07489 49.2347 7.07027L56.0657 6.64528C56.1578 6.6409 56.2497 6.65578 56.3355 6.68896C56.4212 6.72214 56.4988 6.77287 56.563 6.83773C56.6273 6.90259 56.6767 6.98011 56.7081 7.06517C56.7394 7.15022 56.752 7.24086 56.7449 7.33104C55.8393 17.7625 55.3866 23.1456 55.3866 23.4804C55.3866 26.0561 56.6432 27.3439 59.1564 27.3439C60.2396 27.3745 61.2945 27.0019 62.1093 26.3008C62.9164 25.615 63.3299 24.369 63.3594 22.6884L63.6547 7.51456C63.6593 7.35533 63.7245 7.20357 63.8374 7.08916C63.9504 6.97475 64.1029 6.90598 64.2649 6.89639L66.4107 6.79982C66.501 6.79399 66.5915 6.80728 66.6761 6.83885C66.7607 6.87041 66.8373 6.91948 66.9008 6.98272C66.9643 7.04596 67.0132 7.12189 67.0441 7.20533C67.075 7.28876 67.0873 7.37778 67.08 7.46628L66.0957 22.7174C65.7873 27.5725 63.0247 30.0001 57.8079 30.0001Z" fill="#DAAA7F"/>
<path d="M107.299 18.3806C107.495 19.897 108.982 20.5248 107.299 21.5583C108.578 22.0895 108.952 20.4669 107.988 19.2595C107.24 18.2937 107.929 17.2505 107.308 16.3136C106.049 18.3709 106.393 21.3941 105.655 23.7991C102.574 21.8674 100.025 26.2911 104.021 26.3297C107.033 26.0496 106.049 19.5686 107.161 17.3568L107.299 18.3806Z" fill="#FEECAE" stroke="#FEECAE" stroke-miterlimit="10"/>
<path d="M128.392 29.1983C128.53 29.1983 128.54 28.9762 128.392 28.9665C124.524 28.7057 116.994 28.0007 113.136 26.6484C110.586 25.6826 109.474 25.132 108.49 23.8474C108.479 23.8293 108.464 23.8142 108.446 23.8037C108.428 23.7931 108.407 23.7876 108.386 23.7876C108.365 23.7876 108.344 23.7931 108.326 23.8037C108.308 23.8142 108.293 23.8293 108.283 23.8474C107.81 25.2479 107.988 26.1752 107.023 26.5712C107.001 26.5779 106.982 26.5914 106.968 26.6096C106.954 26.6279 106.947 26.6499 106.947 26.6726C106.947 26.6952 106.954 26.7173 106.968 26.7355C106.982 26.7538 107.001 26.7672 107.023 26.774C109.099 27.4539 111.225 27.9802 113.382 28.3484C118.343 29.129 123.372 29.4138 128.392 29.1983V29.1983Z" fill="#FEECAE"/>
<path d="M14.6759 29.2466V25.7501L17.5599 27.4983L14.6759 29.2466Z" fill="#FEECAE" stroke="#FEECAE" stroke-width="0.73" stroke-linecap="round" stroke-linejoin="round"/>
<path d="M14.8629 13.4062V16.893L17.7469 15.1448L14.8629 13.4062Z" fill="#DAAA7F" stroke="#DAAA7F" stroke-width="0.73" stroke-linecap="round" stroke-linejoin="round"/>
<path d="M1.56219 25.5903C3.20597 25.6482 5.00726 25.6579 5.39113 25.0107C5.79916 24.3919 6.12965 23.7271 6.37543 23.0307L7.35973 20.6546C8.02439 19.0355 8.78355 17.4553 9.63346 15.9219C9.90122 15.4533 10.2589 15.0401 10.6867 14.7049C11.1469 14.4152 11.6628 14.2212 12.2025 14.135C13.1121 14.0113 14.0316 13.9725 14.9487 14.0191C15.034 14.0216 15.118 14.0406 15.1958 14.0749C15.2737 14.1093 15.3439 14.1584 15.4024 14.2194C15.4609 14.2804 15.5066 14.3521 15.5368 14.4304C15.567 14.5088 15.5813 14.5922 15.5786 14.6759C15.5716 14.836 15.5043 14.9878 15.3897 15.102C15.2752 15.2162 15.1215 15.2846 14.9585 15.2941C14.1404 15.3045 13.3256 15.3984 12.5273 15.5742C12.2121 15.6358 11.9157 15.768 11.6611 15.9605C11.4335 16.1809 11.2528 16.4436 11.1296 16.7332C10.4373 18.246 9.83587 19.7973 9.32833 21.379L8.54088 23.7841L8.13734 25.0204C7.97487 25.5301 7.73956 26.0146 7.43846 26.4595C7.07162 26.9873 6.56906 27.4106 5.98172 27.6862C5.48145 27.925 4.9471 28.0879 4.39698 28.1691C3.47537 28.315 2.54469 28.3989 1.61142 28.4203C1.41422 28.4424 1.21447 28.4245 1.02462 28.3676C0.834774 28.3108 0.65888 28.2162 0.507871 28.0898C0.356861 27.9634 0.233967 27.8079 0.146838 27.6329C0.0597099 27.4579 0.0102201 27.2672 0.00142207 27.0726C-0.00737597 26.878 0.0247215 26.6837 0.0957128 26.5018C0.166704 26.3199 0.275053 26.1543 0.41406 26.0153C0.553068 25.8762 0.719746 25.7668 0.903717 25.6937C1.08769 25.6205 1.28503 25.5853 1.48346 25.5903H1.61142H1.56219Z" fill="#DAAA7F"/>
</g>
<defs>
<clipPath id="clip0">
<rect width="133.333" height="30" fill="white"/>
</clipPath>
</defs>
</svg>
