<svg width="1440" height="936" viewBox="0 0 1440 936" fill="none" xmlns="http://www.w3.org/2000/svg">
<path d="M198.716 776.552V779.216H196.976V776.552H198.716ZM196.976 782.768V779.996H198.716V782.768H196.976ZM199.556 775.748H196.16V784.544H196.976V783.572H199.556V775.748ZM200.54 782.468C201.152 783.104 201.788 783.992 202.064 784.58L202.82 784.1C202.544 783.512 201.872 782.66 201.26 782.06L200.54 782.468ZM206.732 779.492V778.7H203.636V777.176H206.216V776.384H203.636V774.956H202.76V776.384H200.264V777.176H202.76V778.7H199.748V779.492H204.344V780.848H199.808V781.64H204.344V784.844C204.344 785.024 204.284 785.072 204.08 785.084C203.888 785.096 203.228 785.096 202.484 785.072C202.616 785.3 202.736 785.66 202.772 785.9C203.744 785.9 204.344 785.888 204.716 785.756C205.076 785.624 205.208 785.36 205.208 784.856V781.64H206.6V780.848H205.208V779.492H206.732ZM212.876 778.232C212.444 778.988 211.856 779.732 211.172 780.404C210.884 780.128 210.5 779.804 210.08 779.492C210.632 778.88 211.268 778.052 211.796 777.344L211.748 777.32H214.676V776.504H212.012V775.04H211.148V776.504H208.46V777.32H210.752C210.392 777.884 209.912 778.532 209.48 779.06C209.288 778.94 209.108 778.82 208.94 778.712L208.436 779.3C209.168 779.768 210.008 780.428 210.548 780.98C209.876 781.544 209.144 782.048 208.412 782.42C208.628 782.6 208.868 782.864 209 783.068C210.836 782.048 212.588 780.368 213.656 778.556L212.876 778.232ZM213.764 780.488C212.6 782.456 210.488 784.22 208.208 785.204C208.436 785.396 208.688 785.708 208.82 785.912C209.972 785.372 211.076 784.64 212.048 783.776C212.804 784.436 213.644 785.264 214.076 785.792L214.76 785.18C214.304 784.64 213.44 783.848 212.672 783.2C213.404 782.468 214.04 781.664 214.544 780.824L213.764 780.488ZM216.08 776.288H215.24V782.924H216.08V776.288ZM217.868 775.208V784.784C217.868 784.988 217.784 785.048 217.58 785.06C217.376 785.06 216.704 785.072 215.96 785.048C216.092 785.3 216.224 785.696 216.272 785.924C217.268 785.936 217.868 785.912 218.216 785.768C218.588 785.612 218.732 785.348 218.732 784.772V775.208H217.868Z" fill="white"/>
<path d="M206.08 233H201V213.418L194.936 215.299V211.168L205.535 207.371H206.08V233Z" fill="#FDECAE"/>
<path d="M211.283 355H193.74V351.52L202.02 342.695C203.156 341.453 203.994 340.369 204.533 339.443C205.084 338.518 205.359 337.639 205.359 336.807C205.359 335.67 205.072 334.779 204.498 334.135C203.924 333.479 203.104 333.15 202.037 333.15C200.889 333.15 199.98 333.549 199.312 334.346C198.656 335.131 198.328 336.168 198.328 337.457H193.23C193.23 335.898 193.6 334.475 194.338 333.186C195.088 331.896 196.143 330.889 197.502 330.162C198.861 329.424 200.402 329.055 202.125 329.055C204.762 329.055 206.807 329.688 208.26 330.953C209.725 332.219 210.457 334.006 210.457 336.314C210.457 337.58 210.129 338.869 209.473 340.182C208.816 341.494 207.691 343.023 206.098 344.77L200.279 350.904H211.283V355Z" fill="#FDECAE"/>
<path d="M198.908 461.953H201.615C202.904 461.953 203.859 461.631 204.48 460.986C205.102 460.342 205.412 459.486 205.412 458.42C205.412 457.389 205.102 456.586 204.48 456.012C203.871 455.438 203.027 455.15 201.949 455.15C200.977 455.15 200.162 455.42 199.506 455.959C198.85 456.486 198.521 457.178 198.521 458.033H193.441C193.441 456.697 193.799 455.502 194.514 454.447C195.24 453.381 196.248 452.549 197.537 451.951C198.838 451.354 200.268 451.055 201.826 451.055C204.533 451.055 206.654 451.705 208.189 453.006C209.725 454.295 210.492 456.076 210.492 458.35C210.492 459.521 210.135 460.6 209.42 461.584C208.705 462.568 207.768 463.324 206.607 463.852C208.049 464.367 209.121 465.141 209.824 466.172C210.539 467.203 210.896 468.422 210.896 469.828C210.896 472.102 210.064 473.924 208.4 475.295C206.748 476.666 204.557 477.352 201.826 477.352C199.271 477.352 197.18 476.678 195.551 475.33C193.934 473.982 193.125 472.201 193.125 469.986H198.205C198.205 470.947 198.562 471.732 199.277 472.342C200.004 472.951 200.895 473.256 201.949 473.256C203.156 473.256 204.1 472.939 204.779 472.307C205.471 471.662 205.816 470.812 205.816 469.758C205.816 467.203 204.41 465.926 201.598 465.926H198.908V461.953Z" fill="#FDECAE"/>
<path d="M208.77 589.367H211.67V593.463H208.77V599H203.689V593.463H193.195L192.967 590.264L203.637 573.406H208.77V589.367ZM198.029 589.367H203.689V580.332L203.355 580.912L198.029 589.367Z" fill="#FDECAE"/>
<path d="M194.496 708.414L195.973 695.406H210.316V699.643H200.139L199.506 705.145C200.713 704.5 201.996 704.178 203.355 704.178C205.793 704.178 207.703 704.934 209.086 706.445C210.469 707.957 211.16 710.072 211.16 712.791C211.16 714.443 210.809 715.926 210.105 717.238C209.414 718.539 208.418 719.553 207.117 720.279C205.816 720.994 204.281 721.352 202.512 721.352C200.965 721.352 199.529 721.041 198.205 720.42C196.881 719.787 195.832 718.902 195.059 717.766C194.297 716.629 193.893 715.334 193.846 713.881H198.873C198.979 714.947 199.348 715.779 199.98 716.377C200.625 716.963 201.463 717.256 202.494 717.256C203.643 717.256 204.527 716.846 205.148 716.025C205.77 715.193 206.08 714.021 206.08 712.51C206.08 711.057 205.723 709.943 205.008 709.17C204.293 708.396 203.279 708.01 201.967 708.01C200.76 708.01 199.781 708.326 199.031 708.959L198.539 709.416L194.496 708.414Z" fill="#FDECAE"/>
<path d="M258.52 781.361C258.52 782.631 258.304 783.574 257.87 784.191C257.436 784.809 256.759 785.117 255.837 785.117C254.927 785.117 254.253 784.816 253.815 784.215C253.378 783.609 253.151 782.707 253.136 781.508V780.061C253.136 778.807 253.352 777.875 253.786 777.266C254.22 776.656 254.899 776.352 255.825 776.352C256.743 776.352 257.419 776.646 257.852 777.236C258.286 777.822 258.509 778.729 258.52 779.955V781.361ZM257.436 779.879C257.436 778.961 257.307 778.293 257.05 777.875C256.792 777.453 256.384 777.242 255.825 777.242C255.27 777.242 254.866 777.451 254.612 777.869C254.358 778.287 254.227 778.93 254.22 779.797V781.531C254.22 782.453 254.352 783.135 254.618 783.576C254.887 784.014 255.294 784.232 255.837 784.232C256.372 784.232 256.768 784.025 257.026 783.611C257.288 783.197 257.425 782.545 257.436 781.654V779.879ZM264.071 785H262.982V777.775L260.796 778.578V777.594L263.902 776.428H264.071V785Z" fill="white"/>
<path d="M323.02 781.361C323.02 782.631 322.804 783.574 322.37 784.191C321.936 784.809 321.259 785.117 320.337 785.117C319.427 785.117 318.753 784.816 318.315 784.215C317.878 783.609 317.651 782.707 317.636 781.508V780.061C317.636 778.807 317.852 777.875 318.286 777.266C318.72 776.656 319.399 776.352 320.325 776.352C321.243 776.352 321.919 776.646 322.352 777.236C322.786 777.822 323.009 778.729 323.02 779.955V781.361ZM321.936 779.879C321.936 778.961 321.807 778.293 321.55 777.875C321.292 777.453 320.884 777.242 320.325 777.242C319.77 777.242 319.366 777.451 319.112 777.869C318.858 778.287 318.727 778.93 318.72 779.797V781.531C318.72 782.453 318.852 783.135 319.118 783.576C319.387 784.014 319.794 784.232 320.337 784.232C320.872 784.232 321.268 784.025 321.526 783.611C321.788 783.197 321.925 782.545 321.936 781.654V779.879ZM330.599 785H325.009V784.221L327.962 780.939C328.4 780.443 328.7 780.041 328.864 779.732C329.032 779.42 329.116 779.098 329.116 778.766C329.116 778.32 328.982 777.955 328.712 777.67C328.443 777.385 328.083 777.242 327.634 777.242C327.095 777.242 326.675 777.396 326.374 777.705C326.077 778.01 325.929 778.436 325.929 778.982H324.845C324.845 778.197 325.097 777.562 325.601 777.078C326.109 776.594 326.786 776.352 327.634 776.352C328.427 776.352 329.054 776.561 329.515 776.979C329.976 777.393 330.206 777.945 330.206 778.637C330.206 779.477 329.671 780.477 328.601 781.637L326.316 784.115H330.599V785Z" fill="white"/>
<path d="M387.52 781.361C387.52 782.631 387.304 783.574 386.87 784.191C386.436 784.809 385.759 785.117 384.837 785.117C383.927 785.117 383.253 784.816 382.815 784.215C382.378 783.609 382.151 782.707 382.136 781.508V780.061C382.136 778.807 382.352 777.875 382.786 777.266C383.22 776.656 383.899 776.352 384.825 776.352C385.743 776.352 386.419 776.646 386.852 777.236C387.286 777.822 387.509 778.729 387.52 779.955V781.361ZM386.436 779.879C386.436 778.961 386.307 778.293 386.05 777.875C385.792 777.453 385.384 777.242 384.825 777.242C384.27 777.242 383.866 777.451 383.612 777.869C383.358 778.287 383.227 778.93 383.22 779.797V781.531C383.22 782.453 383.352 783.135 383.618 783.576C383.887 784.014 384.294 784.232 384.837 784.232C385.372 784.232 385.768 784.025 386.026 783.611C386.288 783.197 386.425 782.545 386.436 781.654V779.879ZM391.085 780.207H391.9C392.411 780.199 392.814 780.064 393.107 779.803C393.4 779.541 393.546 779.188 393.546 778.742C393.546 777.742 393.048 777.242 392.052 777.242C391.583 777.242 391.208 777.377 390.927 777.646C390.65 777.912 390.511 778.266 390.511 778.707H389.427C389.427 778.031 389.673 777.471 390.165 777.025C390.661 776.576 391.29 776.352 392.052 776.352C392.857 776.352 393.487 776.564 393.945 776.99C394.402 777.416 394.63 778.008 394.63 778.766C394.63 779.137 394.509 779.496 394.267 779.844C394.029 780.191 393.702 780.451 393.288 780.623C393.757 780.771 394.118 781.018 394.372 781.361C394.63 781.705 394.759 782.125 394.759 782.621C394.759 783.387 394.509 783.994 394.009 784.443C393.509 784.893 392.859 785.117 392.058 785.117C391.257 785.117 390.605 784.9 390.101 784.467C389.601 784.033 389.351 783.461 389.351 782.75H390.441C390.441 783.199 390.587 783.559 390.88 783.828C391.173 784.098 391.566 784.232 392.058 784.232C392.581 784.232 392.982 784.096 393.259 783.822C393.536 783.549 393.675 783.156 393.675 782.645C393.675 782.148 393.523 781.768 393.218 781.502C392.913 781.236 392.474 781.1 391.9 781.092H391.085V780.207Z" fill="white"/>
<path d="M452.02 781.361C452.02 782.631 451.804 783.574 451.37 784.191C450.936 784.809 450.259 785.117 449.337 785.117C448.427 785.117 447.753 784.816 447.315 784.215C446.878 783.609 446.651 782.707 446.636 781.508V780.061C446.636 778.807 446.852 777.875 447.286 777.266C447.72 776.656 448.399 776.352 449.325 776.352C450.243 776.352 450.919 776.646 451.352 777.236C451.786 777.822 452.009 778.729 452.02 779.955V781.361ZM450.936 779.879C450.936 778.961 450.807 778.293 450.55 777.875C450.292 777.453 449.884 777.242 449.325 777.242C448.77 777.242 448.366 777.451 448.112 777.869C447.858 778.287 447.727 778.93 447.72 779.797V781.531C447.72 782.453 447.852 783.135 448.118 783.576C448.387 784.014 448.794 784.232 449.337 784.232C449.872 784.232 450.268 784.025 450.526 783.611C450.788 783.197 450.925 782.545 450.936 781.654V779.879ZM458.585 782.135H459.769V783.02H458.585V785H457.495V783.02H453.611V782.381L457.431 776.469H458.585V782.135ZM454.841 782.135H457.495V777.951L457.366 778.186L454.841 782.135Z" fill="white"/>
<path d="M516.52 781.361C516.52 782.631 516.304 783.574 515.87 784.191C515.436 784.809 514.759 785.117 513.837 785.117C512.927 785.117 512.253 784.816 511.815 784.215C511.378 783.609 511.151 782.707 511.136 781.508V780.061C511.136 778.807 511.352 777.875 511.786 777.266C512.22 776.656 512.899 776.352 513.825 776.352C514.743 776.352 515.419 776.646 515.852 777.236C516.286 777.822 516.509 778.729 516.52 779.955V781.361ZM515.436 779.879C515.436 778.961 515.307 778.293 515.05 777.875C514.792 777.453 514.384 777.242 513.825 777.242C513.27 777.242 512.866 777.451 512.612 777.869C512.358 778.287 512.227 778.93 512.22 779.797V781.531C512.22 782.453 512.352 783.135 512.618 783.576C512.887 784.014 513.294 784.232 513.837 784.232C514.372 784.232 514.768 784.025 515.026 783.611C515.288 783.197 515.425 782.545 515.436 781.654V779.879ZM519.007 780.723L519.441 776.469H523.812V777.471H520.361L520.103 779.797C520.521 779.551 520.995 779.428 521.527 779.428C522.304 779.428 522.921 779.686 523.378 780.201C523.835 780.713 524.064 781.406 524.064 782.281C524.064 783.16 523.825 783.854 523.349 784.361C522.876 784.865 522.214 785.117 521.362 785.117C520.609 785.117 519.993 784.908 519.517 784.49C519.04 784.072 518.769 783.494 518.702 782.756H519.728C519.794 783.244 519.968 783.613 520.249 783.863C520.53 784.109 520.902 784.232 521.362 784.232C521.866 784.232 522.261 784.061 522.546 783.717C522.835 783.373 522.98 782.898 522.98 782.293C522.98 781.723 522.823 781.266 522.511 780.922C522.202 780.574 521.79 780.4 521.275 780.4C520.802 780.4 520.431 780.504 520.161 780.711L519.874 780.945L519.007 780.723Z" fill="white"/>
<path d="M581.02 781.361C581.02 782.631 580.804 783.574 580.37 784.191C579.936 784.809 579.259 785.117 578.337 785.117C577.427 785.117 576.753 784.816 576.315 784.215C575.878 783.609 575.651 782.707 575.636 781.508V780.061C575.636 778.807 575.852 777.875 576.286 777.266C576.72 776.656 577.399 776.352 578.325 776.352C579.243 776.352 579.919 776.646 580.352 777.236C580.786 777.822 581.009 778.729 581.02 779.955V781.361ZM579.936 779.879C579.936 778.961 579.807 778.293 579.55 777.875C579.292 777.453 578.884 777.242 578.325 777.242C577.77 777.242 577.366 777.451 577.112 777.869C576.858 778.287 576.727 778.93 576.72 779.797V781.531C576.72 782.453 576.852 783.135 577.118 783.576C577.387 784.014 577.794 784.232 578.337 784.232C578.872 784.232 579.268 784.025 579.526 783.611C579.788 783.197 579.925 782.545 579.936 781.654V779.879ZM587.263 776.463V777.383H587.064C586.22 777.398 585.548 777.648 585.048 778.133C584.548 778.617 584.259 779.299 584.181 780.178C584.63 779.662 585.243 779.404 586.021 779.404C586.763 779.404 587.355 779.666 587.796 780.189C588.241 780.713 588.464 781.389 588.464 782.217C588.464 783.096 588.224 783.799 587.743 784.326C587.267 784.854 586.626 785.117 585.821 785.117C585.005 785.117 584.343 784.805 583.835 784.18C583.327 783.551 583.073 782.742 583.073 781.754V781.338C583.073 779.768 583.407 778.568 584.075 777.74C584.747 776.908 585.745 776.482 587.07 776.463H587.263ZM585.839 780.307C585.468 780.307 585.126 780.418 584.814 780.641C584.501 780.863 584.284 781.143 584.163 781.479V781.877C584.163 782.58 584.321 783.146 584.638 783.576C584.954 784.006 585.349 784.221 585.821 784.221C586.31 784.221 586.693 784.041 586.97 783.682C587.251 783.322 587.392 782.852 587.392 782.27C587.392 781.684 587.249 781.211 586.964 780.852C586.683 780.488 586.308 780.307 585.839 780.307Z" fill="white"/>
<path d="M642.059 781.361C642.059 782.631 641.842 783.574 641.408 784.191C640.975 784.809 640.297 785.117 639.375 785.117C638.465 785.117 637.791 784.816 637.354 784.215C636.916 783.609 636.689 782.707 636.674 781.508V780.061C636.674 778.807 636.891 777.875 637.324 777.266C637.758 776.656 638.438 776.352 639.363 776.352C640.281 776.352 640.957 776.646 641.391 777.236C641.824 777.822 642.047 778.729 642.059 779.955V781.361ZM640.975 779.879C640.975 778.961 640.846 778.293 640.588 777.875C640.33 777.453 639.922 777.242 639.363 777.242C638.809 777.242 638.404 777.451 638.15 777.869C637.896 778.287 637.766 778.93 637.758 779.797V781.531C637.758 782.453 637.891 783.135 638.156 783.576C638.426 784.014 638.832 784.232 639.375 784.232C639.91 784.232 640.307 784.025 640.564 783.611C640.826 783.197 640.963 782.545 640.975 781.654V779.879ZM649.555 777.078L646.022 785H644.885L648.407 777.359H643.789V776.469H649.555V777.078Z" fill="white"/>
<path d="M710.02 781.361C710.02 782.631 709.804 783.574 709.37 784.191C708.936 784.809 708.259 785.117 707.337 785.117C706.427 785.117 705.753 784.816 705.315 784.215C704.878 783.609 704.651 782.707 704.636 781.508V780.061C704.636 778.807 704.852 777.875 705.286 777.266C705.72 776.656 706.399 776.352 707.325 776.352C708.243 776.352 708.919 776.646 709.352 777.236C709.786 777.822 710.009 778.729 710.02 779.955V781.361ZM708.936 779.879C708.936 778.961 708.807 778.293 708.55 777.875C708.292 777.453 707.884 777.242 707.325 777.242C706.77 777.242 706.366 777.451 706.112 777.869C705.858 778.287 705.727 778.93 705.72 779.797V781.531C705.72 782.453 705.852 783.135 706.118 783.576C706.387 784.014 706.794 784.232 707.337 784.232C707.872 784.232 708.268 784.025 708.526 783.611C708.788 783.197 708.925 782.545 708.936 781.654V779.879ZM717.183 778.695C717.183 779.121 717.07 779.5 716.843 779.832C716.62 780.164 716.318 780.424 715.935 780.611C716.38 780.803 716.732 781.082 716.989 781.449C717.251 781.816 717.382 782.232 717.382 782.697C717.382 783.436 717.132 784.023 716.632 784.461C716.136 784.898 715.482 785.117 714.669 785.117C713.849 785.117 713.191 784.898 712.695 784.461C712.202 784.02 711.956 783.432 711.956 782.697C711.956 782.236 712.081 781.82 712.331 781.449C712.585 781.078 712.935 780.797 713.38 780.605C713.001 780.418 712.702 780.158 712.484 779.826C712.265 779.494 712.155 779.117 712.155 778.695C712.155 777.977 712.386 777.406 712.847 776.984C713.308 776.562 713.915 776.352 714.669 776.352C715.419 776.352 716.025 776.562 716.486 776.984C716.95 777.406 717.183 777.977 717.183 778.695ZM716.298 782.674C716.298 782.197 716.146 781.809 715.841 781.508C715.54 781.207 715.146 781.057 714.657 781.057C714.169 781.057 713.777 781.205 713.48 781.502C713.187 781.799 713.04 782.189 713.04 782.674C713.04 783.158 713.183 783.539 713.468 783.816C713.757 784.094 714.157 784.232 714.669 784.232C715.177 784.232 715.575 784.094 715.864 783.816C716.154 783.535 716.298 783.154 716.298 782.674ZM714.669 777.242C714.243 777.242 713.898 777.375 713.632 777.641C713.37 777.902 713.239 778.26 713.239 778.713C713.239 779.146 713.368 779.498 713.626 779.768C713.888 780.033 714.236 780.166 714.669 780.166C715.103 780.166 715.448 780.033 715.706 779.768C715.968 779.498 716.099 779.146 716.099 778.713C716.099 778.279 715.964 777.926 715.695 777.652C715.425 777.379 715.083 777.242 714.669 777.242Z" fill="white"/>
<path d="M774.52 781.361C774.52 782.631 774.304 783.574 773.87 784.191C773.436 784.809 772.759 785.117 771.837 785.117C770.927 785.117 770.253 784.816 769.815 784.215C769.378 783.609 769.151 782.707 769.136 781.508V780.061C769.136 778.807 769.352 777.875 769.786 777.266C770.22 776.656 770.899 776.352 771.825 776.352C772.743 776.352 773.419 776.646 773.852 777.236C774.286 777.822 774.509 778.729 774.52 779.955V781.361ZM773.436 779.879C773.436 778.961 773.307 778.293 773.05 777.875C772.792 777.453 772.384 777.242 771.825 777.242C771.27 777.242 770.866 777.451 770.612 777.869C770.358 778.287 770.227 778.93 770.22 779.797V781.531C770.22 782.453 770.352 783.135 770.618 783.576C770.887 784.014 771.294 784.232 771.837 784.232C772.372 784.232 772.768 784.025 773.026 783.611C773.288 783.197 773.425 782.545 773.436 781.654V779.879ZM780.663 781.25C780.437 781.52 780.165 781.736 779.849 781.9C779.536 782.064 779.193 782.146 778.818 782.146C778.325 782.146 777.896 782.025 777.529 781.783C777.165 781.541 776.884 781.201 776.685 780.764C776.486 780.322 776.386 779.836 776.386 779.305C776.386 778.734 776.493 778.221 776.708 777.764C776.927 777.307 777.236 776.957 777.634 776.715C778.032 776.473 778.497 776.352 779.029 776.352C779.872 776.352 780.536 776.668 781.021 777.301C781.509 777.93 781.753 778.789 781.753 779.879V780.195C781.753 781.855 781.425 783.068 780.769 783.834C780.112 784.596 779.122 784.986 777.798 785.006H777.587V784.092H777.816C778.71 784.076 779.398 783.844 779.878 783.395C780.359 782.941 780.62 782.227 780.663 781.25ZM778.993 781.25C779.357 781.25 779.691 781.139 779.995 780.916C780.304 780.693 780.529 780.418 780.669 780.09V779.656C780.669 778.945 780.515 778.367 780.206 777.922C779.898 777.477 779.507 777.254 779.034 777.254C778.558 777.254 778.175 777.438 777.886 777.805C777.597 778.168 777.452 778.648 777.452 779.246C777.452 779.828 777.591 780.309 777.868 780.688C778.15 781.062 778.525 781.25 778.993 781.25Z" fill="white"/>
<path d="M837.233 785H836.143V777.775L833.958 778.578V777.594L837.063 776.428H837.233V785ZM846.359 781.361C846.359 782.631 846.142 783.574 845.708 784.191C845.275 784.809 844.597 785.117 843.675 785.117C842.765 785.117 842.091 784.816 841.654 784.215C841.216 783.609 840.989 782.707 840.974 781.508V780.061C840.974 778.807 841.191 777.875 841.624 777.266C842.058 776.656 842.737 776.352 843.663 776.352C844.581 776.352 845.257 776.646 845.691 777.236C846.124 777.822 846.347 778.729 846.359 779.955V781.361ZM845.275 779.879C845.275 778.961 845.146 778.293 844.888 777.875C844.63 777.453 844.222 777.242 843.663 777.242C843.109 777.242 842.704 777.451 842.45 777.869C842.196 778.287 842.066 778.93 842.058 779.797V781.531C842.058 782.453 842.191 783.135 842.456 783.576C842.726 784.014 843.132 784.232 843.675 784.232C844.21 784.232 844.607 784.025 844.864 783.611C845.126 783.197 845.263 782.545 845.275 781.654V779.879Z" fill="white"/>
<path d="M901.733 785H900.643V777.775L898.458 778.578V777.594L901.563 776.428H901.733V785ZM909.071 785H907.982V777.775L905.796 778.578V777.594L908.902 776.428H909.071V785Z" fill="white"/>
<path d="M966.233 785H965.143V777.775L962.958 778.578V777.594L966.063 776.428H966.233V785ZM975.599 785H970.009V784.221L972.962 780.939C973.4 780.443 973.7 780.041 973.864 779.732C974.032 779.42 974.116 779.098 974.116 778.766C974.116 778.32 973.982 777.955 973.712 777.67C973.443 777.385 973.083 777.242 972.634 777.242C972.095 777.242 971.675 777.396 971.374 777.705C971.077 778.01 970.929 778.436 970.929 778.982H969.845C969.845 778.197 970.097 777.562 970.601 777.078C971.109 776.594 971.786 776.352 972.634 776.352C973.427 776.352 974.054 776.561 974.515 776.979C974.976 777.393 975.206 777.945 975.206 778.637C975.206 779.477 974.671 780.477 973.601 781.637L971.316 784.115H975.599V785Z" fill="white"/>
<path d="M196.376 165.836L196.256 165.008C195.86 165.14 195.464 165.272 195.068 165.392V163.184H196.352V162.368H195.068V159.968H194.24V162.368H192.74V163.184H194.24V165.644C193.616 165.836 193.04 166.016 192.584 166.136L192.812 167L194.24 166.532V169.88C194.24 170.06 194.18 170.096 194.036 170.096C193.892 170.108 193.424 170.108 192.908 170.096C193.028 170.336 193.136 170.708 193.172 170.912C193.916 170.924 194.372 170.888 194.66 170.756C194.96 170.612 195.068 170.36 195.068 169.88V166.268L196.376 165.836ZM198.488 161.996H196.52V162.812H198.488V164.492H196.604V165.296H198.488C198.476 165.836 198.452 166.352 198.38 166.844C197.468 167.144 196.592 167.42 195.932 167.588L196.28 168.368C196.868 168.152 197.54 167.912 198.212 167.66C197.912 168.692 197.336 169.592 196.22 170.324C196.412 170.468 196.712 170.756 196.844 170.924C199.016 169.472 199.28 167.372 199.28 164.984V159.956H198.488V161.996ZM203.672 167.084H201.38V165.296H203.348V164.492H201.38V162.812H203.468V161.996H201.38V159.956H200.528V170.9H201.38V167.9H203.672V167.084ZM209.588 169.616V166.664H214.508V169.616H209.588ZM212.564 161.96C212.048 163.004 211.292 163.952 210.404 164.768C209.852 164.168 208.94 163.4 208.136 162.836C208.448 162.56 208.724 162.26 208.988 161.96H212.564ZM215.408 165.848H210.5C211.892 164.672 213.068 163.196 213.776 161.42L213.188 161.108L213.02 161.156H209.636C209.888 160.808 210.116 160.46 210.32 160.124L209.324 159.92C208.628 161.216 207.26 162.752 205.292 163.82C205.496 163.976 205.796 164.3 205.916 164.504C206.492 164.168 207.008 163.796 207.488 163.412C208.28 164 209.156 164.768 209.684 165.38C208.328 166.448 206.756 167.24 205.232 167.684C205.424 167.852 205.652 168.224 205.76 168.464C206.756 168.14 207.752 167.684 208.712 167.12V170.912H209.588V170.432H214.508V170.936H215.408V165.848Z" fill="#FDECAE"/>
</svg>
