<svg width="22" height="21" viewBox="0 0 22 21" fill="none" xmlns="http://www.w3.org/2000/svg">
<path d="M19.9477 15.2439L19.8606 15.1874C19.5606 14.9864 18.1929 14.1197 17.28 13.5483C16.9059 13.3096 16.6059 13.1212 16.493 13.0459C16.0888 12.7943 15.6012 12.7027 15.1298 12.7897C14.6585 12.8766 14.2392 13.1357 13.9576 13.5137L13.8511 13.6425C13.5092 14.0601 13.1576 14.4934 12.577 14.5248C11.7802 14.5719 10.6416 13.878 9.19647 12.4681C7.75136 11.0582 7.03849 9.95607 7.08687 9.18049C7.11913 8.61528 7.56427 8.27302 7.99329 7.94018L8.12554 7.83655C8.51391 7.56245 8.78 7.15423 8.86934 6.69543C8.95869 6.23664 8.86454 5.76194 8.60617 5.36849C8.53198 5.26173 8.34166 4.97913 8.10296 4.62117C7.50944 3.73568 6.6127 2.39489 6.40625 2.10915L6.34819 2.02437C6.05143 1.59418 5.55144 0.871977 4.50632 1.01956C3.77087 1.11376 1 2.51735 1 5.56318C1 8.21336 3.00315 11.7051 6.4998 15.1214C9.99644 18.5378 13.5802 20.4595 16.3027 20.4595C19.4284 20.4595 20.8735 17.7622 20.9799 17.0368C21.1315 16.0195 20.3896 15.5328 19.9477 15.2439ZM20.3541 16.9489C20.2541 17.5361 18.9703 19.8315 16.3027 19.8315C13.7382 19.8315 10.3319 17.9474 6.94817 14.663C3.56442 11.3785 1.64514 8.0595 1.64514 5.56318C1.64514 2.96637 4.00312 1.71664 4.60632 1.6193C4.66537 1.61485 4.72468 1.61485 4.78373 1.6193C5.26436 1.6193 5.51596 1.93331 5.83853 2.36663L5.89982 2.45455C6.10304 2.74343 6.99655 4.08108 7.59008 4.96657C7.82878 5.32453 8.0191 5.59458 8.09006 5.71704C8.26058 5.98036 8.31988 6.29768 8.25555 6.6026C8.19122 6.90752 8.00825 7.1764 7.74491 7.35299L7.61589 7.45033C7.12881 7.80829 6.4998 8.29814 6.45141 9.15537C6.39335 10.1413 7.12558 11.3534 8.75133 12.9234C10.3771 14.4934 11.6093 15.2156 12.6222 15.1622C13.4931 15.1151 13.9963 14.4965 14.3672 14.0444L14.4672 13.9188C14.6474 13.6575 14.9253 13.4751 15.2418 13.4105C15.5582 13.346 15.888 13.4044 16.1607 13.5734L16.951 14.0758C17.851 14.6441 19.209 15.5076 19.509 15.7055L19.5993 15.7651C20.0832 16.0917 20.4283 16.3774 20.3541 16.9489Z" fill="white" stroke="white" stroke-width="0.5"/>
</svg>
