<svg width="28" height="28" viewBox="0 0 28 28" fill="none" xmlns="http://www.w3.org/2000/svg">
<g filter="url(#filter0_d)">
<path d="M14 0C8.48 0 4 4.48 4 10C4 15.52 8.48 20 14 20C19.52 20 24 15.52 24 10C24 4.48 19.52 0 14 0ZM14 3C15.66 3 17 4.34 17 6C17 7.66 15.66 9 14 9C12.34 9 11 7.66 11 6C11 4.34 12.34 3 14 3ZM14 17.2C12.8119 17.2 11.6422 16.906 10.5953 16.3441C9.54837 15.7823 8.65678 14.9701 8 13.98C8.03 11.99 12 10.9 14 10.9C15.99 10.9 19.97 11.99 20 13.98C19.3432 14.9701 18.4516 15.7823 17.4047 16.3441C16.3578 16.906 15.1881 17.2 14 17.2Z" fill="white"/>
</g>
<defs>
<filter id="filter0_d" x="0" y="0" width="28" height="28" filterUnits="userSpaceOnUse" color-interpolation-filters="sRGB">
<feFlood flood-opacity="0" result="BackgroundImageFix"/>
<feColorMatrix in="SourceAlpha" type="matrix" values="0 0 0 0 0 0 0 0 0 0 0 0 0 0 0 0 0 0 127 0" result="hardAlpha"/>
<feOffset dy="4"/>
<feGaussianBlur stdDeviation="2"/>
<feComposite in2="hardAlpha" operator="out"/>
<feColorMatrix type="matrix" values="0 0 0 0 0 0 0 0 0 0 0 0 0 0 0 0 0 0 0.25 0"/>
<feBlend mode="normal" in2="BackgroundImageFix" result="effect1_dropShadow"/>
<feBlend mode="normal" in="SourceGraphic" in2="effect1_dropShadow" result="shape"/>
</filter>
</defs>
</svg>
