<svg width="40" height="49" viewBox="0 0 40 49" fill="none" xmlns="http://www.w3.org/2000/svg">
<circle cx="20" cy="17" r="11" fill="#4E5E77"/>
<path fill-rule="evenodd" clip-rule="evenodd" d="M19.823 1.77909C27.4336 -0.69879 25.6637 -1.40675 29.7345 5.14192C37.1681 7.97378 36.2832 6.20386 35.0442 13.8145C38.9381 20.7171 39.292 18.7702 33.4513 23.726C32.7434 26.3809 32.5664 27.9738 32.2124 29.0357L40 43.018L32.2124 41.2481L29.5575 48.8587L21.5 33.5C20 34.5 19.823 34.1685 18.7611 33.4605L10.4425 48.8587L7.78761 41.2481L0 43.018L7.78761 28.8587C7.43363 27.9738 7.25664 26.5578 6.72566 24.08C0.884956 18.9472 1.06195 20.8941 4.77876 14.1685C3.71681 6.38086 2.65487 7.97378 10.0885 5.31891C14.3363 -1.22976 12.3894 -0.69879 19.823 1.77909ZM20 3.72599C27.2566 3.72599 33.2743 9.74369 33.2743 17.0003C33.2743 24.257 27.2566 30.2747 20 30.2747C12.7434 30.2747 6.72566 24.257 6.72566 17.0003C6.72566 9.74369 12.7434 3.72599 20 3.72599Z" fill="#4E5E77"/>
</svg>
