<svg width="47" height="58" viewBox="0 0 47 58" fill="none" xmlns="http://www.w3.org/2000/svg">
<g filter="url(#filter0_d)">
<path d="M33.8017 17.4506C33.7807 17.4506 33.763 17.4605 33.7425 17.4625C33.6491 17.4493 33.5531 17.4509 33.4578 17.4832L18.4694 22.5369C18.1929 22.6303 18.0364 22.8984 18.0573 23.1763C18.0548 23.1992 18.0439 23.219 18.0439 23.2425V37.9727C17.3056 37.2522 16.3016 36.8063 15.1948 36.8063C12.9347 36.8063 11.0957 38.6578 11.0957 40.9338C11.0957 43.2095 12.9347 45.061 15.1948 45.061C17.455 45.061 19.2939 43.2095 19.2939 40.9338C19.2939 40.8676 19.2872 40.8031 19.2841 40.7376C19.2854 40.7207 19.2939 40.7061 19.2939 40.6888V28.9474L33.1767 24.2662V34.6998C32.4408 33.9814 31.441 33.5367 30.3389 33.5367C28.0848 33.5367 26.251 35.3882 26.251 37.6642C26.251 39.9399 28.0848 41.7914 30.3389 41.7914C32.5929 41.7914 34.4267 39.9399 34.4267 37.6642C34.4267 37.6313 34.4226 37.5995 34.4218 37.5669C34.4222 37.5584 34.4267 37.5513 34.4267 37.5427V18.0756C34.4267 17.7304 34.1469 17.4506 33.8017 17.4506ZM15.1948 43.811C13.6238 43.811 12.3457 42.5204 12.3457 40.9338C12.3457 39.3472 13.6238 38.0563 15.1948 38.0563C16.7659 38.0563 18.0439 39.3472 18.0439 40.9338C18.0439 42.5204 16.7659 43.811 15.1948 43.811ZM19.2939 27.6281V23.5782L33.1767 18.8972V22.9469L19.2939 27.6281ZM30.3389 40.5414C28.7742 40.5414 27.501 39.2508 27.501 37.6642C27.501 36.0776 28.7742 34.7867 30.3389 34.7867C31.9035 34.7867 33.1767 36.0776 33.1767 37.6642C33.1767 39.2508 31.9035 40.5414 30.3389 40.5414Z" fill="white"/>
<path d="M4.625 50H42.0981C42.4433 50 42.7231 49.7202 42.7231 49.375V9.17419C42.7231 9.08623 42.7042 9.00303 42.6714 8.92712C42.6636 8.90911 42.6481 8.89584 42.6387 8.87859C42.608 8.82271 42.5749 8.76873 42.5292 8.7249C42.5262 8.722 42.5251 8.71773 42.522 8.7149L33.2538 0.16571C33.1382 0.0592041 32.9871 0 32.83 0H4.625C4.27985 0 4 0.279846 4 0.625V49.375C4 49.7202 4.27985 50 4.625 50ZM33.455 2.05173L40.4988 8.54919H33.455V2.05173ZM5.25 1.25H32.205V9.17419C32.205 9.51935 32.4848 9.79919 32.83 9.79919H41.4731V48.75H5.25V1.25Z" fill="white"/>
<path d="M10.2949 7.09106H27.1162C27.4614 7.09106 27.7412 6.81122 27.7412 6.46606C27.7412 6.12091 27.4614 5.84106 27.1162 5.84106H10.2949C9.94977 5.84106 9.66992 6.12091 9.66992 6.46606C9.66992 6.81122 9.94977 7.09106 10.2949 7.09106Z" fill="white"/>
<path d="M27.7412 12.5234C27.7412 12.1783 27.4614 11.8984 27.1162 11.8984H10.2949C9.94977 11.8984 9.66992 12.1783 9.66992 12.5234C9.66992 12.8686 9.94977 13.1484 10.2949 13.1484H27.1162C27.4614 13.1484 27.7412 12.8686 27.7412 12.5234Z" fill="white"/>
</g>
<defs>
<filter id="filter0_d" x="0" y="0" width="46.7231" height="58" filterUnits="userSpaceOnUse" color-interpolation-filters="sRGB">
<feFlood flood-opacity="0" result="BackgroundImageFix"/>
<feColorMatrix in="SourceAlpha" type="matrix" values="0 0 0 0 0 0 0 0 0 0 0 0 0 0 0 0 0 0 127 0" result="hardAlpha"/>
<feOffset dy="4"/>
<feGaussianBlur stdDeviation="2"/>
<feComposite in2="hardAlpha" operator="out"/>
<feColorMatrix type="matrix" values="0 0 0 0 0 0 0 0 0 0 0 0 0 0 0 0 0 0 0.25 0"/>
<feBlend mode="normal" in2="BackgroundImageFix" result="effect1_dropShadow"/>
<feBlend mode="normal" in="SourceGraphic" in2="effect1_dropShadow" result="shape"/>
</filter>
</defs>
</svg>
