<svg width="24" height="25" viewBox="0 0 24 25" fill="none" xmlns="http://www.w3.org/2000/svg">
<path d="M5.83696 23.0824C4.75678 24.1626 2.99878 24.1626 1.91804 23.0824C0.83785 22.0022 0.83785 20.2436 1.91804 19.1635L3.87778 17.2043C3.98197 17.3085 4.12274 17.3667 4.27017 17.3667C4.41704 17.3667 4.55836 17.3085 4.66201 17.2043L5.83752 16.0282L6.22936 16.42C6.33743 16.5281 6.47931 16.5824 6.62119 16.5824C6.75531 16.5824 6.88944 16.5342 6.99585 16.4367L16.4016 7.81569C16.4199 7.79906 16.4282 7.77689 16.4432 7.75805C17.4707 7.7514 18.4351 7.34958 19.1617 6.62299C19.8943 5.89031 20.2984 4.91598 20.2984 3.87958C20.2984 2.84318 19.8943 1.8694 19.1617 1.13616C18.429 0.402922 17.4552 0 16.4188 0C15.3824 0 14.4086 0.403476 13.6759 1.13616C12.9488 1.86331 12.547 2.82821 12.5403 3.85519C12.522 3.87071 12.5004 3.87847 12.4832 3.89676L3.86115 13.302C3.66052 13.5209 3.66773 13.8584 3.87778 14.0685L4.26961 14.4603L3.0941 15.6358C2.8774 15.8525 2.8774 16.2028 3.0941 16.4195V16.42L1.13436 18.3792C-0.37812 19.8917 -0.37812 22.353 1.13436 23.8655C1.89088 24.6215 2.8846 25 3.87778 25C4.87095 25 5.86467 24.6215 6.62064 23.8655C7.70138 22.7859 9.45938 22.7848 10.5396 23.8655C10.6476 23.9736 10.7895 24.0279 10.9314 24.0279C11.0733 24.0279 11.2152 23.9736 11.3232 23.8655C11.5399 23.6488 11.5399 23.2985 11.3232 23.0818C9.81131 21.5699 7.34944 21.5699 5.83696 23.0824ZM14.4585 1.91984C14.9817 1.39665 15.6778 1.10845 16.4177 1.10845C17.1576 1.10845 17.8537 1.39665 18.3769 1.91984C18.9001 2.44303 19.1888 3.13913 19.1888 3.87958C19.1888 4.62002 18.9001 5.31558 18.3769 5.83932C17.8537 6.36306 17.1576 6.65071 16.4177 6.65071C15.6778 6.65071 14.9817 6.36251 14.4585 5.83932C13.9353 5.31613 13.6466 4.62002 13.6466 3.87958C13.6466 3.13913 13.9353 2.44358 14.4585 1.91984ZM12.7781 5.21526C12.9698 5.73734 13.2697 6.21841 13.6748 6.62299C14.08 7.02813 14.5605 7.32852 15.0826 7.51973L13.9979 8.51346L11.7838 6.29933L12.7781 5.21526ZM11.0345 7.11736L13.1805 9.26332L6.63727 15.2606L5.03666 13.6594L11.0345 7.11736Z" fill="white"/>
<path d="M23.4098 13.794C23.2751 13.6887 23.0989 13.6499 22.9348 13.6932L18.501 14.8016C18.2544 14.8631 18.0809 15.0848 18.0809 15.3392V19.3213C17.9069 19.2592 17.7223 19.2188 17.5267 19.2188C16.61 19.2188 15.864 19.9648 15.864 20.8815C15.864 21.7982 16.61 22.5441 17.5267 22.5441C18.4434 22.5441 19.1894 21.7982 19.1894 20.8815V15.7721L22.5147 14.9407V18.2123C22.3407 18.1502 22.1561 18.1098 21.9605 18.1098C21.0438 18.1098 20.2978 18.8558 20.2978 19.7725C20.2978 20.6892 21.0438 21.4351 21.9605 21.4351C22.8772 21.4351 23.6232 20.6892 23.6232 19.7725V14.2302C23.6226 14.0601 23.5445 13.8988 23.4098 13.794ZM17.5261 21.4357C17.2202 21.4357 16.9719 21.1874 16.9719 20.8815C16.9719 20.5755 17.2202 20.3272 17.5261 20.3272C17.8321 20.3272 18.0804 20.5755 18.0804 20.8815C18.0804 21.1874 17.8321 21.4357 17.5261 21.4357ZM21.9599 20.3272C21.654 20.3272 21.4057 20.0789 21.4057 19.773C21.4057 19.4671 21.654 19.2188 21.9599 19.2188C22.2659 19.2188 22.5142 19.4671 22.5142 19.773C22.5142 20.0789 22.2659 20.3272 21.9599 20.3272Z" fill="white"/>
</svg>
