<svg width="21" height="21" viewBox="0 0 21 21" fill="none" xmlns="http://www.w3.org/2000/svg">
<path d="M7.64921 20.4003C8.55047 20.4003 9.28109 19.6384 9.28109 18.6987C9.28109 17.7589 8.55047 16.9971 7.64921 16.9971C6.74795 16.9971 6.01733 17.7589 6.01733 18.6987C6.01733 19.6384 6.74795 20.4003 7.64921 20.4003Z" fill="#4E5E77"/>
<path d="M16.1351 20.4003C17.0363 20.4003 17.7669 19.6384 17.7669 18.6987C17.7669 17.7589 17.0363 16.9971 16.1351 16.9971C15.2338 16.9971 14.5032 17.7589 14.5032 18.6987C14.5032 19.6384 15.2338 20.4003 16.1351 20.4003Z" fill="#4E5E77"/>
<path d="M20.4433 2.96883C20.3825 2.88646 20.3044 2.81971 20.215 2.7737C20.1256 2.72768 20.0273 2.70363 19.9276 2.70338H4.84906L4.55532 1.73007C4.52306 1.62556 4.46703 1.53075 4.39201 1.45371C4.31699 1.37667 4.22521 1.3197 4.12451 1.28766L1.44822 0.430057C1.36593 0.403689 1.27946 0.39448 1.19376 0.402957C1.10805 0.411433 1.02479 0.437428 0.948719 0.479458C0.795088 0.564341 0.680088 0.709384 0.629018 0.882679C0.577947 1.05597 0.594989 1.24333 0.676395 1.40352C0.757801 1.56371 0.896902 1.68362 1.0631 1.73688L3.40648 2.48557L6.39609 12.3344L5.3321 13.2464L5.24724 13.3349C4.98412 13.6526 4.83504 14.0558 4.82551 14.4754C4.81599 14.8951 4.94661 15.3051 5.19502 15.6354C5.37294 15.861 5.59902 16.0401 5.85518 16.1583C6.11134 16.2765 6.39047 16.3305 6.67024 16.3161H17.5647C17.7378 16.3161 17.9038 16.2444 18.0262 16.1167C18.1487 15.9891 18.2174 15.816 18.2174 15.6354C18.2174 15.4549 18.1487 15.2818 18.0262 15.1542C17.9038 15.0265 17.7378 14.9548 17.5647 14.9548H6.5658C6.49064 14.9521 6.4174 14.9293 6.35317 14.8885C6.28895 14.8477 6.2359 14.7903 6.19915 14.7219C6.1624 14.6534 6.1432 14.5763 6.14339 14.4979C6.14359 14.4194 6.16317 14.3424 6.20026 14.2742L7.77339 12.9129H17.8454C17.9945 12.9174 18.1406 12.8686 18.2593 12.7745C18.3781 12.6803 18.4624 12.5466 18.4981 12.3956L20.5869 3.54737C20.6068 3.44589 20.6042 3.34104 20.5793 3.24078C20.5544 3.14053 20.5079 3.04751 20.4433 2.96883Z" fill="#4E5E77"/>
</svg>
