<svg width="312" height="198" viewBox="0 0 312 198" fill="none" xmlns="http://www.w3.org/2000/svg">
<g filter="url(#filter0_d)">
<path d="M181.636 168.895V177.287H129.924V168.895H4C4 180.501 13.1412 190 24.3146 190H287.682C298.856 190 308 180.504 308 168.895H181.636Z" fill="white"/>
<path d="M281.917 164.332H28.4524V17.347C28.4524 4.61751 38.4238 0 45.1334 0H265.236C277.478 0 281.917 10.3805 281.917 17.347V164.332ZM40.5643 151.738H269.805V17.347C269.662 12.5944 266.329 12.5944 265.236 12.5944H45.1922C40.5643 12.7424 40.5643 16.2047 40.5643 17.347V151.738Z" fill="white"/>
</g>
<g filter="url(#filter1_d)">
<path d="M188.236 82.5451C188.236 100.995 173.852 115.853 156.227 115.853C138.602 115.853 124.218 100.995 124.218 82.5451C124.218 64.0952 138.602 49.2369 156.227 49.2369C173.852 49.2369 188.236 64.0952 188.236 82.5451Z" stroke="#FDECAE" stroke-width="3"/>
<path d="M148.153 67.9682L172.458 82.5451L148.153 97.1221L148.153 67.9682Z" stroke="#FDECAE" stroke-width="3"/>
</g>
<defs>
<filter id="filter0_d" x="0" y="0" width="312" height="198" filterUnits="userSpaceOnUse" color-interpolation-filters="sRGB">
<feFlood flood-opacity="0" result="BackgroundImageFix"/>
<feColorMatrix in="SourceAlpha" type="matrix" values="0 0 0 0 0 0 0 0 0 0 0 0 0 0 0 0 0 0 127 0" result="hardAlpha"/>
<feOffset dy="4"/>
<feGaussianBlur stdDeviation="2"/>
<feComposite in2="hardAlpha" operator="out"/>
<feColorMatrix type="matrix" values="0 0 0 0 0 0 0 0 0 0 0 0 0 0 0 0 0 0 0.25 0"/>
<feBlend mode="normal" in2="BackgroundImageFix" result="effect1_dropShadow"/>
<feBlend mode="normal" in="SourceGraphic" in2="effect1_dropShadow" result="shape"/>
</filter>
<filter id="filter1_d" x="118.718" y="47.7369" width="75.0181" height="77.6164" filterUnits="userSpaceOnUse" color-interpolation-filters="sRGB">
<feFlood flood-opacity="0" result="BackgroundImageFix"/>
<feColorMatrix in="SourceAlpha" type="matrix" values="0 0 0 0 0 0 0 0 0 0 0 0 0 0 0 0 0 0 127 0" result="hardAlpha"/>
<feOffset dy="4"/>
<feGaussianBlur stdDeviation="2"/>
<feComposite in2="hardAlpha" operator="out"/>
<feColorMatrix type="matrix" values="0 0 0 0 0 0 0 0 0 0 0 0 0 0 0 0 0 0 0.25 0"/>
<feBlend mode="normal" in2="BackgroundImageFix" result="effect1_dropShadow"/>
<feBlend mode="normal" in="SourceGraphic" in2="effect1_dropShadow" result="shape"/>
</filter>
</defs>
</svg>
