<svg width="100" height="100" viewBox="0 0 100 100" fill="none" xmlns="http://www.w3.org/2000/svg">
<path d="M42.0079 78.5236C42.0079 80.8649 43.9122 82.7698 46.2535 82.7698H48.3639C48.9162 82.7698 49.3639 83.2175 49.3639 83.7698V89.1614C49.3639 89.8517 49.923 90.4114 50.6139 90.4114C51.3048 90.4114 51.8639 89.8517 51.8639 89.1614V83.7698C51.8639 83.2175 52.3116 82.7698 52.8639 82.7698H54.9742C57.3156 82.7698 59.2199 80.8649 59.2199 78.5236V76.8323C59.2199 74.491 57.3156 72.5867 54.9742 72.5867H52.8639C52.3116 72.5867 51.8639 72.139 51.8639 71.5867V10.8374C51.8639 10.1471 51.3048 9.5874 50.6139 9.5874C49.923 9.5874 49.3639 10.1471 49.3639 10.8374V71.5867C49.3639 72.139 48.9162 72.5867 48.3639 72.5867H46.2535C43.9122 72.5867 42.0079 74.491 42.0079 76.8323V78.5236ZM44.5079 76.8323C44.5079 75.8698 45.2904 75.0867 46.2535 75.0867H54.9742C55.9374 75.0867 56.7198 75.8698 56.7198 76.8323V78.5236C56.7198 79.4867 55.9374 80.2698 54.9742 80.2698H46.2535C45.2904 80.2698 44.5079 79.4867 44.5079 78.5236V76.8323Z" fill="white"/>
<path d="M77.6149 19.0088H86.3356C88.6769 19.0088 90.5812 17.1039 90.5812 14.7626V13.0713C90.5812 10.73 88.6769 8.82568 86.3356 8.82568H77.6149C75.2736 8.82568 73.3693 10.73 73.3693 13.0713V14.7626C73.3693 17.1039 75.2736 19.0088 77.6149 19.0088ZM75.8693 13.0713C75.8693 12.1088 76.6517 11.3257 77.6149 11.3257H86.3356C87.2987 11.3257 88.0812 12.1088 88.0812 13.0713V14.7626C88.0812 15.7257 87.2987 16.5088 86.3356 16.5088H77.6149C76.6517 16.5088 75.8693 15.7257 75.8693 14.7626V13.0713Z" fill="white"/>
<path d="M77.6149 36.9379H86.3356C88.6769 36.9379 90.5812 35.0336 90.5812 32.6923V31.001C90.5812 28.6597 88.6769 26.7554 86.3356 26.7554H77.6149C75.2736 26.7554 73.3693 28.6597 73.3693 31.001V32.6923C73.3693 35.0336 75.2736 36.9379 77.6149 36.9379ZM75.8693 31.001C75.8693 30.0385 76.6517 29.2554 77.6149 29.2554H86.3356C87.2987 29.2554 88.0812 30.0385 88.0812 31.001V32.6923C88.0812 33.6548 87.2987 34.4379 86.3356 34.4379H77.6149C76.6517 34.4379 75.8693 33.6548 75.8693 32.6923V31.001Z" fill="white"/>
<path d="M77.6149 54.8682H86.3356C88.6769 54.8682 90.5812 52.9639 90.5812 50.6226V48.9313C90.5812 46.59 88.6769 44.6851 86.3356 44.6851H77.6149C75.2736 44.6851 73.3693 46.59 73.3693 48.9313V50.6226C73.3693 52.9639 75.2736 54.8682 77.6149 54.8682ZM75.8693 48.9313C75.8693 47.9681 76.6517 47.1851 77.6149 47.1851H86.3356C87.2987 47.1851 88.0812 47.9681 88.0812 48.9313V50.6226C88.0812 51.5851 87.2987 52.3682 86.3356 52.3682H77.6149C76.6517 52.3682 75.8693 51.5851 75.8693 50.6226V48.9313Z" fill="white"/>
<path d="M77.6149 72.7974H86.3356C88.6769 72.7974 90.5812 70.8931 90.5812 68.5518V66.8605C90.5812 64.5192 88.6769 62.6143 86.3356 62.6143H77.6149C75.2736 62.6143 73.3693 64.5192 73.3693 66.8605V68.5518C73.3693 70.8931 75.2736 72.7974 77.6149 72.7974ZM75.8693 66.8605C75.8693 65.8973 76.6517 65.1143 77.6149 65.1143H86.3356C87.2987 65.1143 88.0812 65.8973 88.0812 66.8605V68.5518C88.0812 69.5143 87.2987 70.2974 86.3356 70.2974H77.6149C76.6517 70.2974 75.8693 69.5143 75.8693 68.5518V66.8605Z" fill="white"/>
<path d="M77.6149 90.7275H86.3356C88.6769 90.7275 90.5812 88.8232 90.5812 86.4819V84.7906C90.5812 82.4493 88.6769 80.5444 86.3356 80.5444H77.6149C75.2736 80.5444 73.3693 82.4493 73.3693 84.7906V86.4819C73.3693 88.8232 75.2736 90.7275 77.6149 90.7275ZM75.8693 84.7906C75.8693 83.8275 76.6517 83.0444 77.6149 83.0444H86.3356C87.2987 83.0444 88.0812 83.8275 88.0812 84.7906V86.4819C88.0812 87.4445 87.2987 88.2275 86.3356 88.2275H77.6149C76.6517 88.2275 75.8693 87.4445 75.8693 86.4819V84.7906Z" fill="white"/>
<path d="M30.0255 26.5198H32.1359C32.6881 26.5198 33.1359 26.9675 33.1359 27.5198V89.1614C33.1359 89.8517 33.6949 90.4114 34.3859 90.4114C35.0768 90.4114 35.6359 89.8517 35.6359 89.1614V27.5198C35.6359 26.9675 36.0836 26.5198 36.6359 26.5198H38.7462C41.0875 26.5198 42.9918 24.6149 42.9918 22.2736V20.5823C42.9918 18.241 41.0875 16.3367 38.7462 16.3367H36.6359C36.0836 16.3367 35.6359 15.889 35.6359 15.3367V10.8374C35.6359 10.1471 35.0768 9.5874 34.3859 9.5874C33.6949 9.5874 33.1359 10.1471 33.1359 10.8374V15.3367C33.1359 15.889 32.6881 16.3367 32.1359 16.3367H30.0255C27.6842 16.3367 25.7799 18.241 25.7799 20.5823V22.2736C25.7799 24.6149 27.6842 26.5198 30.0255 26.5198ZM28.2799 20.5823C28.2799 19.6198 29.0624 18.8367 30.0255 18.8367H38.7462C39.7094 18.8367 40.4918 19.6198 40.4918 20.5823V22.2736C40.4918 23.2367 39.7094 24.0198 38.7462 24.0198H30.0255C29.0624 24.0198 28.2799 23.2367 28.2799 22.2736V20.5823Z" fill="white"/>
<path d="M13.7977 37.7698H15.908C16.4603 37.7698 16.908 38.2175 16.908 38.7698V89.1614C16.908 89.8517 17.4671 90.4114 18.158 90.4114C18.8489 90.4114 19.408 89.8517 19.408 89.1614V38.7698C19.408 38.2175 19.8557 37.7698 20.408 37.7698H22.5184C24.8597 37.7698 26.764 35.8649 26.764 33.5236V31.8323C26.764 29.491 24.8597 27.5867 22.5184 27.5867H20.408C19.8557 27.5867 19.408 27.139 19.408 26.5867V10.8374C19.408 10.1471 18.8489 9.5874 18.158 9.5874C17.4671 9.5874 16.908 10.1471 16.908 10.8374V26.5867C16.908 27.139 16.4603 27.5867 15.908 27.5867H13.7977C11.4564 27.5867 9.55206 29.491 9.55206 31.8323V33.5236C9.55206 35.8649 11.4564 37.7698 13.7977 37.7698ZM12.0521 31.8323C12.0521 30.8698 12.8345 30.0867 13.7977 30.0867H22.5184C23.4815 30.0867 24.264 30.8698 24.264 31.8323V33.5236C24.264 34.4867 23.4815 35.2698 22.5184 35.2698H13.7977C12.8345 35.2698 12.0521 34.4867 12.0521 33.5236V31.8323Z" fill="white"/>
<path d="M6.48926 100H93.5107C97.0886 100 100 97.0892 100 93.5107V6.48926C100 2.91077 97.0886 0 93.5107 0H6.48926C2.91138 0 0 2.91077 0 6.48926V93.5107C0 97.0892 2.91138 100 6.48926 100ZM97.5 6.48926V93.5107C97.5 95.7104 95.7104 97.5 93.5107 97.5H68.5452C67.9929 97.5 67.5452 97.0523 67.5452 96.5V3.5C67.5452 2.94771 67.9929 2.5 68.5452 2.5H93.5107C95.7104 2.5 97.5 4.28955 97.5 6.48926ZM2.5 6.48926C2.5 4.28955 4.28955 2.5 6.48926 2.5H64.0452C64.5975 2.5 65.0452 2.94772 65.0452 3.5V96.5C65.0452 97.0523 64.5975 97.5 64.0452 97.5H6.48926C4.28955 97.5 2.5 95.7104 2.5 93.5107V6.48926Z" fill="white"/>
</svg>
