<svg width="731" height="580" viewBox="0 0 731 580" fill="none" xmlns="http://www.w3.org/2000/svg">
<path d="M9.52031 565.361C9.52031 566.631 9.30352 567.574 8.86992 568.191C8.43633 568.809 7.75859 569.117 6.83672 569.117C5.92656 569.117 5.25273 568.816 4.81523 568.215C4.37773 567.609 4.15117 566.707 4.13555 565.508V564.061C4.13555 562.807 4.35234 561.875 4.78594 561.266C5.21953 560.656 5.89922 560.352 6.825 560.352C7.74297 560.352 8.41875 560.646 8.85234 561.236C9.28594 561.822 9.50859 562.729 9.52031 563.955V565.361ZM8.43633 563.879C8.43633 562.961 8.30742 562.293 8.04961 561.875C7.7918 561.453 7.38359 561.242 6.825 561.242C6.27031 561.242 5.86602 561.451 5.61211 561.869C5.3582 562.287 5.22734 562.93 5.21953 563.797V565.531C5.21953 566.453 5.35234 567.135 5.61797 567.576C5.8875 568.014 6.29375 568.232 6.83672 568.232C7.37187 568.232 7.76836 568.025 8.02617 567.611C8.28789 567.197 8.42461 566.545 8.43633 565.654V563.879ZM15.0715 569H13.9816V561.775L11.7961 562.578V561.594L14.9016 560.428H15.0715V569Z" fill="white"/>
<path d="M74.0203 565.361C74.0203 566.631 73.8035 567.574 73.3699 568.191C72.9363 568.809 72.2586 569.117 71.3367 569.117C70.4266 569.117 69.7527 568.816 69.3152 568.215C68.8777 567.609 68.6512 566.707 68.6355 565.508V564.061C68.6355 562.807 68.8523 561.875 69.2859 561.266C69.7195 560.656 70.3992 560.352 71.325 560.352C72.243 560.352 72.9187 560.646 73.3523 561.236C73.7859 561.822 74.0086 562.729 74.0203 563.955V565.361ZM72.9363 563.879C72.9363 562.961 72.8074 562.293 72.5496 561.875C72.2918 561.453 71.8836 561.242 71.325 561.242C70.7703 561.242 70.366 561.451 70.1121 561.869C69.8582 562.287 69.7273 562.93 69.7195 563.797V565.531C69.7195 566.453 69.8523 567.135 70.118 567.576C70.3875 568.014 70.7937 568.232 71.3367 568.232C71.8719 568.232 72.2684 568.025 72.5262 567.611C72.7879 567.197 72.9246 566.545 72.9363 565.654V563.879ZM81.5988 569H76.009V568.221L78.9621 564.939C79.3996 564.443 79.7004 564.041 79.8645 563.732C80.0324 563.42 80.1164 563.098 80.1164 562.766C80.1164 562.32 79.9816 561.955 79.7121 561.67C79.4426 561.385 79.0832 561.242 78.634 561.242C78.0949 561.242 77.675 561.396 77.3742 561.705C77.0773 562.01 76.9289 562.436 76.9289 562.982H75.8449C75.8449 562.197 76.0969 561.562 76.6008 561.078C77.1086 560.594 77.7863 560.352 78.634 560.352C79.427 560.352 80.0539 560.561 80.5148 560.979C80.9758 561.393 81.2062 561.945 81.2062 562.637C81.2062 563.477 80.6711 564.477 79.6008 565.637L77.3156 568.115H81.5988V569Z" fill="white"/>
<path d="M138.52 565.361C138.52 566.631 138.304 567.574 137.87 568.191C137.436 568.809 136.759 569.117 135.837 569.117C134.927 569.117 134.253 568.816 133.815 568.215C133.378 567.609 133.151 566.707 133.136 565.508V564.061C133.136 562.807 133.352 561.875 133.786 561.266C134.22 560.656 134.899 560.352 135.825 560.352C136.743 560.352 137.419 560.646 137.852 561.236C138.286 561.822 138.509 562.729 138.52 563.955V565.361ZM137.436 563.879C137.436 562.961 137.307 562.293 137.05 561.875C136.792 561.453 136.384 561.242 135.825 561.242C135.27 561.242 134.866 561.451 134.612 561.869C134.358 562.287 134.227 562.93 134.22 563.797V565.531C134.22 566.453 134.352 567.135 134.618 567.576C134.887 568.014 135.294 568.232 135.837 568.232C136.372 568.232 136.768 568.025 137.026 567.611C137.288 567.197 137.425 566.545 137.436 565.654V563.879ZM142.085 564.207H142.9C143.411 564.199 143.814 564.064 144.107 563.803C144.4 563.541 144.546 563.188 144.546 562.742C144.546 561.742 144.048 561.242 143.052 561.242C142.583 561.242 142.208 561.377 141.927 561.646C141.65 561.912 141.511 562.266 141.511 562.707H140.427C140.427 562.031 140.673 561.471 141.165 561.025C141.661 560.576 142.29 560.352 143.052 560.352C143.857 560.352 144.487 560.564 144.945 560.99C145.402 561.416 145.63 562.008 145.63 562.766C145.63 563.137 145.509 563.496 145.267 563.844C145.029 564.191 144.702 564.451 144.288 564.623C144.757 564.771 145.118 565.018 145.372 565.361C145.63 565.705 145.759 566.125 145.759 566.621C145.759 567.387 145.509 567.994 145.009 568.443C144.509 568.893 143.859 569.117 143.058 569.117C142.257 569.117 141.605 568.9 141.101 568.467C140.601 568.033 140.351 567.461 140.351 566.75H141.441C141.441 567.199 141.587 567.559 141.88 567.828C142.173 568.098 142.566 568.232 143.058 568.232C143.581 568.232 143.982 568.096 144.259 567.822C144.536 567.549 144.675 567.156 144.675 566.645C144.675 566.148 144.523 565.768 144.218 565.502C143.913 565.236 143.474 565.1 142.9 565.092H142.085V564.207Z" fill="white"/>
<path d="M203.02 565.361C203.02 566.631 202.804 567.574 202.37 568.191C201.936 568.809 201.259 569.117 200.337 569.117C199.427 569.117 198.753 568.816 198.315 568.215C197.878 567.609 197.651 566.707 197.636 565.508V564.061C197.636 562.807 197.852 561.875 198.286 561.266C198.72 560.656 199.399 560.352 200.325 560.352C201.243 560.352 201.919 560.646 202.352 561.236C202.786 561.822 203.009 562.729 203.02 563.955V565.361ZM201.936 563.879C201.936 562.961 201.807 562.293 201.55 561.875C201.292 561.453 200.884 561.242 200.325 561.242C199.77 561.242 199.366 561.451 199.112 561.869C198.858 562.287 198.727 562.93 198.72 563.797V565.531C198.72 566.453 198.852 567.135 199.118 567.576C199.387 568.014 199.794 568.232 200.337 568.232C200.872 568.232 201.268 568.025 201.526 567.611C201.788 567.197 201.925 566.545 201.936 565.654V563.879ZM209.585 566.135H210.769V567.02H209.585V569H208.495V567.02H204.611V566.381L208.431 560.469H209.585V566.135ZM205.841 566.135H208.495V561.951L208.366 562.186L205.841 566.135Z" fill="white"/>
<path d="M267.52 565.361C267.52 566.631 267.304 567.574 266.87 568.191C266.436 568.809 265.759 569.117 264.837 569.117C263.927 569.117 263.253 568.816 262.815 568.215C262.378 567.609 262.151 566.707 262.136 565.508V564.061C262.136 562.807 262.352 561.875 262.786 561.266C263.22 560.656 263.899 560.352 264.825 560.352C265.743 560.352 266.419 560.646 266.852 561.236C267.286 561.822 267.509 562.729 267.52 563.955V565.361ZM266.436 563.879C266.436 562.961 266.307 562.293 266.05 561.875C265.792 561.453 265.384 561.242 264.825 561.242C264.27 561.242 263.866 561.451 263.612 561.869C263.358 562.287 263.227 562.93 263.22 563.797V565.531C263.22 566.453 263.352 567.135 263.618 567.576C263.887 568.014 264.294 568.232 264.837 568.232C265.372 568.232 265.768 568.025 266.026 567.611C266.288 567.197 266.425 566.545 266.436 565.654V563.879ZM270.007 564.723L270.441 560.469H274.812V561.471H271.361L271.103 563.797C271.521 563.551 271.995 563.428 272.527 563.428C273.304 563.428 273.921 563.686 274.378 564.201C274.835 564.713 275.064 565.406 275.064 566.281C275.064 567.16 274.825 567.854 274.349 568.361C273.876 568.865 273.214 569.117 272.362 569.117C271.609 569.117 270.993 568.908 270.517 568.49C270.04 568.072 269.769 567.494 269.702 566.756H270.728C270.794 567.244 270.968 567.613 271.249 567.863C271.53 568.109 271.902 568.232 272.362 568.232C272.866 568.232 273.261 568.061 273.546 567.717C273.835 567.373 273.98 566.898 273.98 566.293C273.98 565.723 273.823 565.266 273.511 564.922C273.202 564.574 272.79 564.4 272.275 564.4C271.802 564.4 271.431 564.504 271.161 564.711L270.874 564.945L270.007 564.723Z" fill="white"/>
<path d="M332.02 565.361C332.02 566.631 331.804 567.574 331.37 568.191C330.936 568.809 330.259 569.117 329.337 569.117C328.427 569.117 327.753 568.816 327.315 568.215C326.878 567.609 326.651 566.707 326.636 565.508V564.061C326.636 562.807 326.852 561.875 327.286 561.266C327.72 560.656 328.399 560.352 329.325 560.352C330.243 560.352 330.919 560.646 331.352 561.236C331.786 561.822 332.009 562.729 332.02 563.955V565.361ZM330.936 563.879C330.936 562.961 330.807 562.293 330.55 561.875C330.292 561.453 329.884 561.242 329.325 561.242C328.77 561.242 328.366 561.451 328.112 561.869C327.858 562.287 327.727 562.93 327.72 563.797V565.531C327.72 566.453 327.852 567.135 328.118 567.576C328.387 568.014 328.794 568.232 329.337 568.232C329.872 568.232 330.268 568.025 330.526 567.611C330.788 567.197 330.925 566.545 330.936 565.654V563.879ZM338.263 560.463V561.383H338.064C337.22 561.398 336.548 561.648 336.048 562.133C335.548 562.617 335.259 563.299 335.181 564.178C335.63 563.662 336.243 563.404 337.021 563.404C337.763 563.404 338.355 563.666 338.796 564.189C339.241 564.713 339.464 565.389 339.464 566.217C339.464 567.096 339.224 567.799 338.743 568.326C338.267 568.854 337.626 569.117 336.821 569.117C336.005 569.117 335.343 568.805 334.835 568.18C334.327 567.551 334.073 566.742 334.073 565.754V565.338C334.073 563.768 334.407 562.568 335.075 561.74C335.747 560.908 336.745 560.482 338.07 560.463H338.263ZM336.839 564.307C336.468 564.307 336.126 564.418 335.814 564.641C335.501 564.863 335.284 565.143 335.163 565.479V565.877C335.163 566.58 335.321 567.146 335.638 567.576C335.954 568.006 336.349 568.221 336.821 568.221C337.31 568.221 337.693 568.041 337.97 567.682C338.251 567.322 338.392 566.852 338.392 566.27C338.392 565.684 338.249 565.211 337.964 564.852C337.683 564.488 337.308 564.307 336.839 564.307Z" fill="white"/>
<path d="M393.059 565.361C393.059 566.631 392.842 567.574 392.408 568.191C391.975 568.809 391.297 569.117 390.375 569.117C389.465 569.117 388.791 568.816 388.354 568.215C387.916 567.609 387.689 566.707 387.674 565.508V564.061C387.674 562.807 387.891 561.875 388.324 561.266C388.758 560.656 389.438 560.352 390.363 560.352C391.281 560.352 391.957 560.646 392.391 561.236C392.824 561.822 393.047 562.729 393.059 563.955V565.361ZM391.975 563.879C391.975 562.961 391.846 562.293 391.588 561.875C391.33 561.453 390.922 561.242 390.363 561.242C389.809 561.242 389.404 561.451 389.15 561.869C388.896 562.287 388.766 562.93 388.758 563.797V565.531C388.758 566.453 388.891 567.135 389.156 567.576C389.426 568.014 389.832 568.232 390.375 568.232C390.91 568.232 391.307 568.025 391.564 567.611C391.826 567.197 391.963 566.545 391.975 565.654V563.879ZM400.555 561.078L397.022 569H395.885L399.407 561.359H394.789V560.469H400.555V561.078Z" fill="white"/>
<path d="M461.02 565.361C461.02 566.631 460.804 567.574 460.37 568.191C459.936 568.809 459.259 569.117 458.337 569.117C457.427 569.117 456.753 568.816 456.315 568.215C455.878 567.609 455.651 566.707 455.636 565.508V564.061C455.636 562.807 455.852 561.875 456.286 561.266C456.72 560.656 457.399 560.352 458.325 560.352C459.243 560.352 459.919 560.646 460.352 561.236C460.786 561.822 461.009 562.729 461.02 563.955V565.361ZM459.936 563.879C459.936 562.961 459.807 562.293 459.55 561.875C459.292 561.453 458.884 561.242 458.325 561.242C457.77 561.242 457.366 561.451 457.112 561.869C456.858 562.287 456.727 562.93 456.72 563.797V565.531C456.72 566.453 456.852 567.135 457.118 567.576C457.387 568.014 457.794 568.232 458.337 568.232C458.872 568.232 459.268 568.025 459.526 567.611C459.788 567.197 459.925 566.545 459.936 565.654V563.879ZM468.183 562.695C468.183 563.121 468.07 563.5 467.843 563.832C467.62 564.164 467.318 564.424 466.935 564.611C467.38 564.803 467.732 565.082 467.989 565.449C468.251 565.816 468.382 566.232 468.382 566.697C468.382 567.436 468.132 568.023 467.632 568.461C467.136 568.898 466.482 569.117 465.669 569.117C464.849 569.117 464.191 568.898 463.695 568.461C463.202 568.02 462.956 567.432 462.956 566.697C462.956 566.236 463.081 565.82 463.331 565.449C463.585 565.078 463.935 564.797 464.38 564.605C464.001 564.418 463.702 564.158 463.484 563.826C463.265 563.494 463.155 563.117 463.155 562.695C463.155 561.977 463.386 561.406 463.847 560.984C464.308 560.562 464.915 560.352 465.669 560.352C466.419 560.352 467.025 560.562 467.486 560.984C467.95 561.406 468.183 561.977 468.183 562.695ZM467.298 566.674C467.298 566.197 467.146 565.809 466.841 565.508C466.54 565.207 466.146 565.057 465.657 565.057C465.169 565.057 464.777 565.205 464.48 565.502C464.187 565.799 464.04 566.189 464.04 566.674C464.04 567.158 464.183 567.539 464.468 567.816C464.757 568.094 465.157 568.232 465.669 568.232C466.177 568.232 466.575 568.094 466.864 567.816C467.154 567.535 467.298 567.154 467.298 566.674ZM465.669 561.242C465.243 561.242 464.898 561.375 464.632 561.641C464.37 561.902 464.239 562.26 464.239 562.713C464.239 563.146 464.368 563.498 464.626 563.768C464.888 564.033 465.236 564.166 465.669 564.166C466.103 564.166 466.448 564.033 466.706 563.768C466.968 563.498 467.099 563.146 467.099 562.713C467.099 562.279 466.964 561.926 466.695 561.652C466.425 561.379 466.083 561.242 465.669 561.242Z" fill="white"/>
<path d="M525.52 565.361C525.52 566.631 525.304 567.574 524.87 568.191C524.436 568.809 523.759 569.117 522.837 569.117C521.927 569.117 521.253 568.816 520.815 568.215C520.378 567.609 520.151 566.707 520.136 565.508V564.061C520.136 562.807 520.352 561.875 520.786 561.266C521.22 560.656 521.899 560.352 522.825 560.352C523.743 560.352 524.419 560.646 524.852 561.236C525.286 561.822 525.509 562.729 525.52 563.955V565.361ZM524.436 563.879C524.436 562.961 524.307 562.293 524.05 561.875C523.792 561.453 523.384 561.242 522.825 561.242C522.27 561.242 521.866 561.451 521.612 561.869C521.358 562.287 521.227 562.93 521.22 563.797V565.531C521.22 566.453 521.352 567.135 521.618 567.576C521.887 568.014 522.294 568.232 522.837 568.232C523.372 568.232 523.768 568.025 524.026 567.611C524.288 567.197 524.425 566.545 524.436 565.654V563.879ZM531.663 565.25C531.437 565.52 531.165 565.736 530.849 565.9C530.536 566.064 530.193 566.146 529.818 566.146C529.325 566.146 528.896 566.025 528.529 565.783C528.165 565.541 527.884 565.201 527.685 564.764C527.486 564.322 527.386 563.836 527.386 563.305C527.386 562.734 527.493 562.221 527.708 561.764C527.927 561.307 528.236 560.957 528.634 560.715C529.032 560.473 529.497 560.352 530.029 560.352C530.872 560.352 531.536 560.668 532.021 561.301C532.509 561.93 532.753 562.789 532.753 563.879V564.195C532.753 565.855 532.425 567.068 531.769 567.834C531.112 568.596 530.122 568.986 528.798 569.006H528.587V568.092H528.816C529.71 568.076 530.398 567.844 530.878 567.395C531.359 566.941 531.62 566.227 531.663 565.25ZM529.993 565.25C530.357 565.25 530.691 565.139 530.995 564.916C531.304 564.693 531.529 564.418 531.669 564.09V563.656C531.669 562.945 531.515 562.367 531.206 561.922C530.898 561.477 530.507 561.254 530.034 561.254C529.558 561.254 529.175 561.438 528.886 561.805C528.597 562.168 528.452 562.648 528.452 563.246C528.452 563.828 528.591 564.309 528.868 564.688C529.15 565.062 529.525 565.25 529.993 565.25Z" fill="white"/>
<path d="M588.233 569H587.143V561.775L584.958 562.578V561.594L588.063 560.428H588.233V569ZM597.359 565.361C597.359 566.631 597.142 567.574 596.708 568.191C596.275 568.809 595.597 569.117 594.675 569.117C593.765 569.117 593.091 568.816 592.654 568.215C592.216 567.609 591.989 566.707 591.974 565.508V564.061C591.974 562.807 592.191 561.875 592.624 561.266C593.058 560.656 593.737 560.352 594.663 560.352C595.581 560.352 596.257 560.646 596.691 561.236C597.124 561.822 597.347 562.729 597.359 563.955V565.361ZM596.275 563.879C596.275 562.961 596.146 562.293 595.888 561.875C595.63 561.453 595.222 561.242 594.663 561.242C594.109 561.242 593.704 561.451 593.45 561.869C593.196 562.287 593.066 562.93 593.058 563.797V565.531C593.058 566.453 593.191 567.135 593.456 567.576C593.726 568.014 594.132 568.232 594.675 568.232C595.21 568.232 595.607 568.025 595.864 567.611C596.126 567.197 596.263 566.545 596.275 565.654V563.879Z" fill="white"/>
<path d="M652.733 569H651.643V561.775L649.458 562.578V561.594L652.563 560.428H652.733V569ZM660.071 569H658.982V561.775L656.796 562.578V561.594L659.902 560.428H660.071V569Z" fill="white"/>
<path d="M717.233 569H716.143V561.775L713.958 562.578V561.594L717.063 560.428H717.233V569ZM726.599 569H721.009V568.221L723.962 564.939C724.4 564.443 724.7 564.041 724.864 563.732C725.032 563.42 725.116 563.098 725.116 562.766C725.116 562.32 724.982 561.955 724.712 561.67C724.443 561.385 724.083 561.242 723.634 561.242C723.095 561.242 722.675 561.396 722.374 561.705C722.077 562.01 721.929 562.436 721.929 562.982H720.845C720.845 562.197 721.097 561.562 721.601 561.078C722.109 560.594 722.786 560.352 723.634 560.352C724.427 560.352 725.054 560.561 725.515 560.979C725.976 561.393 726.206 561.945 726.206 562.637C726.206 563.477 725.671 564.477 724.601 565.637L722.316 568.115H726.599V569Z" fill="white"/>
<g filter="url(#filter0_d)">
<path d="M11 6.5C9.61929 6.5 8.5 7.61929 8.5 9C8.5 10.3807 9.61929 11.5 11 11.5V6.5ZM655.5 9L657.723 7.85642C657.295 7.02354 656.437 6.5 655.5 6.5V9ZM715.777 131.644C716.408 132.871 717.916 133.355 719.144 132.723C720.371 132.092 720.855 130.584 720.223 129.356L715.777 131.644ZM11 123.5C9.61929 123.5 8.5 124.619 8.5 126C8.5 127.381 9.61929 128.5 11 128.5V123.5ZM655.5 126L657.752 124.913C657.334 124.049 656.46 123.5 655.5 123.5V126ZM715.748 256.587C716.349 257.83 717.843 258.352 719.087 257.751C720.33 257.151 720.852 255.657 720.252 254.413L715.748 256.587ZM11 246.5C9.61929 246.5 8.5 247.619 8.5 249C8.5 250.381 9.61929 251.5 11 251.5V246.5ZM74 249L76.2083 247.828C75.7746 247.011 74.9251 246.5 74 246.5V249ZM203.5 493L201.292 494.172C201.298 494.183 201.304 494.195 201.31 494.206L203.5 493ZM225.81 538.706C226.476 539.915 227.996 540.356 229.206 539.69C230.415 539.024 230.856 537.504 230.19 536.294L225.81 538.706ZM397.5 493L395.312 491.791C395.308 491.799 395.304 491.806 395.3 491.813L397.5 493ZM463.5 373.5V371C462.59 371 461.752 371.495 461.312 372.291L463.5 373.5ZM593 373.5V376C593.945 376 594.81 375.467 595.234 374.622L593 373.5ZM718.428 3.59705C718.757 2.25629 717.938 0.902079 716.597 0.57234C715.256 0.2426 713.902 1.06219 713.572 2.40295L718.428 3.59705ZM371.3 536.313C370.644 537.529 371.098 539.045 372.313 539.7C373.529 540.356 375.045 539.902 375.7 538.687L371.3 536.313ZM268.5 373.5L270.711 372.334C270.279 371.514 269.428 371 268.5 371V373.5ZM331.5 493L329.289 494.166C329.719 494.982 330.564 495.495 331.487 495.5C332.409 495.505 333.26 495.001 333.699 494.19L331.5 493ZM463.5 249V246.5C462.582 246.5 461.738 247.003 461.301 247.81L463.5 249ZM655.5 373.5L653.266 374.622C653.69 375.467 654.555 376 655.5 376V373.5ZM720.5 376C721.881 376 723 374.881 723 373.5C723 372.119 721.881 371 720.5 371V376ZM593 249L595.234 247.878C594.81 247.033 593.945 246.5 593 246.5V249ZM655.5 249L657.734 250.122C657.818 249.955 657.883 249.779 657.928 249.597L655.5 249ZM722.551 494.429C723.341 493.296 723.062 491.738 721.929 490.949C720.796 490.159 719.238 490.438 718.449 491.571L722.551 494.429ZM687.449 536.071C686.659 537.204 686.938 538.762 688.071 539.551C689.204 540.341 690.762 540.062 691.551 538.929L687.449 536.071ZM203.5 373.5V371C202.59 371 201.752 371.495 201.312 372.291L203.5 373.5ZM137.5 493L135.292 494.173C135.723 494.983 136.562 495.492 137.48 495.5C138.397 495.507 139.245 495.012 139.688 494.209L137.5 493ZM74 373.5L76.2077 372.327C75.7738 371.51 74.9246 371 74 371V373.5ZM11 371C9.61929 371 8.5 372.119 8.5 373.5C8.5 374.881 9.61929 376 11 376V371ZM11 11.5H655.5V6.5H11V11.5ZM653.277 10.1436L715.777 131.644L720.223 129.356L657.723 7.85642L653.277 10.1436ZM11 128.5H655.5V123.5H11V128.5ZM653.248 127.087L715.748 256.587L720.252 254.413L657.752 124.913L653.248 127.087ZM11 251.5H74V246.5H11V251.5ZM71.7917 250.172L201.292 494.172L205.708 491.828L76.2083 247.828L71.7917 250.172ZM201.31 494.206L225.81 538.706L230.19 536.294L205.69 491.794L201.31 494.206ZM399.688 494.209L465.688 374.709L461.312 372.291L395.312 491.791L399.688 494.209ZM463.5 376H593V371H463.5V376ZM395.3 491.813L371.3 536.313L375.7 538.687L399.7 494.187L395.3 491.813ZM266.289 374.666L329.289 494.166L333.711 491.834L270.711 372.334L266.289 374.666ZM333.699 494.19L465.699 250.19L461.301 247.81L329.301 491.81L333.699 494.19ZM655.5 376H720.5V371H655.5V376ZM463.5 251.5H593V246.5H463.5V251.5ZM590.766 250.122L653.266 374.622L657.734 372.378L595.234 247.878L590.766 250.122ZM595.234 374.622L657.734 250.122L653.266 247.878L590.766 372.378L595.234 374.622ZM657.928 249.597L718.428 3.59705L713.572 2.40295L653.072 248.403L657.928 249.597ZM718.449 491.571L687.449 536.071L691.551 538.929L722.551 494.429L718.449 491.571ZM268.5 371H203.5V376H268.5V371ZM201.312 372.291L135.312 491.791L139.688 494.209L205.688 374.709L201.312 372.291ZM139.708 491.827L76.2077 372.327L71.7923 374.673L135.292 494.173L139.708 491.827ZM74 371H11V376H74V371Z" fill="url(#paint0_linear)"/>
</g>
<defs>
<filter id="filter0_d" x="4.5" y="0.499512" width="722.5" height="547.501" filterUnits="userSpaceOnUse" color-interpolation-filters="sRGB">
<feFlood flood-opacity="0" result="BackgroundImageFix"/>
<feColorMatrix in="SourceAlpha" type="matrix" values="0 0 0 0 0 0 0 0 0 0 0 0 0 0 0 0 0 0 127 0" result="hardAlpha"/>
<feOffset dy="4"/>
<feGaussianBlur stdDeviation="2"/>
<feComposite in2="hardAlpha" operator="out"/>
<feColorMatrix type="matrix" values="0 0 0 0 0 0 0 0 0 0 0 0 0 0 0 0 0 0 0.25 0"/>
<feBlend mode="normal" in2="BackgroundImageFix" result="effect1_dropShadow"/>
<feBlend mode="normal" in="SourceGraphic" in2="effect1_dropShadow" result="shape"/>
</filter>
<linearGradient id="paint0_linear" x1="10.5" y1="250" x2="653" y2="250" gradientUnits="userSpaceOnUse">
<stop stop-color="white" stop-opacity="0.2"/>
<stop offset="1" stop-color="#FDECAE"/>
</linearGradient>
</defs>
</svg>
