<svg width="100" height="100" viewBox="0 0 100 100" fill="none" xmlns="http://www.w3.org/2000/svg">
<path d="M50.8832 82.3562C55.2069 82.3562 58.7249 78.8112 58.7249 74.4536C58.7249 74.3279 58.7119 74.2054 58.7061 74.0811C58.7087 74.0487 58.7249 74.021 58.7249 73.9881V51.7332L84.9367 42.8857V62.4682C83.5394 61.1528 81.6718 60.3409 79.6158 60.3409C75.3043 60.3409 71.796 63.8859 71.796 68.2435C71.796 72.6011 75.3043 76.1461 79.6158 76.1461C83.9285 76.1461 87.4367 72.6011 87.4367 68.2435C87.4367 68.1811 87.4289 68.1207 87.4275 68.0586C87.4281 68.0424 87.4367 68.0289 87.4367 68.0125V31.0389C87.4367 30.3473 86.8776 29.7876 86.1867 29.7876C86.1479 29.7876 86.1152 29.8062 86.0773 29.8097C85.8922 29.7845 85.702 29.789 85.5129 29.8536L57.0758 39.4523C56.5256 39.6373 56.2128 40.1694 56.251 40.7232C56.2462 40.7679 56.2249 40.8068 56.2249 40.8527V68.6839C54.8231 67.3645 52.9478 66.5498 50.8832 66.5498C46.5595 66.5498 43.0415 70.096 43.0415 74.4536C43.0415 78.8112 46.5595 82.3562 50.8832 82.3562ZM58.7249 49.0931V41.5358L84.9367 32.6882V40.2455L58.7249 49.0931ZM79.6158 73.6435C76.6824 73.6435 74.296 71.2215 74.296 68.2435C74.296 65.2655 76.6824 62.8435 79.6158 62.8435C82.5503 62.8435 84.9367 65.2655 84.9367 68.2435C84.9367 71.2215 82.5503 73.6435 79.6158 73.6435ZM50.8832 69.0525C53.8287 69.0525 56.2249 71.4757 56.2249 74.4536C56.2249 77.4316 53.8287 79.8536 50.8832 79.8536C47.9377 79.8536 45.5415 77.4316 45.5415 74.4536C45.5415 71.4757 47.9377 69.0525 50.8832 69.0525Z" fill="white"/>
<path d="M1.24998 89.5862H30.9164V98.7487C30.9164 99.4403 31.4754 100 32.1664 100H98.75C99.4409 100 100 99.4403 100 98.7487V11.6663C100 10.9747 99.4409 10.415 98.75 10.415H69.0836V1.25131C69.0836 0.55967 68.5246 0 67.8336 0H1.24998C0.559075 0 0 0.55967 0 1.25131V88.3349C0 89.0266 0.559075 89.5862 1.24998 89.5862ZM87.0473 97.4974L97.5 87.0335V97.4974H87.0473ZM85.6191 95.3882V85.748H95.2491L85.6191 95.3882ZM97.5 83.2453H84.3691C83.6782 83.2453 83.1191 83.805 83.1191 84.4967V97.4974H33.4163V12.9176H97.5V83.2453ZM2.49997 2.50263H66.5837V10.415H32.1664C31.4754 10.415 30.9164 10.9747 30.9164 11.6663V14.7946H12.9942C12.3033 14.7946 11.7442 15.3543 11.7442 16.0459C11.7442 16.7375 12.3033 17.2972 12.9942 17.2972H30.9164V23.2446H12.9942C12.3033 23.2446 11.7442 23.8043 11.7442 24.4959C11.7442 25.1876 12.3033 25.7472 12.9942 25.7472H30.9164V31.6934H12.9942C12.3033 31.6934 11.7442 32.2531 11.7442 32.9447C11.7442 33.6364 12.3033 34.1961 12.9942 34.1961H30.9164V40.1435H12.9942C12.3033 40.1435 11.7442 40.7031 11.7442 41.3948C11.7442 42.0864 12.3033 42.6461 12.9942 42.6461H30.9164V87.0836H2.49997V2.50263Z" fill="white"/>
<path d="M12.9939 66.5641H21.5619C22.2528 66.5641 22.8119 66.0045 22.8119 65.3128C22.8119 64.6212 22.2528 64.0615 21.5619 64.0615H12.9939C12.303 64.0615 11.7439 64.6212 11.7439 65.3128C11.7439 66.0045 12.303 66.5641 12.9939 66.5641Z" fill="white"/>
<path d="M21.5619 72.5107H12.9939C12.303 72.5107 11.7439 73.0704 11.7439 73.7621C11.7439 74.4537 12.303 75.0134 12.9939 75.0134H21.5619C22.2528 75.0134 22.8119 74.4537 22.8119 73.7621C22.8119 73.0704 22.2528 72.5107 21.5619 72.5107Z" fill="white"/>
</svg>
