<svg width="35" height="30" viewBox="0 0 35 30" fill="none" xmlns="http://www.w3.org/2000/svg">
<path d="M32.0833 10.935C34.0667 12.6751 35 14.0036 35 15C35 15.9964 34.0375 17.3249 32.0833 19.065C26.6729 23.7798 14.5833 30.5813 9.47917 29.9603C7.9948 29.7972 6.56997 29.2908 5.31978 28.4818C4.06958 27.6728 3.02907 26.584 2.28229 25.3033C0.7875 22.8773 -4.58809e-07 19.6065 -6.24229e-07 15.8592L-6.62158e-07 15L-6.99768e-07 14.148C-8.65507e-07 10.3935 0.787499 7.12277 2.28229 4.69678C3.02907 3.41609 4.06958 2.32727 5.31977 1.51828C6.56997 0.709293 7.9948 0.202806 9.47917 0.0397392C14.5833 -0.581198 26.6729 6.22024 32.0833 10.935Z" fill="#FDECAE"/>
</svg>
