<svg width="35" height="30" viewBox="0 0 35 30" fill="none" xmlns="http://www.w3.org/2000/svg">
<path d="M2.91667 19.065C0.933333 17.3249 2.11843e-06 15.9964 1.98647e-06 15C1.85452e-06 14.0036 0.962499 12.6751 2.91667 10.935C8.32708 6.22019 20.4167 -0.581252 25.5208 0.0396864C27.0052 0.202753 28.43 0.709238 29.6802 1.51823C30.9304 2.32722 31.9709 3.41603 32.7177 4.69672C34.2125 7.12272 35 10.3935 35 14.1408L35 15L35 15.852C35 19.6065 34.2125 22.8772 32.7177 25.3032C31.9709 26.5839 30.9304 27.6727 29.6802 28.4817C28.43 29.2907 27.0052 29.7972 25.5208 29.9603C20.4167 30.5812 8.32709 23.7798 2.91667 19.065Z" fill="#FDECAE"/>
</svg>
