<svg width="1083" height="1580" viewBox="0 0 1083 1580" fill="none" xmlns="http://www.w3.org/2000/svg">
<rect width="1083" height="1580" fill="white"/>
<path fill-rule="evenodd" clip-rule="evenodd" d="M734.566 136.376C734.568 123.095 728.373 111.042 719.657 102.326C715.4 97.9119 710.288 94.4104 704.633 92.0347C698.979 89.659 692.899 88.4589 686.765 88.5073L588.762 88.5265C582.467 88.501 576.229 89.7224 570.408 92.1202C564.587 94.5179 559.297 98.0446 554.845 102.497C550.393 106.949 546.867 112.238 544.469 118.059C542.071 123.881 540.85 130.119 540.875 136.414L541.959 165.154L530.245 166.246C527.015 166.176 523.804 166.761 520.805 167.965C517.807 169.17 515.083 170.969 512.798 173.254C510.513 175.539 508.714 178.262 507.51 181.261C506.306 184.259 505.721 187.47 505.79 190.7C505.783 197.48 508.449 203.989 513.21 208.815C515.439 211.005 518.103 212.703 521.03 213.8C523.957 214.896 527.081 215.366 530.201 215.179L541.949 216.232L541.946 233.259L530.232 234.351C527.002 234.281 523.791 234.866 520.792 236.07C517.794 237.275 515.07 239.074 512.785 241.359C510.5 243.644 508.701 246.367 507.497 249.366C506.292 252.364 505.707 255.575 505.777 258.805C505.77 265.585 508.436 272.094 513.197 276.92C515.426 279.11 518.09 280.808 521.017 281.905C523.943 283.001 527.068 283.471 530.188 283.284L541.936 284.337L541.899 297.107C541.896 314.746 551.223 329.183 565.319 337.557L565.261 635.516C481.627 641.117 354.503 670.529 331.119 795.166C321.93 844.04 339.158 878.892 355.243 911.431C367.142 935.503 378.416 958.31 377.904 984.591C377.367 1011.1 358.999 1037.57 336.466 1070.05C299.867 1122.81 252.278 1191.4 252.256 1301.71C252.243 1368.8 275.559 1422.9 316.107 1463.45C383.416 1530.76 498.643 1561.93 637.442 1559.18C859.974 1563.52 1022.73 1479.76 1022.73 1301.56C1022.77 1191.2 975.168 1122.59 938.577 1069.84C916.063 1037.39 897.718 1010.95 897.204 984.489C896.675 958.218 907.538 935.419 918.994 911.377C934.519 878.796 951.132 843.931 941.952 795.046C934.741 756.773 918.572 726.98 896.204 704.612C845.782 654.19 767.634 639.324 709.984 635.488L710.043 337.529C717.191 333.474 723.131 327.589 727.25 320.477C731.369 313.366 733.519 305.286 733.479 297.07L733.447 284.3L745.127 283.242C748.369 283.321 751.593 282.741 754.604 281.537C757.615 280.333 760.35 278.529 762.643 276.236C764.937 273.942 766.74 271.207 767.945 268.196C769.149 265.185 769.729 261.961 769.65 258.719C769.721 255.489 769.137 252.279 767.934 249.281C766.731 246.283 764.933 243.56 762.649 241.276C760.365 238.992 757.642 237.194 754.644 235.99C751.646 234.787 748.435 234.204 745.205 234.275L733.457 233.221L733.46 216.195L745.175 215.103C748.405 215.173 751.616 214.588 754.614 213.383C757.612 212.179 760.336 210.38 762.621 208.095C764.906 205.81 766.705 203.086 767.909 200.088C769.114 197.09 769.699 193.879 769.629 190.649C769.7 187.418 769.116 184.208 767.913 181.21C766.71 178.212 764.912 175.489 762.628 173.205C760.344 170.921 757.621 169.123 754.623 167.92C751.625 166.716 748.414 166.133 745.184 166.204L733.47 165.116L734.566 136.376ZM671.772 139.589C675.756 139.622 678.718 142.312 681.34 144.933L681.374 144.899C683.961 147.487 686.651 150.517 686.65 154.467L686.624 290.677C686.525 294.593 684.925 298.322 682.155 301.092C679.385 303.863 675.656 305.462 671.74 305.561C667.788 305.568 663.985 304.057 661.116 301.34C658.357 298.494 656.818 294.682 656.828 290.717L656.854 154.507C656.944 150.579 658.545 146.837 661.324 144.058C664.102 141.28 667.845 139.679 671.772 139.589ZM603.667 139.602C607.685 139.602 610.613 142.325 613.235 144.947L613.269 144.913C615.857 147.5 618.546 150.53 618.545 154.48L618.519 290.69C618.429 294.618 616.828 298.36 614.049 301.139C611.271 303.917 607.528 305.518 603.601 305.608C599.656 305.598 595.866 304.075 593.011 301.354C590.269 298.496 588.733 294.691 588.723 290.73L588.749 154.52C588.828 150.589 590.425 146.84 593.206 144.059C595.987 141.278 599.736 139.681 603.667 139.602ZM710.005 703.559C758.938 707.465 815.667 719.781 848.351 752.465L848.316 752.499C862.888 767.071 871.772 785.559 875.956 807.795C880.855 833.81 873.973 850.906 858.915 882.305L858.264 883.661C845.228 910.792 829.292 943.96 830.155 985.558C831.031 1032.35 856.291 1069.93 883.355 1108.99L883.358 1108.99C917.298 1157.99 955.696 1213.41 955.678 1302.63C955.601 1350.17 941.292 1387.9 910.945 1417.57C859.005 1468.48 761.678 1494.59 638.544 1492.09C637.841 1492.06 637.137 1492.06 636.433 1492.09C512.209 1494.57 414.62 1468.23 362.973 1416.58C333.455 1387.07 319.33 1349.58 319.34 1302.72C319.323 1213.7 357.639 1158.33 391.554 1109.32L391.739 1109.05C392.538 1107.9 393.336 1106.75 394.133 1105.6C420.348 1067.82 445.141 1032.1 446.043 986.655C446.89 944.603 430.272 910.824 416.855 883.553L416.267 882.358C400.916 851.135 393.394 832.441 398.166 806.833C412.994 727.93 501.467 706.188 565.282 701.476L565.237 931.262C564.07 932.23 562.842 933.056 561.62 933.878C559.92 935.022 558.229 936.159 556.723 937.666C535.363 959.169 523.372 988.244 523.366 1018.55C523.36 1048.85 535.34 1077.92 556.691 1099.41C578.186 1120.77 607.256 1132.75 637.559 1132.74C667.862 1132.73 696.937 1120.74 718.44 1099.38C739.8 1077.88 751.791 1048.8 751.797 1018.5C751.803 988.199 739.823 959.129 718.472 937.634C716.925 936.086 715.182 934.928 713.434 933.767C712.259 932.987 711.082 932.205 709.96 931.302L710.005 703.559ZM783.309 1281.35C783.336 1277.39 781.823 1273.58 779.088 1270.72H779.02C776.163 1267.99 772.352 1266.48 768.397 1266.5L506.601 1266.55C502.678 1266.63 498.935 1268.22 496.16 1271C493.384 1273.77 491.792 1277.51 491.717 1281.44L491.709 1324C491.742 1332.01 498.619 1338.88 506.621 1338.92L768.349 1338.86C772.292 1338.82 776.062 1337.24 778.85 1334.45C781.639 1331.66 783.224 1327.89 783.266 1323.95L783.309 1281.35Z" fill="#4E5E77" fill-opacity="0.2"/>
</svg>
