<svg width="133" height="100" viewBox="0 0 133 100" fill="none" xmlns="http://www.w3.org/2000/svg">
<path d="M0.99407 29.3096C0.532684 29.3943 0.0932985 29.0696 0.0127753 28.5843C-0.0677702 28.099 0.240936 27.6368 0.702343 27.5521L76.4355 13.3667C76.7356 12.8114 77.1416 12.0353 77.5957 11.1673C79.3165 7.87784 81.7346 3.25556 83.1126 1.87342C84.2989 0.683673 85.7936 0.112165 87.302 0.0149312C88.9755 -0.0929477 90.6739 0.390008 91.9756 1.26081C93.392 2.20828 94.3834 3.61357 94.9508 5.2937C95.4084 6.64886 95.5855 8.18472 95.4825 9.79906L131.841 2.98888C132.302 2.90416 132.742 3.22887 132.822 3.71417C132.903 4.19947 132.594 4.6616 132.133 4.74632L110.011 8.88986L111.081 13.6493L131.372 9.60553C131.832 9.51504 132.274 9.8335 132.36 10.3169C132.446 10.8003 132.144 11.2655 131.684 11.356L111.47 15.3842L112.531 20.1061L130.904 16.2222C131.362 16.1259 131.807 16.4382 131.899 16.9196C131.99 17.401 131.693 17.8694 131.236 17.9657L112.921 21.8374L113.972 26.5175L130.436 22.8354C130.894 22.7333 131.343 23.0409 131.44 23.5223C131.537 24.0038 131.245 24.4768 130.787 24.5789L114.362 28.2524L115.404 32.8898L129.968 29.4521C130.424 29.3443 130.876 29.6455 130.979 30.1251C131.081 30.6046 130.795 31.0808 130.339 31.1886L115.793 34.6221L116.826 39.2167L129.503 36.0653C129.959 35.9536 130.414 36.2517 130.52 36.7313C130.627 37.2108 130.343 37.6901 129.887 37.8018L117.317 40.9268C117.789 41.2577 118.244 41.5777 118.676 41.8813C119.346 42.3518 119.953 42.7784 120.687 43.2887C121.578 43.9081 122.21 44.9045 122.689 46.0626C123.135 47.1381 123.448 48.347 123.72 49.5048C124.448 52.6035 123.879 54.6695 122.605 56.05C121.705 57.0241 120.471 57.6108 119.111 57.9576C118.305 58.2382 117.218 58.4555 115.955 58.7078C111.922 59.5136 105.976 60.7024 103.588 65.2352C103.45 65.6344 103.27 66.0467 103.057 66.4604C103.041 66.4983 103.022 66.5345 103.001 66.5688C102.486 67.5427 101.79 68.5185 101.007 69.3429C99.7702 70.6462 98.2854 71.6011 96.8883 71.6561C96.7458 71.6617 96.6045 71.6583 96.4646 71.6455C95.3292 73.8422 94.0383 75.6286 92.4538 76.8199C92.4336 76.8364 92.4125 76.852 92.3906 76.8667C91.9664 77.1799 91.5213 77.4508 91.0526 77.6757C90.5336 77.9246 89.9897 78.116 89.4176 78.245C85.0404 80.313 80.6079 82.6709 76.3093 85.3083C71.6428 88.1715 67.137 91.3621 63.0356 94.8655C62.1026 95.6625 61.1962 96.47 60.3196 97.2877C59.4663 98.0836 58.6262 98.9036 57.8014 99.7479C57.4664 100.091 56.9305 100.083 56.6046 99.7305C56.2787 99.3781 56.2861 98.8145 56.6212 98.4717C57.4467 97.6266 58.3071 96.7876 59.1991 95.9556C60.1059 95.1098 61.0297 94.2862 61.9681 93.4846C66.1453 89.9165 70.7246 86.673 75.4606 83.7671C75.6687 83.6394 75.8771 83.5125 76.0858 83.3861C73.5046 83.3487 70.6555 82.3084 67.0859 79.8994C66.6922 79.6336 66.578 79.0825 66.8307 78.6685C67.0833 78.2544 67.6073 78.1342 68.0009 78.4C72.0535 81.1349 75.0094 81.9469 77.6733 81.4795C79.9118 81.0866 82.0293 79.7789 84.4524 77.9407C83.612 77.6903 82.7246 77.3429 81.7851 76.8907C81.3603 76.6866 81.1733 76.1589 81.3674 75.7121C81.5615 75.2654 82.0632 75.0686 82.4879 75.2728C84.0013 76.0011 85.3445 76.4256 86.5452 76.5852C86.5674 76.5871 86.5895 76.5899 86.6115 76.5936C87.4389 76.6973 88.1983 76.6744 88.8988 76.5377C89.7749 76.1252 90.6486 75.7242 91.5185 75.3349C92.7911 74.3605 93.8671 72.8865 94.8373 71.0613C94.7095 70.9849 94.5861 70.9031 94.4674 70.8164C94.0828 70.5354 93.7428 70.1968 93.4555 69.8093C93.1681 69.4222 93.2334 68.8633 93.6014 68.561C93.9694 68.2587 94.5008 68.3273 94.7882 68.7144C94.9647 68.9525 95.1822 69.1668 95.4355 69.3519C95.6884 69.5367 95.9727 69.6873 96.2831 69.7984C96.4563 69.8604 96.6393 69.8851 96.8287 69.8777C97.7579 69.8412 98.8451 69.1011 99.807 68.0876C100.482 67.3762 101.079 66.543 101.514 65.7206C101.668 65.2876 101.845 64.8777 102.042 64.4889C102.175 64.0705 102.244 63.6908 102.233 63.3775C102.206 62.6126 102.18 61.7042 102.153 60.7286C101.997 55.1981 101.778 47.4429 100.582 44.4165C100.453 44.0914 100.306 43.8451 100.045 43.5521C99.7385 43.2091 99.267 42.7852 98.5245 42.1393C97.7115 41.4321 96.679 40.513 95.5613 39.5182C90.2567 34.7968 82.9448 28.2887 80.3564 27.9225C75.9196 27.2949 72.4016 28.1575 68.1806 29.1926C66.9822 29.4864 65.7289 29.7938 64.4097 30.0808C64.5153 30.4959 64.5604 30.921 64.5691 31.3446C65.8592 32.3541 67.151 33.3112 68.4458 34.2705C69.4172 34.9902 70.3903 35.7112 71.353 36.4457C71.3903 36.4437 71.428 36.4443 71.4661 36.4476L76.3475 36.8729C76.2049 36.3867 76.0776 35.8724 75.967 35.3252C75.87 34.8438 76.1624 34.3707 76.6201 34.2687C77.0779 34.1666 77.5276 34.4742 77.6247 34.9556C78.5989 39.7749 81.1162 41.8293 84.4225 44.5275C85.2845 45.2309 86.1975 45.9761 87.1542 46.8232L87.1627 46.811C87.4392 46.4143 87.9691 46.3284 88.3463 46.6192C88.7234 46.9099 88.8051 47.4673 88.5286 47.864C85.8768 51.6631 86.3406 53.4358 87.2854 57.0464C87.3876 57.4371 87.4941 57.8438 87.5719 58.1473L89.0737 60.0397C89.3739 60.4172 89.3264 60.9792 88.9676 61.295C88.6087 61.6109 88.0744 61.5609 87.7741 61.1834L81.8561 53.7263C81.8567 53.8117 81.8576 53.8978 81.8591 53.9845C81.8664 54.4755 81.4938 54.8799 81.0269 54.8876C80.56 54.8953 80.1756 54.5034 80.1683 54.0123C80.1541 53.1465 80.1802 52.3794 80.2045 51.6651C80.2081 51.56 80.2116 51.4561 80.215 51.3534C80.2144 51.321 80.2154 51.2887 80.2181 51.2565C80.2842 49.1506 80.2459 47.5321 78.7513 45.6682C75.6242 41.7687 71.5322 38.7368 67.4712 35.7281C66.4413 34.9651 65.4134 34.2036 64.4176 33.4416C64.3669 33.8828 64.3251 34.2838 64.344 34.5719C64.3751 35.063 64.0218 35.4877 63.5549 35.5204C63.0881 35.5531 62.6843 35.1816 62.6532 34.6905C62.6208 34.1953 62.6824 33.6652 62.7493 33.0889C62.9081 31.7209 63.1056 30.0201 61.6636 29.1095C61.0618 28.7296 60.7274 28.5134 60.3859 28.2924C57.0815 26.1555 53.1457 23.6102 50.5976 24.7323C49.8186 25.0754 49.1354 25.5792 48.7429 26.2397C48.4771 26.6869 48.3426 27.2232 48.405 27.8512C48.6145 28.0121 48.8214 28.183 49.025 28.3621C50.8061 29.9297 52.3788 32.1795 53.1491 33.8961C54.0376 35.8764 54.9116 38.0339 55.6658 39.9552C56.4941 41.565 57.6573 42.4596 58.9143 43.4261C59.8673 44.1589 60.8691 44.9292 61.8645 46.0635C63.2006 47.5861 64.4353 49.1458 65.2883 50.5837C66.2242 52.1611 66.7158 53.6371 66.4404 54.8569L66.2003 55.92L76.3798 68.4173C76.6838 68.7909 76.6422 69.353 76.287 69.6726C75.9318 69.9923 75.3975 69.9486 75.0935 69.575L65.7165 58.0629L65.3346 59.7545C65.2265 60.234 64.7694 60.5306 64.3135 60.417C63.8576 60.3034 63.5756 59.8225 63.6836 59.343L64.7894 54.4454C64.9472 53.7464 64.5565 52.7168 63.8495 51.5252C63.0598 50.194 61.8909 48.7207 60.618 47.27C59.7347 46.2634 58.8012 45.5456 57.9131 44.8628C57.7466 44.7347 57.5816 44.6078 57.4183 44.4804L57.4743 44.622C57.6537 45.0765 57.4489 45.5979 57.0168 45.7867C56.5847 45.9754 56.0889 45.76 55.9095 45.3055C55.744 44.8879 55.4915 44.2308 55.1976 43.466C54.8869 42.6576 54.5271 41.7216 54.1338 40.7188C54.0107 40.4705 53.8928 40.2074 53.7807 39.9272C53.7465 39.8416 53.7259 39.7537 53.718 39.6659C53.0674 38.031 52.3472 36.2828 51.6174 34.6562C50.9344 33.1341 49.532 31.1323 47.9376 29.729C47.2081 29.0871 46.4507 28.5815 45.7254 28.3267C45.0924 28.1043 44.4861 28.0785 43.9586 28.3403C43.6792 28.479 43.4083 28.703 43.1511 29.0263C42.8025 29.4646 42.5341 29.8687 42.3384 30.2623C42.1511 30.6388 42.0228 31.0215 41.9454 31.4338C41.8558 31.9108 41.8336 32.4915 41.8703 33.1525C42.0113 35.6893 42.9913 39.2561 44.3721 42.7523C44.3933 42.7953 44.4114 42.8406 44.4259 42.8879C44.8417 43.9325 45.2928 44.9695 45.7676 45.9695C46.4214 47.3466 47.1126 48.6467 47.8081 49.7882C47.871 49.8603 47.9232 49.9439 47.9612 50.0369C49.1734 51.9839 50.3911 53.431 51.4395 53.9464L51.4539 53.6361C51.4643 53.4133 51.4751 53.1825 51.4821 53.0199C51.5023 52.5288 51.8971 52.1479 52.364 52.169C52.8309 52.1902 53.193 52.6055 53.1729 53.0966C53.1615 53.3604 53.153 53.5422 53.1447 53.7198C53.0128 56.5459 52.9422 58.0599 55.049 60.9945L65.4099 75.4266C65.6919 75.8195 65.6177 76.3784 65.2442 76.675C64.8707 76.9715 64.3393 76.8935 64.0573 76.5006L53.6963 62.0685C53.3508 61.5872 53.0552 61.1392 52.8025 60.7158C52.3222 61.3078 51.9394 61.8935 51.6228 62.475C51.1982 63.2551 50.8907 64.0356 50.6258 64.8164C49.7209 67.4846 48.8225 69.2693 47.767 70.7678C47.4925 71.1574 47.2097 71.5245 46.9153 71.8801C47.793 71.5272 48.6951 71.1832 49.6082 70.835C51.3917 70.155 53.2183 69.4585 55.0081 68.632C55.4365 68.4356 55.9352 68.6416 56.122 69.0923C56.3088 69.5429 56.1129 70.0675 55.6844 70.2639C53.8462 71.1127 51.9938 71.8191 50.1851 72.5088C48.5845 73.1191 47.0188 73.7161 45.5113 74.3995C41.8641 76.0529 41.1682 79.672 40.6261 82.4915L40.5103 83.0932C40.3462 85.6162 40.8736 88.1317 42.1394 90.1085C42.4012 90.5168 42.2988 91.071 41.9106 91.3464C41.5225 91.6218 40.9955 91.514 40.7337 91.1058C39.2482 88.7858 38.6297 85.859 38.8242 82.9446C38.8249 82.9175 38.8269 82.8903 38.83 82.8629C38.8499 82.5866 38.8769 82.3103 38.9114 82.0348C39.3072 78.87 40.663 75.7813 42.9085 73.5731C44.3288 72.1765 45.4515 71.0653 46.4078 69.7077C47.3595 68.3566 48.1809 66.7137 49.0279 64.2166C49.3211 63.3523 49.6656 62.4808 50.1509 61.5893C50.6082 60.7493 51.1886 59.8987 51.9659 59.0315C51.7334 58.4313 51.5883 57.8627 51.502 57.2888L2.58213 69.4506C2.12624 69.5623 1.67056 69.2641 1.56436 68.7846C1.45818 68.3051 1.74165 67.8258 2.19755 67.7141L25.3105 61.9681L24.0328 56.2824L2.26716 61.4203C1.81126 61.5281 1.35855 61.2268 1.25603 60.7473C1.15351 60.2678 1.43997 59.7916 1.89587 59.6838L23.6435 54.5502L22.3579 48.829L1.94888 53.3935C1.49115 53.4956 1.04139 53.188 0.944359 52.7066C0.847325 52.2251 1.13977 51.752 1.59747 51.65L21.968 47.0941L20.6744 41.3375L1.63065 45.3632C1.17292 45.4595 0.7276 45.1472 0.636055 44.6658C0.544487 44.1844 0.841368 43.716 1.29909 43.6197L20.2853 39.6061L18.9839 33.8148L1.31237 37.3364C0.852792 37.4269 0.410438 37.1084 0.324404 36.6251C0.23837 36.1417 0.541141 35.6764 1.00072 35.5859L18.594 32.0799L17.2857 26.258L0.99407 29.3096ZM53.3136 98.682C53.1042 98.8962 52.7693 98.8913 52.5656 98.6711C52.3619 98.4508 52.3666 98.0986 52.576 97.8843C53.4013 97.0394 54.258 96.204 55.1427 95.3787C56.0439 94.5381 56.9644 93.7175 57.9017 92.9169C58.1283 92.7231 58.4614 92.7592 58.6456 92.9975C58.8298 93.2358 58.7955 93.5862 58.5689 93.7799C57.6349 94.5778 56.7252 95.3884 55.843 96.2112C54.9824 97.0139 54.1385 97.8375 53.3136 98.682ZM50.114 28.1887C49.7039 27.9538 49.5525 27.4136 49.7759 26.9822C49.9992 26.5509 50.5128 26.3916 50.923 26.6266L55.1077 29.0187C55.6582 29.3334 56.2396 29.4119 56.7714 29.3059C57.3311 29.1944 57.838 28.8754 58.1952 28.411C58.49 28.0278 59.0244 27.9684 59.3887 28.2785C59.7531 28.5885 59.8095 29.1506 59.5147 29.5338C58.9081 30.3225 58.0424 30.8652 57.083 31.0564C56.189 31.2346 55.2155 31.1049 54.2987 30.5809L50.114 28.1887ZM43.0326 30.7749C42.8147 30.3397 42.9736 29.8011 43.3874 29.5719C43.8011 29.3427 44.3133 29.5098 44.5311 29.945L46.2212 33.3059C46.9612 34.7773 47.6642 35.5158 48.3663 35.8204C49.0377 36.1116 49.7883 36.0211 50.6002 35.8131C51.0543 35.6976 51.5115 35.9911 51.6213 36.4687C51.7312 36.9463 51.4521 37.4272 50.9981 37.5427C49.8802 37.829 48.8109 37.938 47.7232 37.4662C46.6662 37.0077 45.6705 36.0205 44.7227 34.1358L43.0326 30.7749ZM108.41 58.8795C108.442 58.8896 108.473 58.9028 108.503 58.9186C109.951 58.3108 111.459 57.8807 112.889 57.5431C111.169 56.801 109.576 55.6233 107.949 54.4207C107.169 53.8442 106.381 53.2617 105.6 52.744C105.205 52.482 105.086 51.9325 105.335 51.5165C105.584 51.1006 106.107 50.9757 106.502 51.2376C107.35 51.8 108.141 52.3846 108.923 52.9632C111.636 54.9686 114.246 56.898 117.345 56.4882C117.781 56.4305 118.209 56.3542 118.62 56.2541C118.653 56.2439 118.685 56.2358 118.717 56.2299C119.79 55.9566 120.739 55.5154 121.391 54.8087C122.271 53.8561 122.64 52.3321 122.076 49.9302C121.822 48.8475 121.532 47.7254 121.138 46.774C120.778 45.9053 120.334 45.1787 119.752 44.7742C119.333 44.483 118.574 43.9495 117.735 43.3598C113.287 40.2345 106.334 35.3497 104.46 34.8507C101.613 34.0926 97.51 35.3379 94.5096 36.2531C95.2489 36.9065 95.9684 37.5469 96.6553 38.1583C97.7109 39.0978 98.6858 39.9656 99.6052 40.7654C100.392 41.4501 100.902 41.9099 101.278 42.3317C101.699 42.8035 101.937 43.2031 102.147 43.7331C103.459 47.0539 103.684 55.0077 103.844 60.6798C103.856 61.1088 103.867 61.5244 103.879 61.9272C104.823 60.9622 105.926 60.1956 107.104 59.576C106.928 59.501 106.754 59.4214 106.581 59.3376C106.093 59.1012 105.607 58.8272 105.123 58.5272C104.871 58.3719 104.787 58.0314 104.934 57.7666C105.082 57.5018 105.406 57.413 105.658 57.5683C106.104 57.845 106.558 58.1007 107.024 58.3264C107.48 58.547 107.941 58.7347 108.41 58.8795ZM78.5894 12.9633L93.7594 10.1218C93.9108 8.58856 93.7755 7.13811 93.3528 5.88648C92.9111 4.57836 92.1491 3.49087 91.0672 2.76718C90.049 2.08603 88.7171 1.7085 87.4015 1.79331C86.268 1.86637 85.1527 2.28798 84.2796 3.16359C83.0953 4.35142 80.75 8.83462 79.081 12.0251C78.9098 12.3522 78.7458 12.6657 78.5894 12.9633ZM115.125 39.3984L114.139 35.0125L110.048 35.9783C111.659 37.0192 113.432 38.2252 115.125 39.3984ZM107.93 34.6542L113.75 33.2803L112.704 28.6233L91.7757 33.3038L91.9319 33.9989C92.2699 34.2905 92.6069 34.5832 92.9419 34.8755C93.3097 34.7669 93.6484 34.6636 94.0034 34.5553C97.1954 33.5816 101.579 32.2444 104.872 33.1212C105.515 33.2925 106.601 33.859 107.93 34.6542ZM89.5492 31.9797L89.7273 31.9398L88.6119 26.9761L84.2055 27.9075C85.8022 28.9639 87.6496 30.4034 89.5492 31.9797ZM82.0808 26.6692C82.1899 26.5659 82.3258 26.4911 82.4802 26.4587L88.2228 25.2447L87.0984 20.241L66.0608 24.4334L66.795 27.7007C67.1338 27.6185 67.467 27.5367 67.796 27.4561C72.1781 26.3816 75.8303 25.486 80.5819 26.1581C81.0036 26.2178 81.509 26.3954 82.0808 26.6692ZM65.1412 28.0927L64.3935 24.7656L59.6235 25.7162C60.1853 26.0679 60.7374 26.4248 61.2744 26.7721C61.801 27.1127 62.3143 27.4447 62.5322 27.5822C62.9498 27.846 63.286 28.1349 63.5557 28.4422L63.5574 28.4418C64.1036 28.3269 64.6302 28.2101 65.1412 28.0927ZM73.8925 38.4495C76.1178 40.2788 78.223 42.2464 80.0442 44.5175C81.8767 46.8027 81.983 48.6639 81.9178 51.0227L85.0339 54.9493C84.5903 52.6975 84.688 50.9103 86.2012 48.3064C85.2207 47.4318 84.2768 46.6615 83.3881 45.9362C80.654 43.7049 78.4173 41.8792 77.0198 38.722L73.8925 38.4495ZM57.3228 24.3665C57.3499 24.3582 57.3776 24.3511 57.4059 24.3456L64.0037 23.0308L62.8126 17.7305L41.7207 21.6812L42.8981 26.9205C43.0089 26.8498 43.1215 26.7861 43.2359 26.7293C44.1952 26.2531 45.2272 26.2753 46.2625 26.639C46.4243 26.6958 46.586 26.7611 46.7473 26.8342C46.8357 26.2724 47.0294 25.7603 47.3041 25.2982C47.8995 24.2963 48.8679 23.5621 49.9478 23.0865C52.1396 22.1212 54.7556 22.9903 57.3228 24.3665ZM40.8289 29.4616L20.6511 33.4826L21.9482 39.2546L40.4286 35.348C40.3006 34.6001 40.2154 33.8955 40.1796 33.2501C40.1346 32.4397 40.1648 31.7116 40.2811 31.0921C40.3872 30.5276 40.5661 29.9947 40.8289 29.4616ZM40.7838 37.0865L22.3373 40.986L23.6265 46.7232L42.4537 42.5125C41.7619 40.6574 41.1856 38.7992 40.7838 37.0865ZM43.1102 44.1878L24.0164 48.4581L25.2976 54.1597L45.5913 49.3693C45.1279 48.5423 44.6781 47.6678 44.2492 46.7645C43.8516 45.9271 43.4699 45.0628 43.1102 44.1878ZM48.9723 54.151C49.1321 54.7929 49.2866 55.4176 49.4198 55.9743L50.87 55.6138C50.2554 55.3168 49.6172 54.8149 48.9723 54.151ZM108.339 9.20294L87.2476 13.1536L88.3757 18.1739L109.413 13.9815L108.339 9.20294ZM109.803 15.7164L88.7656 19.9088L89.8857 24.8932L110.869 20.4576L109.803 15.7164ZM111.258 22.1889L90.2747 26.6245L91.3858 31.5689L112.314 26.8884L111.258 22.1889ZM85.576 13.4667L64.4841 17.4174L65.6709 22.6985L86.7085 18.5061L85.576 13.4667ZM40.0491 21.9942L18.9572 25.9449L20.2612 31.7477L41.2988 27.5553L40.0491 21.9942ZM46.4488 50.9911L25.6869 55.892L26.9602 61.5579L47.7712 56.3842C47.5873 55.6097 47.3791 54.7753 47.171 53.941C46.9073 52.8843 46.6437 51.8275 46.4488 50.9911Z" fill="white"/>
</svg>
