<svg width="90" height="100" viewBox="0 0 90 100" fill="none" xmlns="http://www.w3.org/2000/svg">
<path d="M55.8502 47.0112C52.5705 47.0112 49.9027 49.6956 49.9027 52.9963C49.9027 56.2971 52.5705 58.9827 55.8502 58.9827C59.1299 58.9827 61.7977 56.2971 61.7977 52.9963C61.7977 52.959 61.7874 52.9243 61.7868 52.8871C61.7876 52.868 61.7977 52.8521 61.7977 52.8328V26.5083C61.7977 25.8174 61.2372 25.2583 60.5446 25.2583C60.522 25.2583 60.5032 25.27 60.4809 25.2711C60.3062 25.2525 60.1265 25.2637 59.9486 25.3242L39.6303 32.1577C39.0913 32.3383 38.7778 32.8502 38.7988 33.3899C38.7956 33.4266 38.7774 33.4581 38.7774 33.4956V52.5597C37.8 51.857 36.6116 51.4326 35.3202 51.4326C32.0332 51.4326 29.358 54.1169 29.358 57.4177C29.358 60.7185 32.0332 63.4041 35.3202 63.4041C38.6085 63.4041 41.2836 60.7185 41.2836 57.4177C41.2836 57.3421 41.2641 57.2719 41.2614 57.197C41.2649 57.1589 41.2836 57.126 41.2836 57.0869V41.4998L59.2914 35.4433V48.1328C58.318 47.4331 57.1351 47.0112 55.8502 47.0112ZM55.8502 56.4827C53.9521 56.4827 52.4089 54.9189 52.4089 52.9963C52.4089 51.075 53.9521 49.5112 55.8502 49.5112C57.7482 49.5112 59.2914 51.075 59.2914 52.9963C59.2914 54.9189 57.7482 56.4827 55.8502 56.4827ZM35.3202 60.9041C33.4148 60.9041 31.8643 59.3403 31.8643 57.4177C31.8643 55.4963 33.4148 53.9326 35.3202 53.9326C37.2268 53.9326 38.7774 55.4963 38.7774 57.4177C38.7774 59.3403 37.2268 60.9041 35.3202 60.9041ZM41.2836 38.8624V34.239L59.2914 28.1826V32.806L41.2836 38.8624Z" fill="white"/>
<path d="M0.0810497 72.6221L3.80253 91.7493C4.04729 93.363 4.85008 94.7693 6.00287 95.6079C6.69797 96.1145 7.48975 96.3806 8.28031 96.3806C8.4651 96.3806 8.64989 96.366 8.83345 96.3367L11.5473 95.9008C11.9139 97.1096 12.6327 98.1654 13.6624 98.9148C14.6402 99.6265 15.7894 100 16.9703 100C17.2689 100 17.5687 99.9756 17.8685 99.928L25.6676 98.678C25.6689 98.678 25.6689 98.678 25.6689 98.678C28.7748 98.1799 30.909 95.1953 30.4208 91.9934L25.0031 61.7297C24.7657 60.166 23.9384 58.7976 22.6755 57.8784C21.4517 56.9873 19.9587 56.6284 18.4694 56.8665L10.6703 58.1177C7.56563 58.6157 5.43015 61.6003 5.91721 64.8022L6.17137 66.2218L4.69283 66.4588C3.75137 62.0708 3.15332 52.0924 3.14659 47.699C3.1303 36.9199 7.18366 26.7989 14.5813 19.0128L15.038 20.4309C15.4063 21.5735 16.2997 22.4646 17.428 22.8149C18.5502 23.1641 19.7201 22.9504 20.649 22.2375C27.4923 16.9922 36.5726 13.9832 45.5625 13.9832C54.6367 13.9832 63.7758 17.0374 70.6351 22.3621C71.2678 22.8528 72.0228 23.1091 72.7962 23.1091C73.1132 23.1091 73.4338 23.0664 73.7496 22.9797C74.8693 22.6697 75.7565 21.8628 76.1824 20.7654L76.443 20.0936C83.167 27.6933 86.8667 37.3839 86.8818 47.5647C86.8898 52.0028 86.3103 62.1523 85.3649 66.469L83.8209 66.2215L84.0806 64.7705C84.564 61.6003 82.4298 58.6157 79.3238 58.1177L71.5247 56.8665C70.0281 56.6296 68.5436 56.9873 67.3186 57.8784C66.0557 58.7976 65.2284 60.166 64.9959 61.698L59.5685 92.0251C59.0851 95.1953 61.2194 98.1799 64.3253 98.678C64.3253 98.678 64.3253 98.678 64.3265 98.678L72.1244 99.928C72.4254 99.9756 72.7253 100 73.0239 100C74.2036 100 75.3539 99.6265 76.3317 98.9148C77.3667 98.1615 78.0868 97.0996 78.4488 95.901L81.1619 96.3367C81.3443 96.366 81.5291 96.3806 81.7138 96.3806C82.5032 96.3806 83.295 96.1145 83.9901 95.6091C85.1429 94.7705 85.9456 93.3643 86.1831 91.7993L89.9217 72.572C90.2815 70.2081 89.3729 68.087 87.7827 67.1401C88.8558 62.3518 89.3949 51.5461 89.3881 47.5598C89.3712 36.3377 85.1325 25.6761 77.4548 17.4855L77.6191 17.0618V17.0605C78.521 14.7363 77.788 12.0923 75.8361 10.6323C68.9903 5.51147 56.5972 0 45.5625 0C35.4676 0 23.0769 3.84521 15.432 9.35059C13.5083 10.7349 12.7165 13.219 13.4605 15.5322L13.7135 16.3181C5.26601 24.6923 0.622109 35.8217 0.640313 47.7026C0.645973 51.6451 1.20577 62.2431 2.27045 67.1069C0.643907 68.037 -0.290212 70.1885 0.0810497 72.6221ZM76.1812 94.6912C76.0441 95.5896 75.573 96.3721 74.8546 96.8958C74.1742 97.3901 73.3457 97.594 72.5221 97.4597L64.7243 96.2097C62.9706 95.9277 61.7688 94.22 62.0405 92.4329L67.4679 62.1057C67.605 61.2061 68.0774 60.4211 68.7957 59.8987C69.4762 59.4019 70.3071 59.2004 71.1258 59.3347L78.9249 60.5859C80.6785 60.8679 81.8803 62.5757 81.6086 64.3628L76.1812 94.6912ZM87.4533 72.146L83.7147 91.3733C83.5703 92.3193 83.1212 93.147 82.513 93.5901C82.2915 93.75 81.95 93.9319 81.5597 93.8684L78.9483 93.4489L83.3805 68.6828L86.1157 69.1211C86.9455 69.2542 87.6944 70.5493 87.4533 72.146ZM16.8981 11.377C24.0425 6.23291 36.0966 2.5 45.5625 2.5C55.557 2.5 67.6013 7.59766 74.3321 12.6318C75.3894 13.4229 75.7798 14.873 75.2817 16.1597V16.1584L73.845 19.8633C73.7079 20.2161 73.4289 20.4736 73.0802 20.5701C72.8966 20.6213 72.5307 20.6677 72.1746 20.3894C64.8833 14.729 55.1837 11.4832 45.5625 11.4832C36.0305 11.4832 26.3933 14.6802 19.1205 20.2563C18.7423 20.5469 18.3654 20.4883 18.1745 20.4285C17.8171 20.3174 17.5442 20.0403 17.4243 19.6667L15.8469 14.7681C15.4418 13.5095 15.8738 12.1143 16.8981 11.377ZM11.0693 60.5859L18.8684 59.3347C19.0336 59.3079 19.1988 59.2957 19.3628 59.2957C20.0163 59.2957 20.6538 59.502 21.1984 59.8987C21.9168 60.4211 22.3892 61.2061 22.5311 62.1375L27.9487 92.4011C28.2253 94.22 27.0236 95.9277 25.2699 96.2097L17.4708 97.4597C16.6484 97.594 15.8212 97.3901 15.1395 96.8958C14.4212 96.3721 13.95 95.5896 13.8081 94.6582L8.38922 64.3958C8.11388 62.5757 9.31562 60.8679 11.0693 60.5859ZM11.0467 93.4489L8.43573 93.8684C8.05513 93.9319 7.70269 93.7512 7.47996 93.5889C6.87175 93.147 6.42385 92.3181 6.27088 91.3232L2.54939 72.196C2.29974 70.5493 3.04869 69.2542 3.87841 69.1211L6.61208 68.683L11.0467 93.4489Z" fill="white"/>
</svg>
